<?xml version="1.0" encoding="UTF-8"?>
<svg id="b" data-name="Layer_2" xmlns="http://www.w3.org/2000/svg" width="179.078" height="179.079" viewBox="0 0 179.078 179.079">
  <g id="c" data-name="Layer_1">
    <g>
      <g>
        <circle cx="89.538" cy="89.54" r="86.546" fill="#1e8ec0"/>
        <path d="M89.537,179.079C40.165,179.079,0,138.912,0,89.54S40.165,0,89.537,0s89.54,40.168,89.54,89.54-40.168,89.539-89.54,89.539ZM89.537,5.986C43.468,5.986,5.986,43.468,5.986,89.54s37.482,83.553,83.551,83.553,83.554-37.482,83.554-83.553S135.61,5.986,89.537,5.986Z"/>
      </g>
      <g>
        <circle cx="89.538" cy="89.54" r="34.668" fill="#ebb437"/>
        <path d="M89.537,127.201c-20.767,0-37.66-16.894-37.66-37.66s16.894-37.662,37.66-37.662,37.663,16.895,37.663,37.662-16.897,37.66-37.663,37.66ZM89.537,57.864c-17.467,0-31.674,14.209-31.674,31.676s14.208,31.674,31.674,31.674,31.677-14.209,31.677-31.674-14.211-31.676-31.677-31.676Z"/>
      </g>
      <g>
        <circle cx="89.538" cy="89.54" r="15.214" fill="#62544b"/>
        <path d="M89.537,107.746c-10.04,0-18.206-8.168-18.206-18.206s8.166-18.208,18.206-18.208,18.209,8.168,18.209,18.208-8.169,18.206-18.209,18.206ZM89.537,77.319c-6.737,0-12.22,5.483-12.22,12.222s5.483,12.22,12.22,12.22,12.223-5.482,12.223-12.22-5.483-12.222-12.223-12.222Z"/>
      </g>
      <g>
        <line x1="120.554" y1="74.051" x2="166.966" y2="50.873" fill="#1e8ec0"/>
        <path d="M120.557,77.044c-1.099,0-2.157-.606-2.68-1.656-.739-1.479-.137-3.276,1.339-4.014l46.411-23.178c1.479-.738,3.276-.139,4.016,1.34s.137,3.276-1.339,4.014l-46.411,23.178c-.43.215-.886.316-1.336.316Z"/>
      </g>
      <g>
        <line x1="117.076" y1="68.479" x2="158.285" y2="36.964" fill="#1e8ec0"/>
        <path d="M117.079,71.473c-.9,0-1.792-.405-2.379-1.175-1.005-1.312-.754-3.192.558-4.196l41.209-31.515c1.318-1.003,3.195-.751,4.194.56,1.005,1.312.754,3.192-.558,4.196l-41.209,31.515c-.544.415-1.181.615-1.815.615Z"/>
      </g>
      <g>
        <path d="M95.88,55.456v.021c7.028,1.301,13.321,4.696,18.173,9.548h0l36.683-36.683h0c-12.117-12.117-27.818-20.633-45.368-23.879l-9.487,50.993Z" fill="#f6eedc"/>
        <path d="M114.054,68.018c-.766,0-1.532-.292-2.116-.875-4.539-4.536-10.28-7.553-16.602-8.722-1.42-.263-2.449-1.501-2.449-2.943,0-.184.018-.389.05-.57L102.424,3.915c.301-1.624,1.856-2.69,3.487-2.395,17.847,3.301,34.077,11.843,46.94,24.705.561.561.877,1.323.877,2.116s-.316,1.555-.877,2.116l-36.681,36.684c-.585.585-1.35.877-2.116.877ZM99.346,53.195c5.401,1.445,10.373,4.057,14.62,7.681l32.499-32.497c-10.908-10.166-24.186-17.154-38.713-20.376l-8.406,45.192Z"/>
      </g>
      <g>
        <path d="M57.677,103.206l-47.677,20.45-.003.022c10.939,25.454,33.733,44.599,61.436,50.498l.044.006,10.826-50.736-.003-.006c-11.105-2.36-20.241-10.03-24.623-20.233Z" fill="#f6eedc"/>
        <path d="M71.48,177.173c-.132,0-.266-.009-.398-.026-28.608-6.078-52.371-25.608-63.837-52.288-.213-.497-.286-1.042-.216-1.578.14-1.045.821-1.961,1.789-2.376l47.677-20.449c1.517-.649,3.276.048,3.931,1.568,4.057,9.445,12.469,16.356,22.497,18.488.891.189,1.646.775,2.055,1.589.304.608.395,1.305.251,1.969l-10.826,50.736c-.295,1.397-1.532,2.369-2.923,2.369ZM13.971,125.209c10.689,22.617,31.005,39.312,55.215,45.374l9.593-44.954c-9.686-2.885-17.838-9.584-22.561-18.539l-42.246,18.12Z"/>
      </g>
    </g>
  </g>
</svg>