<?xml version="1.0" encoding="UTF-8"?>
<svg id="b" data-name="Layer_2" xmlns="http://www.w3.org/2000/svg" width="269.21" height="195.26" viewBox="0 0 269.21 195.26">
  <g id="c" data-name="Layer_1">
    <g>
      <g>
        <path d="M230.809,69.496c-6.985-.965-13.658-.127-19.689,2.058-1.288.467-2.665-.526-2.597-1.895.049-.998.075-2.002.075-3.012,0-35.183-28.522-63.705-63.705-63.705-32.652,0-59.552,24.57-63.255,56.228-.168,1.437-1.74,2.284-2.959,1.504-9.355-5.987-20.832-8.938-33.096-7.317-22.215,2.938-39.945,21.095-42.342,43.374-3.192,29.666,19.968,54.747,48.986,54.747h172.849c24.148,0,43.442-20.78,40.977-45.433-1.866-18.663-16.664-33.981-35.244-36.549Z" fill="#f6eedc"/>
        <path d="M225.075,154.421H52.226c-14.8,0-28.964-6.32-38.862-17.338C3.331,125.912-1.304,111.47.317,96.417c2.531-23.537,21.408-42.872,44.882-45.975,11.921-1.58,23.528.815,33.708,6.913C83.477,24.555,111.588,0,144.894,0c36.748,0,66.646,29.898,66.646,66.647,0,.556-.009,1.109-.023,1.659,6.364-2.073,12.978-2.653,19.696-1.725h0c19.891,2.751,35.774,19.224,37.768,39.171,1.264,12.655-2.704,24.78-11.174,34.14-8.355,9.233-20.287,14.528-32.731,14.528ZM52.278,55.857c-2.086,0-4.192.138-6.309.418-20.816,2.752-37.555,19.899-39.802,40.772-1.439,13.37,2.672,26.192,11.576,36.104,8.783,9.777,21.35,15.386,34.484,15.386h172.849c10.786,0,21.126-4.59,28.367-12.592,7.341-8.112,10.78-18.627,9.683-29.606-1.727-17.276-15.486-31.544-32.717-33.928h0c-6.261-.866-12.406-.221-18.285,1.911-1.531.553-3.244.309-4.565-.667-1.313-.968-2.051-2.515-1.974-4.137.046-.952.072-1.908.072-2.87,0-33.505-27.258-60.763-60.762-60.763-30.82,0-56.756,23.056-60.333,53.629-.204,1.727-1.256,3.195-2.816,3.933-1.508.717-3.25.603-4.652-.293-7.531-4.82-16.006-7.296-24.815-7.296Z"/>
      </g>
      <g>
        <path d="M152.97,125.921c-7.141-1.222-13.926-.131-19.804,2.59-.721.334-1.532-.055-1.728-.824-3.948-15.511-17.974-26.997-34.699-27.063-14.871-.058-28.114,9.651-33.644,23.455-2.713,6.772-2.952,13.162-1.823,19.076.173.908-.71,1.675-1.589,1.391-3.425-1.107-7.179-1.482-11.08-.931-10.859,1.535-19.553,10.516-20.767,21.415-1.646,14.776,9.876,27.287,24.32,27.287h95.008c19.697,0,35.418-17.027,33.246-37.165-1.577-14.624-12.942-26.751-27.439-29.231Z" fill="#f6eedc"/>
        <path d="M147.164,195.26H52.154c-7.789,0-15.239-3.331-20.437-9.141-5.195-5.805-7.674-13.61-6.807-21.415,1.356-12.192,11.148-22.287,23.281-24.002,3.31-.467,6.591-.355,9.774.338-.741-6.174.063-12.234,2.399-18.055,6.068-15.15,20.621-25.302,36.242-25.302h.144c17.069.068,32.01,11.225,37.001,27.375,6.223-2.48,12.998-3.181,19.716-2.037h0c15.857,2.714,28.14,15.797,29.866,31.816,1.132,10.488-2.097,20.552-9.088,28.339-6.896,7.68-16.768,12.085-27.082,12.085ZM52.169,146.304c-1.046,0-2.097.075-3.155.224-9.513,1.345-17.19,9.263-18.253,18.826-.695,6.235,1.201,12.214,5.341,16.841,4.083,4.563,9.933,7.18,16.052,7.18h95.01c8.645,0,16.923-3.693,22.704-10.132,5.861-6.528,8.565-14.971,7.617-23.775-1.448-13.416-11.734-24.374-25.011-26.647h0c-6.197-1.062-12.449-.246-18.072,2.36-1.135.526-2.431.521-3.554-.01-1.123-.533-1.948-1.536-2.261-2.751-3.709-14.578-16.808-24.795-31.858-24.854h-.121c-13.24,0-25.597,8.67-30.78,21.608-2.278,5.677-2.821,11.378-1.666,17.43.279,1.448-.218,2.906-1.333,3.892-1.106.975-2.658,1.297-4.051.85-2.143-.694-4.356-1.042-6.608-1.042ZM58.38,143.705s0,.004.003.007c-.003-.003-.003-.004-.003-.007Z"/>
      </g>
    </g>
  </g>
</svg>