<?xml version="1.0" encoding="UTF-8"?>
<svg id="b" data-name="Layer_2" xmlns="http://www.w3.org/2000/svg" width="514.569" height="430.259" viewBox="0 0 514.569 430.259">
  <g id="c" data-name="Layer_1">
    <g>
      <path d="M67.125,60.883c-1.07,3.032-2.606,5.717-4.577,8.006h0c-.376.437-.768.859-1.176,1.267-2.545,2.545-5.781,4.549-9.618,5.956-2.837,1.041-6.04,1.704-9.557,1.984V30.501h12.441c3.734,0,7.172.386,10.264,1.152.882,1.468,1.625,3.052,2.222,4.744,1.287,3.647,1.939,7.766,1.939,12.243,0,4.479-.652,8.599-1.939,12.244ZM137.73,80.139c-2.179,1.183-4.83,1.798-7.905,1.832-.166-.586-.308-1.197-.425-1.832h8.33ZM134.649,267.543l.789-.377-5.597-17.395-13.253-9.282v-22.352s15.969,0,15.969,0v-16.904l-15.969-11.183v-8.778s-16.38-11.471-16.38-11.471h-19.432v19.961s-11.444,0-11.444,0v15.255c-.125-.091-.25-.181-.377-.27h-.002s-16.377-11.471-16.377-11.471h-.002c-5.35-3.748-12.61-5.644-21.631-5.644-11.694,0-21.16,4.121-28.162,12.253-.327.38-.649.769-.965,1.166l-.669.841,16.378,11.471.654.447c-.488.128-.968.267-1.443.416-3.342,1.054-6.296,2.614-8.781,4.637-1.039.847-1.987,1.768-2.839,2.758-1.196,1.389-2.205,2.915-3.015,4.562C.706,229.016,0,232.231,0,235.74c0,3.414.657,6.597,1.951,9.46,1.296,2.871,3.126,5.357,5.44,7.392.133.117.268.233.404.348.545.459,1.113.895,1.702,1.308.001,0,.002.002.004.002l16.371,11.467.004.002.004.002c1.801,1.261,3.806,2.306,5.987,3.12,3.07,1.146,6.389,1.726,9.864,1.726,4.689,0,8.604-.945,11.636-2.81,1.046-.644,2.044-1.337,2.988-2.078l3.938,2.758h19.166v-40.124c0-7.325-1.64-13.348-4.885-17.978l6.2,4.342v20.188c0,7.762,2.206,13.853,6.54,18.086.781.798,1.644,1.527,2.585,2.186,0,0,.001,0,.002.001l16.376,11.47h.002s.002.003.002.003c1.304.913,2.756,1.689,4.345,2.321,2.724,1.083,5.826,1.632,9.219,1.632,2.887,0,5.574-.253,7.988-.752,2.42-.504,4.712-1.269,6.815-2.273ZM354.771,80.139c-2.178,1.182-4.828,1.797-7.901,1.832-.166-.586-.308-1.197-.425-1.832h8.326ZM212.797,268.439h19.166s0-40.124,0-40.124c0-9.57-2.799-16.917-8.319-21.839-.69-.615-1.42-1.192-2.189-1.731,0,0-16.382-11.471-16.382-11.471-5.35-3.746-12.61-5.643-21.631-5.643-11.694,0-21.16,4.121-28.162,12.253-.327.38-.649.769-.965,1.166l-.669.841,16.381,11.471.653.447c-.488.128-.97.267-1.445.417-3.342,1.054-6.296,2.614-8.781,4.637-1.039.847-1.987,1.768-2.839,2.758-1.196,1.389-2.205,2.915-3.015,4.562-1.393,2.833-2.099,6.048-2.099,9.557,0,3.414.657,6.597,1.951,9.46,1.296,2.871,3.126,5.357,5.44,7.392.133.117.268.233.404.348.545.459,1.114.896,1.704,1.309,0,0,.001,0,.002.001l16.378,11.47h.002s.002.002.002.002c1.801,1.261,3.806,2.306,5.987,3.12,3.07,1.146,6.389,1.726,9.864,1.726,4.689,0,8.604-.945,11.636-2.81,1.046-.644,2.043-1.337,2.988-2.078l3.939,2.758ZM389.129,87.529l-10.542-7.379-.024-.012h6.349c.913,2.378,2.255,4.764,3.99,7.09.075.101.151.201.227.3ZM157.636,373.498c-.487.128-.968.267-1.441.416-3.342,1.054-6.296,2.614-8.781,4.637-.028.023-.057.046-.085.07v-12.332s9.658,6.765,9.658,6.765l.65.445ZM423.131,80.429c-.05.032-.101.065-.153.097-1.559.966-3.699,1.493-6.368,1.57l-14.683-10.277-6.281,2.684c-.009-3.999-.495-7.812-1.449-11.369.495.406,1.006.793,1.532,1.161l16.386,11.469c1.334.934,2.766,1.745,4.278,2.424,2.224,1.001,4.418,1.739,6.519,2.194l.22.048ZM459.898,55.764l-.193-.445c-.099-.229-.201-.456-.305-.68l.498.349v.776ZM513.78,107.853l.789-.377-5.597-17.395-13.253-9.275v-22.359h15.969s0-16.905,0-16.905l-15.969-11.175v-8.787s-16.388-11.468-16.388-11.468h-19.432v19.961h-11.444v12.789l-13.398-9.376-.005-.003c-.938-.657-1.933-1.248-2.982-1.774-4.999-2.498-10.746-3.765-17.081-3.765-3.803,0-7.41.483-10.722,1.437-3.335.959-6.282,2.353-8.759,4.143-1.358.981-2.568,2.087-3.621,3.31-.888,1.031-1.664,2.145-2.324,3.336-1.452,2.621-2.188,5.65-2.188,9.002,0,.265.005.528.015.788-.126-.146-.254-.291-.383-.434-1.425-1.585-3.034-3.006-4.815-4.253,0,0-.005-.004-.005-.004h-.001s-16.379-11.464-16.379-11.464l-.005-.004c-1.763-1.234-3.693-2.297-5.78-3.183-4.188-1.774-9.02-2.674-14.363-2.674-5.087,0-9.815.97-14.052,2.883-4.223,1.907-7.931,4.51-11.023,7.738-.417.435-.821.88-1.214,1.337-1.899,2.205-3.518,4.656-4.838,7.325l-10.057-7.04h-21.809v-9.688h42.451s0-19.034,0-19.034l-16.384-11.467h-62.415v35.39l-7.594-5.316h-21.895s-10.178,25.818-10.178,25.818l-5.611-14.35-16.382-11.468h-22.024s9.393,22.021,9.393,22.021c-.644-.897-1.332-1.754-2.065-2.569-1.425-1.585-3.034-3.006-4.815-4.253h-.002s-16.379-11.468-16.379-11.468h-.002c-1.763-1.236-3.695-2.3-5.783-3.186-4.188-1.774-9.02-2.674-14.363-2.674-5.087,0-9.815.97-14.052,2.883-4.223,1.907-7.931,4.51-11.023,7.738-.417.435-.821.88-1.214,1.337-.137.159-.272.319-.406.481-2.302-5.932-5.661-11.108-9.984-15.386-1.695-1.677-3.539-3.213-5.523-4.602l-.002-.002-16.377-11.466-.002-.002c-3.091-2.164-6.521-3.971-10.257-5.401C53.653,1.186,46.683,0,39.059,0H5.855s0,97.28,0,97.28l16.378,11.469h33.204c7.63,0,14.6-1.187,20.718-3.526,6.134-2.345,11.443-5.687,15.779-9.935,3.18-3.114,5.839-6.725,7.939-10.779,1.171,1.71,2.49,3.3,3.949,4.759,1.376,1.377,2.869,2.629,4.47,3.75,0,0,16.38,11.469,16.38,11.469,2.1,1.47,4.385,2.715,6.836,3.722,4.316,1.771,9.077,2.669,14.153,2.669,7.521,0,13.993-1.71,19.238-5.083,5.213-3.354,9.421-7.814,12.506-13.256l.521-.92-16.381-11.469-.024-.012h16.812v-1c0-.467.038-.894.113-1.266l.02-.198c0-.391.04-.828.119-1.298l.014-1.763c0-3.221-.31-6.322-.923-9.266l13.62,31.933,16.382,11.469h18.486s20.151-46.798,20.151-46.798v35.328s16.383,11.469,16.383,11.469h19.965v-38.059s28.648,0,28.648,0c.444,2.55,1.139,4.981,2.08,7.273,1.773,4.32,4.287,8.124,7.47,11.306,1.376,1.377,2.869,2.629,4.47,3.749.001,0,.003.002.004.003s.003.002.004.003c.017.012.034.024.051.036l16.325,11.428.004.003c2.099,1.469,4.383,2.713,6.833,3.719,4.316,1.771,9.077,2.669,14.153,2.669,7.521,0,13.993-1.71,19.238-5.083,5.155-3.316,9.326-7.714,12.401-13.073.316.243.638.481.967.713.044.032.089.063.134.095.001,0,.002.002.003.002l16.248,11.373.134.094.004.003c2.483,1.738,5.438,3.161,8.786,4.233,3.41,1.091,7.34,1.644,11.682,1.644,4.254,0,8.189-.6,11.698-1.782,3.509-1.184,6.569-2.832,9.096-4.898,2.536-2.076,4.525-4.487,5.91-7.168,1.398-2.702,2.108-5.588,2.108-8.577,0-5.025-1.723-9.44-5.123-13.122-.973-1.051-2.095-2.022-3.365-2.911l-16.387-11.469c-2.706-1.894-6.079-3.414-10.085-4.542,1.462-.592,3.121-.891,4.949-.891.463,0,.928.024,1.394.071l10.757,7.528,16.639-6.773v18.837c0,7.762,2.206,13.853,6.54,18.086.706.721,1.48,1.387,2.318,1.996.088.064.177.127.266.19.001,0,.002.002.003.002l16.384,11.467.003.002c1.303.912,2.756,1.688,4.344,2.321,2.724,1.083,5.826,1.632,9.219,1.632,2.887,0,5.574-.253,7.988-.752,2.42-.504,4.712-1.269,6.815-2.273ZM368.15,407.723l-13.129-9.195-17.829-7.726-.418.861c-.729,1.501-1.589,2.827-2.573,3.97-.933,1.084-1.978,2.002-3.127,2.748-2.041,1.326-4.519,2.084-7.38,2.26-.557-1.862-.839-3.912-.839-6.115,0-2.703.425-5.179,1.264-7.36.833-2.168,1.991-4.023,3.444-5.517,1.45-1.494,3.156-2.674,5.07-3.505,1.906-.828,3.966-1.248,6.122-1.248.223,0,.444.003.663.01l13.499,9.454,5.988-2.495c.09,4.857.984,9.386,2.662,13.473,1.606,3.912,3.818,7.4,6.584,10.385ZM402.932,399.519c-2.176,1.178-4.822,1.791-7.89,1.826-.166-.584-.307-1.193-.423-1.826h8.313ZM430.119,425.176c5.212-3.352,9.42-7.812,12.506-13.256l.521-.92-16.387-11.475-.013-.006h16.806v-1c0-.467.038-.894.113-1.266l.02-.198c0-.391.04-.828.119-1.298l.014-1.762c0-4.961-.734-9.636-2.182-13.896-1.458-4.278-3.63-8.044-6.458-11.192-1.424-1.585-3.033-3.005-4.814-4.252,0,0-16.386-11.474-16.386-11.474-1.764-1.235-3.697-2.3-5.786-3.186-4.187-1.775-9.02-2.675-14.363-2.675-5.087,0-9.815.97-14.052,2.884-4.225,1.908-7.933,4.512-11.023,7.738-.416.434-.82.879-1.212,1.335-2.027,2.354-3.735,4.987-5.101,7.865-1.023-.923-2.116-1.791-3.277-2.604h-.002s-16.383-11.474-16.383-11.474h-.002c-.183-.13-.369-.257-.555-.383-5.291-3.557-11.88-5.36-19.587-5.36-5.166,0-9.972.898-14.285,2.67-4.317,1.771-8.099,4.262-11.24,7.404-.562.562-1.104,1.146-1.624,1.75-2.349,2.729-4.266,5.878-5.713,9.393-.403-.6-.83-1.175-1.279-1.724-1.157-1.414-2.502-2.658-4.022-3.723h-.002s-16.382-11.474-16.382-11.474h-.002c-1.225-.859-2.563-1.6-4.008-2.22-3.218-1.378-6.978-2.077-11.172-2.077-4.583,0-8.73,1.004-12.326,2.986-1.21.668-2.341,1.42-3.39,2.255l-4.442-3.111h-18.368v21.082c-1.071-1.619-2.331-3.075-3.777-4.364-.689-.614-1.418-1.191-2.186-1.729l-.003-.002s-16.379-11.472-16.379-11.472l-.003-.002c-5.35-3.746-12.61-5.643-21.631-5.643-9.067,0-16.795,2.477-23.073,7.381v-23.853s-16.381-11.474-16.381-11.474h-19.433s0,51.337,0,51.337l-11.926-8.354h-48.489s0,17.304,0,17.304l16.379,11.475h7.348c-.34.363-.691.706-1.051,1.031-2.383,2.214-5.306,4.053-8.687,5.466-3.366,1.406-7.557,2.118-12.457,2.118-3.237,0-6.357-.432-9.311-1.288-1.267-1.785-2.359-3.743-3.266-5.859-1.668-3.892-2.514-8.303-2.514-13.113,0-4.808.846-9.219,2.514-13.113,1.669-3.893,3.944-7.255,6.763-9.989,2.822-2.735,6.16-4.88,9.92-6.376,3.772-1.499,7.811-2.258,12.007-2.258,4.392,0,8.29.612,11.616,1.822l12.443,8.717,13.797-13.501-.66-.714c-2.254-2.437-4.754-4.618-7.482-6.529l-.007-.005-16.372-11.469-.007-.005c-2.623-1.836-5.455-3.423-8.48-4.748-6.177-2.705-13.274-4.076-21.094-4.076-7.015,0-13.723,1.278-19.938,3.8-6.213,2.522-11.695,6.085-16.293,10.592-.982.963-1.924,1.968-2.823,3.013-3.308,3.842-6.049,8.223-8.172,13.069-2.705,6.176-4.076,13.004-4.076,20.296,0,7.292,1.372,14.121,4.076,20.295,2.701,6.167,6.4,11.578,10.995,16.082,1.486,1.458,3.065,2.816,4.73,4.073.457.345.921.682,1.391,1.011.004.003.008.006.012.008l16.355,11.459.012.008.012.008c3.113,2.18,6.51,4.02,10.16,5.5,6.216,2.521,12.924,3.799,19.938,3.799,7.723,0,14.703-1.279,20.746-3.803,6.046-2.525,11.31-6.142,15.648-10.752,2.472-2.637,4.559-5.517,6.243-8.608v9.557s16.38,11.476,16.38,11.476h19.433v-15.442c.522.436,1.065.852,1.628,1.246.002.001.003.002.005.003l16.372,11.469.005.003.005.003c1.801,1.261,3.806,2.306,5.987,3.12,3.07,1.146,6.389,1.726,9.864,1.726,4.689,0,8.604-.945,11.636-2.81,1.046-.644,2.044-1.338,2.988-2.078l3.938,2.759h19.166v-8.294s11.84,8.294,11.84,8.294h19.433s0-32.938,0-32.938c0-2.557.323-4.995.96-7.246.629-2.225,1.561-4.175,2.768-5.797,1.193-1.606,2.655-2.901,4.344-3.849.224-.126.454-.243.69-.352.001.104.002.209.002.314v38.394s16.383,11.476,16.383,11.476h19.433s0-22.117,0-22.117c.731.916,1.509,1.792,2.33,2.626,1.382,1.403,2.889,2.676,4.512,3.813.001,0,.002.002.004.003l16.377,11.47.004.003.004.003c2.062,1.444,4.311,2.668,6.729,3.66,4.312,1.772,9.119,2.67,14.286,2.67,7.797,0,14.412-1.828,19.663-5.432,5.213-3.582,9.328-8.249,12.232-13.872l.205-.397c.765.645,1.559,1.256,2.382,1.832,0,0,.002.001.003.002l16.38,11.472.003.002.003.002c2.1,1.47,4.386,2.715,6.838,3.721,4.313,1.772,9.074,2.67,14.153,2.67,7.521,0,13.993-1.71,19.238-5.083Z"/>
      <g>
        <path d="M6.855,1h32.204c7.54,0,14.326,1.154,20.36,3.46,6.032,2.308,11.178,5.568,15.436,9.781,4.258,4.214,7.519,9.248,9.781,15.104,2.263,5.855,3.394,12.288,3.394,19.295,0,7.099-1.131,13.574-3.394,19.429-2.262,5.855-5.522,10.868-9.781,15.037-4.258,4.171-9.404,7.409-15.436,9.715-6.034,2.308-12.821,3.46-20.36,3.46H6.855V1ZM38.26,79.247c5.233,0,9.847-.732,13.839-2.196s7.319-3.526,9.98-6.188c2.662-2.661,4.658-5.876,5.988-9.647,1.331-3.771,1.996-7.962,1.996-12.576s-.665-8.803-1.996-12.575c-1.331-3.77-3.327-6.986-5.988-9.647-2.661-2.661-5.988-4.724-9.98-6.188s-8.606-2.196-13.839-2.196h-13.44v61.214h13.44Z" fill="#fff" stroke="#000" stroke-miterlimit="10" stroke-width="2"/>
        <path d="M160.155,80.577c-3.017,5.323-7.076,9.627-12.176,12.908-5.103,3.281-11.334,4.924-18.697,4.924-4.969,0-9.56-.865-13.773-2.595-4.214-1.73-7.874-4.146-10.979-7.253-3.106-3.104-5.522-6.764-7.252-10.979-1.73-4.212-2.595-8.849-2.595-13.905,0-4.701.842-9.159,2.528-13.374,1.684-4.213,4.036-7.896,7.053-11.045,3.015-3.148,6.587-5.656,10.712-7.519,4.125-1.863,8.67-2.795,13.64-2.795,5.233,0,9.891.865,13.973,2.595,4.079,1.73,7.496,4.126,10.247,7.187,2.749,3.061,4.834,6.676,6.254,10.845,1.418,4.171,2.129,8.695,2.129,13.573v1.598c-.089.532-.133,1.021-.133,1.464-.09.444-.133.931-.133,1.464h-49.104c.353,2.661,1.085,4.946,2.195,6.853,1.108,1.909,2.483,3.506,4.125,4.791,1.641,1.287,3.437,2.219,5.389,2.794,1.951.578,3.947.865,5.988.865,3.992,0,7.296-.908,9.914-2.728,2.616-1.817,4.678-4.103,6.188-6.854l14.505,7.186ZM144.319,55.294c-.089-1.152-.465-2.439-1.131-3.859-.666-1.418-1.643-2.749-2.928-3.992-1.287-1.241-2.884-2.262-4.791-3.061-1.909-.799-4.192-1.197-6.853-1.197-3.726,0-7.009,1.064-9.848,3.193-2.84,2.129-4.836,5.103-5.988,8.916h31.538Z" fill="#fff" stroke="#000" stroke-miterlimit="10" stroke-width="2"/>
        <path d="M164.146,31.074h19.828l16.235,41.519h.932l16.368-41.519h19.694l-28.078,65.206h-17.167l-27.812-65.206Z" fill="#fff" stroke="#000" stroke-miterlimit="10" stroke-width="2"/>
        <path d="M247.317,1h60.415v17.033h-42.45v23.155h38.192v17.033h-38.192v38.059h-17.965V1Z" fill="#fff" stroke="#000" stroke-miterlimit="10" stroke-width="2"/>
        <path d="M377.196,80.577c-3.017,5.323-7.076,9.627-12.176,12.908-5.103,3.281-11.334,4.924-18.697,4.924-4.969,0-9.56-.865-13.773-2.595-4.214-1.73-7.874-4.146-10.979-7.253-3.106-3.104-5.522-6.764-7.252-10.979-1.73-4.212-2.595-8.849-2.595-13.905,0-4.701.842-9.159,2.528-13.374,1.684-4.213,4.036-7.896,7.053-11.045,3.015-3.148,6.587-5.656,10.712-7.519,4.125-1.863,8.67-2.795,13.64-2.795,5.233,0,9.891.865,13.973,2.595,4.079,1.73,7.496,4.126,10.247,7.187,2.749,3.061,4.834,6.676,6.254,10.845,1.418,4.171,2.129,8.695,2.129,13.573v1.598c-.089.532-.133,1.021-.133,1.464-.09.444-.133.931-.133,1.464h-49.104c.353,2.661,1.085,4.946,2.195,6.853,1.108,1.909,2.483,3.506,4.125,4.791,1.641,1.287,3.437,2.219,5.389,2.794,1.951.578,3.947.865,5.988.865,3.992,0,7.296-.908,9.914-2.728,2.616-1.817,4.678-4.103,6.188-6.854l14.505,7.186ZM361.36,55.294c-.089-1.152-.465-2.439-1.131-3.859-.666-1.418-1.643-2.749-2.928-3.992-1.287-1.241-2.884-2.262-4.791-3.061-1.909-.799-4.192-1.197-6.853-1.197-3.726,0-7.009,1.064-9.848,3.193-2.84,2.129-4.836,5.103-5.988,8.916h31.538Z" fill="#fff" stroke="#000" stroke-miterlimit="10" stroke-width="2"/>
        <path d="M415.92,98.409c-4.258,0-8.051-.532-11.377-1.597-3.327-1.064-6.211-2.462-8.65-4.192-2.441-1.729-4.504-3.726-6.188-5.988-1.686-2.262-2.973-4.545-3.859-6.853l15.569-6.654c1.507,3.373,3.526,5.879,6.055,7.519,2.528,1.644,5.344,2.462,8.45,2.462,3.194,0,5.722-.575,7.585-1.729,1.863-1.152,2.795-2.528,2.795-4.125,0-1.773-.778-3.215-2.329-4.325-1.553-1.108-4.237-2.106-8.051-2.994l-9.182-1.996c-2.042-.442-4.148-1.151-6.321-2.129-2.175-.976-4.148-2.217-5.922-3.727-1.775-1.507-3.239-3.326-4.391-5.456-1.154-2.129-1.73-4.611-1.73-7.451,0-3.194.686-6.032,2.062-8.518,1.375-2.482,3.26-4.591,5.656-6.32,2.395-1.73,5.21-3.061,8.45-3.992,3.237-.932,6.72-1.397,10.446-1.397,6.209,0,11.754,1.221,16.634,3.659,4.878,2.441,8.471,6.321,10.779,11.645l-15.037,6.121c-1.244-2.572-3.061-4.436-5.456-5.589-2.396-1.152-4.791-1.73-7.186-1.73-2.484,0-4.657.512-6.521,1.53-1.863,1.021-2.794,2.329-2.794,3.926,0,1.51.775,2.707,2.329,3.593,1.551.889,3.66,1.687,6.321,2.396l9.98,2.396c6.653,1.597,11.598,4.148,14.837,7.651,3.237,3.506,4.857,7.652,4.857,12.442,0,2.841-.665,5.546-1.996,8.117-1.331,2.574-3.216,4.857-5.655,6.854-2.441,1.996-5.369,3.572-8.783,4.725-3.417,1.151-7.209,1.729-11.378,1.729Z" fill="#fff" stroke="#000" stroke-miterlimit="10" stroke-width="2"/>
        <path d="M460.898,45.979h-11.444v-14.904h11.444V11.113h17.432v19.961h15.969v14.904h-15.969v26.056c0,1.555.154,2.996.466,4.32.31,1.326.909,2.445,1.796,3.36,1.242,1.464,3.015,2.193,5.323,2.193,1.507,0,2.705-.154,3.593-.466.886-.31,1.73-.731,2.528-1.264l4.924,15.303c-2.042.976-4.238,1.707-6.587,2.196-2.352.486-4.946.731-7.785.731-3.283,0-6.233-.521-8.849-1.562-2.618-1.042-4.813-2.468-6.587-4.279-4.171-4.075-6.254-9.87-6.254-17.387v-29.203Z" fill="#fff" stroke="#000" stroke-miterlimit="10" stroke-width="2"/>
        <path d="M44.914,249.047h-1.065c-2.042,2.485-4.503,4.614-7.385,6.388-2.884,1.773-6.587,2.661-11.112,2.661-3.373,0-6.543-.555-9.515-1.663-2.973-1.108-5.568-2.639-7.785-4.591-2.219-1.95-3.948-4.302-5.19-7.053-1.243-2.749-1.863-5.767-1.863-9.049,0-3.371.666-6.409,1.996-9.116,1.331-2.705,3.194-5.033,5.589-6.986,2.396-1.95,5.211-3.437,8.45-4.458,3.237-1.019,6.764-1.53,10.579-1.53,4.258,0,7.762.333,10.513.998,2.749.666,5.011,1.354,6.787,2.062v-1.996c0-3.459-1.376-6.32-4.125-8.583-2.751-2.262-6.167-3.393-10.247-3.393-6.034,0-11.134,2.528-15.303,7.585l-12.642-8.65c6.92-8.693,16.368-13.041,28.345-13.041,10.113,0,17.832,2.375,23.154,7.12,5.323,4.746,7.984,11.776,7.984,21.092v39.123h-17.166v-6.92ZM44.914,229.485c-2.042-.976-4.148-1.751-6.321-2.329-2.175-.575-4.547-.864-7.119-.864-4.171,0-7.386.91-9.648,2.728-2.262,1.819-3.393,4.059-3.393,6.721s1.085,4.79,3.26,6.387c2.173,1.598,4.678,2.396,7.519,2.396,2.306,0,4.435-.42,6.387-1.264,1.951-.843,3.614-1.951,4.99-3.327,1.375-1.374,2.439-2.972,3.194-4.791.753-1.817,1.131-3.703,1.131-5.655Z" fill="#fff" stroke="#000" stroke-miterlimit="10" stroke-width="2"/>
        <path d="M81.775,205.665h-11.444v-14.903h11.444v-19.961h17.432v19.961h15.969v14.903h-15.969v26.056c0,1.555.154,2.996.466,4.32.31,1.327.909,2.445,1.796,3.36,1.242,1.464,3.015,2.193,5.323,2.193,1.507,0,2.705-.153,3.593-.466.886-.31,1.73-.731,2.528-1.264l4.924,15.303c-2.042.976-4.238,1.707-6.587,2.196-2.352.486-4.946.731-7.785.731-3.283,0-6.233-.521-8.849-1.562-2.618-1.041-4.813-2.468-6.587-4.279-4.171-4.075-6.254-9.87-6.254-17.387v-29.203Z" fill="#fff" stroke="#000" stroke-miterlimit="10" stroke-width="2"/>
        <path d="M197.415,249.047h-1.065c-2.042,2.485-4.503,4.614-7.385,6.388-2.884,1.773-6.587,2.661-11.112,2.661-3.373,0-6.543-.555-9.515-1.663-2.973-1.108-5.568-2.639-7.785-4.591-2.219-1.95-3.948-4.302-5.19-7.053-1.243-2.749-1.863-5.767-1.863-9.049,0-3.371.666-6.409,1.996-9.116,1.331-2.705,3.194-5.033,5.589-6.986,2.396-1.95,5.211-3.437,8.45-4.458,3.237-1.019,6.764-1.53,10.579-1.53,4.258,0,7.762.333,10.513.998,2.749.666,5.011,1.354,6.787,2.062v-1.996c0-3.459-1.376-6.32-4.125-8.583-2.751-2.262-6.167-3.393-10.247-3.393-6.034,0-11.134,2.528-15.303,7.585l-12.642-8.65c6.92-8.693,16.368-13.041,28.345-13.041,10.113,0,17.832,2.375,23.154,7.12,5.323,4.746,7.984,11.776,7.984,21.092v39.123h-17.166v-6.92ZM197.415,229.485c-2.042-.976-4.148-1.751-6.321-2.329-2.175-.575-4.547-.864-7.119-.864-4.171,0-7.386.91-9.648,2.728-2.262,1.819-3.393,4.059-3.393,6.721s1.085,4.79,3.26,6.387c2.173,1.598,4.678,2.396,7.519,2.396,2.306,0,4.435-.42,6.387-1.264,1.951-.843,3.614-1.951,4.99-3.327,1.375-1.374,2.439-2.972,3.194-4.791.753-1.817,1.131-3.703,1.131-5.655Z" fill="#fff" stroke="#000" stroke-miterlimit="10" stroke-width="2"/>
        <path d="M52.1,363.356h46.708c.266,1.065.487,2.352.666,3.859.177,1.51.266,3.018.266,4.524,0,6.121-.932,11.89-2.794,17.3-1.863,5.412-4.791,10.246-8.783,14.505-4.258,4.524-9.361,8.03-15.304,10.513-5.944,2.482-12.731,3.726-20.36,3.726-6.92,0-13.44-1.243-19.562-3.726-6.122-2.482-11.444-5.942-15.969-10.38-4.524-4.435-8.118-9.691-10.779-15.769-2.662-6.076-3.992-12.709-3.992-19.895s1.331-13.817,3.992-19.895c2.661-6.075,6.254-11.332,10.779-15.77,4.524-4.435,9.847-7.895,15.969-10.379,6.121-2.483,12.642-3.727,19.562-3.727,7.718,0,14.615,1.331,20.693,3.992,6.075,2.661,11.288,6.344,15.636,11.045l-12.375,12.109c-3.106-3.28-6.566-5.788-10.38-7.519-3.815-1.729-8.383-2.595-13.707-2.595-4.348,0-8.473.778-12.375,2.329-3.905,1.553-7.319,3.749-10.247,6.587-2.928,2.841-5.256,6.277-6.986,10.313-1.73,4.038-2.595,8.539-2.595,13.507s.865,9.471,2.595,13.507c1.73,4.038,4.08,7.475,7.053,10.312,2.971,2.841,6.408,5.036,10.313,6.588,3.903,1.553,8.072,2.328,12.509,2.328,5.057,0,9.336-.731,12.842-2.195,3.503-1.464,6.498-3.348,8.982-5.656,1.773-1.597,3.304-3.613,4.591-6.055,1.285-2.438,2.283-5.167,2.994-8.184h-29.941v-15.304Z" fill="#fff" stroke="#000" stroke-miterlimit="10" stroke-width="2"/>
        <path d="M112.515,415.654v-95.28h17.433v95.28h-17.433Z" fill="#fff" stroke="#000" stroke-miterlimit="10" stroke-width="2"/>
        <path d="M184.374,408.734h-1.065c-2.042,2.485-4.503,4.614-7.385,6.388-2.884,1.773-6.587,2.661-11.112,2.661-3.373,0-6.543-.555-9.515-1.663-2.973-1.108-5.568-2.639-7.785-4.591-2.219-1.95-3.948-4.302-5.19-7.053-1.243-2.749-1.863-5.767-1.863-9.049,0-3.371.666-6.409,1.996-9.116,1.331-2.705,3.194-5.033,5.589-6.986,2.396-1.95,5.211-3.437,8.45-4.458,3.237-1.019,6.764-1.53,10.579-1.53,4.258,0,7.762.333,10.513.998,2.749.666,5.011,1.354,6.787,2.062v-1.996c0-3.459-1.376-6.32-4.125-8.583-2.751-2.262-6.167-3.393-10.247-3.393-6.034,0-11.134,2.528-15.303,7.585l-12.642-8.65c6.92-8.693,16.368-13.041,28.345-13.041,10.113,0,17.832,2.375,23.154,7.12,5.323,4.746,7.984,11.776,7.984,21.092v39.123h-17.166v-6.92ZM184.374,389.173c-2.042-.976-4.148-1.751-6.321-2.329-2.175-.575-4.547-.864-7.119-.864-4.171,0-7.386.91-9.648,2.728-2.262,1.819-3.393,4.059-3.393,6.721s1.085,4.79,3.26,6.387c2.173,1.598,4.678,2.396,7.519,2.396,2.306,0,4.435-.42,6.387-1.264,1.951-.843,3.614-1.951,4.99-3.327,1.375-1.374,2.439-2.972,3.194-4.791.753-1.817,1.131-3.703,1.131-5.655Z" fill="#fff" stroke="#000" stroke-miterlimit="10" stroke-width="2"/>
        <path d="M231.748,358.966h1.065c2.04-3.281,4.791-5.876,8.25-7.785,3.459-1.906,7.406-2.861,11.843-2.861,4.08,0,7.672.666,10.779,1.996,3.104,1.331,5.656,3.217,7.652,5.656,1.996,2.44,3.503,5.368,4.524,8.782,1.019,3.416,1.53,7.209,1.53,11.378v39.522h-17.433v-37.394c0-4.701-1.044-8.184-3.127-10.446-2.085-2.262-5.124-3.393-9.116-3.393-2.395,0-4.503.511-6.321,1.53-1.819,1.021-3.373,2.395-4.658,4.125-1.287,1.729-2.262,3.771-2.927,6.121-.666,2.352-.998,4.857-.998,7.519v31.938h-17.433v-65.205h16.368v8.517Z" fill="#fff" stroke="#000" stroke-miterlimit="10" stroke-width="2"/>
        <path d="M353.642,399.021c-2.84,5.501-6.81,10.003-11.91,13.507-5.103,3.503-11.467,5.256-19.096,5.256-5.057,0-9.693-.864-13.906-2.595-4.215-1.729-7.852-4.146-10.912-7.252-3.061-3.104-5.456-6.765-7.186-10.979-1.73-4.213-2.595-8.85-2.595-13.906s.865-9.715,2.595-13.973c1.73-4.259,4.125-7.918,7.186-10.979s6.697-5.456,10.912-7.186c4.212-1.73,8.849-2.596,13.906-2.596,7.54,0,13.883,1.73,19.029,5.19,5.145,3.46,8.916,7.94,11.312,13.44l-15.969,6.653c-1.51-3.015-3.439-5.3-5.789-6.854-2.352-1.551-5.302-2.328-8.85-2.328-2.308,0-4.48.444-6.521,1.33-2.042.888-3.838,2.129-5.389,3.727-1.553,1.597-2.774,3.549-3.66,5.854-.888,2.309-1.331,4.88-1.331,7.719s.443,5.412,1.331,7.718c.886,2.309,2.106,4.259,3.66,5.855,1.551,1.597,3.347,2.84,5.389,3.726,2.04.889,4.213,1.331,6.521,1.331,3.637,0,6.72-.819,9.249-2.462,2.528-1.641,4.545-4.013,6.055-7.119l15.969,6.92Z" fill="#fff" stroke="#000" stroke-miterlimit="10" stroke-width="2"/>
        <path d="M425.368,399.952c-3.017,5.322-7.076,9.627-12.176,12.907-5.103,3.281-11.334,4.924-18.697,4.924-4.969,0-9.56-.864-13.773-2.595-4.214-1.729-7.874-4.146-10.979-7.252-3.106-3.104-5.522-6.765-7.252-10.979-1.73-4.213-2.595-8.85-2.595-13.906,0-4.701.842-9.159,2.528-13.374,1.684-4.213,4.036-7.895,7.053-11.045,3.015-3.148,6.587-5.655,10.712-7.519,4.125-1.863,8.67-2.795,13.64-2.795,5.233,0,9.891.865,13.973,2.596,4.079,1.729,7.496,4.125,10.247,7.186,2.749,3.061,4.834,6.677,6.254,10.846,1.418,4.171,2.129,8.695,2.129,13.573v1.597c-.089.532-.133,1.021-.133,1.464-.09.444-.133.932-.133,1.464h-49.104c.353,2.661,1.085,4.946,2.195,6.853,1.108,1.909,2.483,3.506,4.125,4.791,1.641,1.287,3.437,2.219,5.389,2.795,1.951.578,3.947.864,5.988.864,3.992,0,7.296-.908,9.914-2.728,2.616-1.817,4.678-4.103,6.188-6.854l14.505,7.187ZM409.532,374.668c-.089-1.152-.465-2.438-1.131-3.859-.666-1.418-1.643-2.748-2.928-3.992-1.287-1.241-2.884-2.262-4.791-3.061-1.909-.798-4.192-1.197-6.853-1.197-3.726,0-7.009,1.064-9.848,3.193-2.84,2.129-4.836,5.103-5.988,8.916h31.538Z" fill="#fff" stroke="#000" stroke-miterlimit="10" stroke-width="2"/>
      </g>
    </g>
    <g>
      <path d="M67.125,60.883c-1.07,3.032-2.606,5.717-4.577,8.006h0c-.376.437-.768.859-1.176,1.267-2.545,2.545-5.781,4.549-9.618,5.956-2.837,1.041-6.04,1.704-9.557,1.984V30.501h12.441c3.734,0,7.172.386,10.264,1.152.882,1.468,1.625,3.052,2.222,4.744,1.287,3.647,1.939,7.766,1.939,12.243,0,4.479-.652,8.599-1.939,12.244ZM137.73,80.139c-2.179,1.183-4.83,1.798-7.905,1.832-.166-.586-.308-1.197-.425-1.832h8.33ZM134.649,267.543l.789-.377-5.597-17.395-13.253-9.282v-22.352s15.969,0,15.969,0v-16.904l-15.969-11.183v-8.778s-16.38-11.471-16.38-11.471h-19.432v19.961s-11.444,0-11.444,0v15.255c-.125-.091-.25-.181-.377-.27h-.002s-16.377-11.471-16.377-11.471h-.002c-5.35-3.748-12.61-5.644-21.631-5.644-11.694,0-21.16,4.121-28.162,12.253-.327.38-.649.769-.965,1.166l-.669.841,16.378,11.471.654.447c-.488.128-.968.267-1.443.416-3.342,1.054-6.296,2.614-8.781,4.637-1.039.847-1.987,1.768-2.839,2.758-1.196,1.389-2.205,2.915-3.015,4.562C.706,229.016,0,232.231,0,235.74c0,3.414.657,6.597,1.951,9.46,1.296,2.871,3.126,5.357,5.44,7.392.133.117.268.233.404.348.545.459,1.113.895,1.702,1.308.001,0,.002.002.004.002l16.371,11.467.004.002.004.002c1.801,1.261,3.806,2.306,5.987,3.12,3.07,1.146,6.389,1.726,9.864,1.726,4.689,0,8.604-.945,11.636-2.81,1.046-.644,2.044-1.337,2.988-2.078l3.938,2.758h19.166v-40.124c0-7.325-1.64-13.348-4.885-17.978l6.2,4.342v20.188c0,7.762,2.206,13.853,6.54,18.086.781.798,1.644,1.527,2.585,2.186,0,0,.001,0,.002.001l16.376,11.47h.002s.002.003.002.003c1.304.913,2.756,1.689,4.345,2.321,2.724,1.083,5.826,1.632,9.219,1.632,2.887,0,5.574-.253,7.988-.752,2.42-.504,4.712-1.269,6.815-2.273ZM354.771,80.139c-2.178,1.182-4.828,1.797-7.901,1.832-.166-.586-.308-1.197-.425-1.832h8.326ZM212.797,268.439h19.166s0-40.124,0-40.124c0-9.57-2.799-16.917-8.319-21.839-.69-.615-1.42-1.192-2.189-1.731,0,0-16.382-11.471-16.382-11.471-5.35-3.746-12.61-5.643-21.631-5.643-11.694,0-21.16,4.121-28.162,12.253-.327.38-.649.769-.965,1.166l-.669.841,16.381,11.471.653.447c-.488.128-.97.267-1.445.417-3.342,1.054-6.296,2.614-8.781,4.637-1.039.847-1.987,1.768-2.839,2.758-1.196,1.389-2.205,2.915-3.015,4.562-1.393,2.833-2.099,6.048-2.099,9.557,0,3.414.657,6.597,1.951,9.46,1.296,2.871,3.126,5.357,5.44,7.392.133.117.268.233.404.348.545.459,1.114.896,1.704,1.309,0,0,.001,0,.002.001l16.378,11.47h.002s.002.002.002.002c1.801,1.261,3.806,2.306,5.987,3.12,3.07,1.146,6.389,1.726,9.864,1.726,4.689,0,8.604-.945,11.636-2.81,1.046-.644,2.043-1.337,2.988-2.078l3.939,2.758ZM389.129,87.529l-10.542-7.379-.024-.012h6.349c.913,2.378,2.255,4.764,3.99,7.09.075.101.151.201.227.3ZM157.636,373.498c-.487.128-.968.267-1.441.416-3.342,1.054-6.296,2.614-8.781,4.637-.028.023-.057.046-.085.07v-12.332s9.658,6.765,9.658,6.765l.65.445ZM423.131,80.429c-.05.032-.101.065-.153.097-1.559.966-3.699,1.493-6.368,1.57l-14.683-10.277-6.281,2.684c-.009-3.999-.495-7.812-1.449-11.369.495.406,1.006.793,1.532,1.161l16.386,11.469c1.334.934,2.766,1.745,4.278,2.424,2.224,1.001,4.418,1.739,6.519,2.194l.22.048ZM459.898,55.764l-.193-.445c-.099-.229-.201-.456-.305-.68l.498.349v.776ZM513.78,107.853l.789-.377-5.597-17.395-13.253-9.275v-22.359h15.969s0-16.905,0-16.905l-15.969-11.175v-8.787s-16.388-11.468-16.388-11.468h-19.432v19.961h-11.444v12.789l-13.398-9.376-.005-.003c-.938-.657-1.933-1.248-2.982-1.774-4.999-2.498-10.746-3.765-17.081-3.765-3.803,0-7.41.483-10.722,1.437-3.335.959-6.282,2.353-8.759,4.143-1.358.981-2.568,2.087-3.621,3.31-.888,1.031-1.664,2.145-2.324,3.336-1.452,2.621-2.188,5.65-2.188,9.002,0,.265.005.528.015.788-.126-.146-.254-.291-.383-.434-1.425-1.585-3.034-3.006-4.815-4.253,0,0-.005-.004-.005-.004h-.001s-16.379-11.464-16.379-11.464l-.005-.004c-1.763-1.234-3.693-2.297-5.78-3.183-4.188-1.774-9.02-2.674-14.363-2.674-5.087,0-9.815.97-14.052,2.883-4.223,1.907-7.931,4.51-11.023,7.738-.417.435-.821.88-1.214,1.337-1.899,2.205-3.518,4.656-4.838,7.325l-10.057-7.04h-21.809v-9.688h42.451s0-19.034,0-19.034l-16.384-11.467h-62.415v35.39l-7.594-5.316h-21.895s-10.178,25.818-10.178,25.818l-5.611-14.35-16.382-11.468h-22.024s9.393,22.021,9.393,22.021c-.644-.897-1.332-1.754-2.065-2.569-1.425-1.585-3.034-3.006-4.815-4.253h-.002s-16.379-11.468-16.379-11.468h-.002c-1.763-1.236-3.695-2.3-5.783-3.186-4.188-1.774-9.02-2.674-14.363-2.674-5.087,0-9.815.97-14.052,2.883-4.223,1.907-7.931,4.51-11.023,7.738-.417.435-.821.88-1.214,1.337-.137.159-.272.319-.406.481-2.302-5.932-5.661-11.108-9.984-15.386-1.695-1.677-3.539-3.213-5.523-4.602l-.002-.002-16.377-11.466-.002-.002c-3.091-2.164-6.521-3.971-10.257-5.401C53.653,1.186,46.683,0,39.059,0H5.855s0,97.28,0,97.28l16.378,11.469h33.204c7.63,0,14.6-1.187,20.718-3.526,6.134-2.345,11.443-5.687,15.779-9.935,3.18-3.114,5.839-6.725,7.939-10.779,1.171,1.71,2.49,3.3,3.949,4.759,1.376,1.377,2.869,2.629,4.47,3.75,0,0,16.38,11.469,16.38,11.469,2.1,1.47,4.385,2.715,6.836,3.722,4.316,1.771,9.077,2.669,14.153,2.669,7.521,0,13.993-1.71,19.238-5.083,5.213-3.354,9.421-7.814,12.506-13.256l.521-.92-16.381-11.469-.024-.012h16.812v-1c0-.467.038-.894.113-1.266l.02-.198c0-.391.04-.828.119-1.298l.014-1.763c0-3.221-.31-6.322-.923-9.266l13.62,31.933,16.382,11.469h18.486s20.151-46.798,20.151-46.798v35.328s16.383,11.469,16.383,11.469h19.965v-38.059s28.648,0,28.648,0c.444,2.55,1.139,4.981,2.08,7.273,1.773,4.32,4.287,8.124,7.47,11.306,1.376,1.377,2.869,2.629,4.47,3.749.001,0,.003.002.004.003s.003.002.004.003c.017.012.034.024.051.036l16.325,11.428.004.003c2.099,1.469,4.383,2.713,6.833,3.719,4.316,1.771,9.077,2.669,14.153,2.669,7.521,0,13.993-1.71,19.238-5.083,5.155-3.316,9.326-7.714,12.401-13.073.316.243.638.481.967.713.044.032.089.063.134.095.001,0,.002.002.003.002l16.248,11.373.134.094.004.003c2.483,1.738,5.438,3.161,8.786,4.233,3.41,1.091,7.34,1.644,11.682,1.644,4.254,0,8.189-.6,11.698-1.782,3.509-1.184,6.569-2.832,9.096-4.898,2.536-2.076,4.525-4.487,5.91-7.168,1.398-2.702,2.108-5.588,2.108-8.577,0-5.025-1.723-9.44-5.123-13.122-.973-1.051-2.095-2.022-3.365-2.911l-16.387-11.469c-2.706-1.894-6.079-3.414-10.085-4.542,1.462-.592,3.121-.891,4.949-.891.463,0,.928.024,1.394.071l10.757,7.528,16.639-6.773v18.837c0,7.762,2.206,13.853,6.54,18.086.706.721,1.48,1.387,2.318,1.996.088.064.177.127.266.19.001,0,.002.002.003.002l16.384,11.467.003.002c1.303.912,2.756,1.688,4.344,2.321,2.724,1.083,5.826,1.632,9.219,1.632,2.887,0,5.574-.253,7.988-.752,2.42-.504,4.712-1.269,6.815-2.273ZM368.15,407.723l-13.129-9.195-17.829-7.726-.418.861c-.729,1.501-1.589,2.827-2.573,3.97-.933,1.084-1.978,2.002-3.127,2.748-2.041,1.326-4.519,2.084-7.38,2.26-.557-1.862-.839-3.912-.839-6.115,0-2.703.425-5.179,1.264-7.36.833-2.168,1.991-4.023,3.444-5.517,1.45-1.494,3.156-2.674,5.07-3.505,1.906-.828,3.966-1.248,6.122-1.248.223,0,.444.003.663.01l13.499,9.454,5.988-2.495c.09,4.857.984,9.386,2.662,13.473,1.606,3.912,3.818,7.4,6.584,10.385ZM402.932,399.519c-2.176,1.178-4.822,1.791-7.89,1.826-.166-.584-.307-1.193-.423-1.826h8.313ZM430.119,425.176c5.212-3.352,9.42-7.812,12.506-13.256l.521-.92-16.387-11.475-.013-.006h16.806v-1c0-.467.038-.894.113-1.266l.02-.198c0-.391.04-.828.119-1.298l.014-1.762c0-4.961-.734-9.636-2.182-13.896-1.458-4.278-3.63-8.044-6.458-11.192-1.424-1.585-3.033-3.005-4.814-4.252,0,0-16.386-11.474-16.386-11.474-1.764-1.235-3.697-2.3-5.786-3.186-4.187-1.775-9.02-2.675-14.363-2.675-5.087,0-9.815.97-14.052,2.884-4.225,1.908-7.933,4.512-11.023,7.738-.416.434-.82.879-1.212,1.335-2.027,2.354-3.735,4.987-5.101,7.865-1.023-.923-2.116-1.791-3.277-2.604h-.002s-16.383-11.474-16.383-11.474h-.002c-.183-.13-.369-.257-.555-.383-5.291-3.557-11.88-5.36-19.587-5.36-5.166,0-9.972.898-14.285,2.67-4.317,1.771-8.099,4.262-11.24,7.404-.562.562-1.104,1.146-1.624,1.75-2.349,2.729-4.266,5.878-5.713,9.393-.403-.6-.83-1.175-1.279-1.724-1.157-1.414-2.502-2.658-4.022-3.723h-.002s-16.382-11.474-16.382-11.474h-.002c-1.225-.859-2.563-1.6-4.008-2.22-3.218-1.378-6.978-2.077-11.172-2.077-4.583,0-8.73,1.004-12.326,2.986-1.21.668-2.341,1.42-3.39,2.255l-4.442-3.111h-18.368v21.082c-1.071-1.619-2.331-3.075-3.777-4.364-.689-.614-1.418-1.191-2.186-1.729l-.003-.002s-16.379-11.472-16.379-11.472l-.003-.002c-5.35-3.746-12.61-5.643-21.631-5.643-9.067,0-16.795,2.477-23.073,7.381v-23.853s-16.381-11.474-16.381-11.474h-19.433s0,51.337,0,51.337l-11.926-8.354h-48.489s0,17.304,0,17.304l16.379,11.475h7.348c-.34.363-.691.706-1.051,1.031-2.383,2.214-5.306,4.053-8.687,5.466-3.366,1.406-7.557,2.118-12.457,2.118-3.237,0-6.357-.432-9.311-1.288-1.267-1.785-2.359-3.743-3.266-5.859-1.668-3.892-2.514-8.303-2.514-13.113,0-4.808.846-9.219,2.514-13.113,1.669-3.893,3.944-7.255,6.763-9.989,2.822-2.735,6.16-4.88,9.92-6.376,3.772-1.499,7.811-2.258,12.007-2.258,4.392,0,8.29.612,11.616,1.822l12.443,8.717,13.797-13.501-.66-.714c-2.254-2.437-4.754-4.618-7.482-6.529l-.007-.005-16.372-11.469-.007-.005c-2.623-1.836-5.455-3.423-8.48-4.748-6.177-2.705-13.274-4.076-21.094-4.076-7.015,0-13.723,1.278-19.938,3.8-6.213,2.522-11.695,6.085-16.293,10.592-.982.963-1.924,1.968-2.823,3.013-3.308,3.842-6.049,8.223-8.172,13.069-2.705,6.176-4.076,13.004-4.076,20.296,0,7.292,1.372,14.121,4.076,20.295,2.701,6.167,6.4,11.578,10.995,16.082,1.486,1.458,3.065,2.816,4.73,4.073.457.345.921.682,1.391,1.011.004.003.008.006.012.008l16.355,11.459.012.008.012.008c3.113,2.18,6.51,4.02,10.16,5.5,6.216,2.521,12.924,3.799,19.938,3.799,7.723,0,14.703-1.279,20.746-3.803,6.046-2.525,11.31-6.142,15.648-10.752,2.472-2.637,4.559-5.517,6.243-8.608v9.557s16.38,11.476,16.38,11.476h19.433v-15.442c.522.436,1.065.852,1.628,1.246.002.001.003.002.005.003l16.372,11.469.005.003.005.003c1.801,1.261,3.806,2.306,5.987,3.12,3.07,1.146,6.389,1.726,9.864,1.726,4.689,0,8.604-.945,11.636-2.81,1.046-.644,2.044-1.338,2.988-2.078l3.938,2.759h19.166v-8.294s11.84,8.294,11.84,8.294h19.433s0-32.938,0-32.938c0-2.557.323-4.995.96-7.246.629-2.225,1.561-4.175,2.768-5.797,1.193-1.606,2.655-2.901,4.344-3.849.224-.126.454-.243.69-.352.001.104.002.209.002.314v38.394s16.383,11.476,16.383,11.476h19.433s0-22.117,0-22.117c.731.916,1.509,1.792,2.33,2.626,1.382,1.403,2.889,2.676,4.512,3.813.001,0,.002.002.004.003l16.377,11.47.004.003.004.003c2.062,1.444,4.311,2.668,6.729,3.66,4.312,1.772,9.119,2.67,14.286,2.67,7.797,0,14.412-1.828,19.663-5.432,5.213-3.582,9.328-8.249,12.232-13.872l.205-.397c.765.645,1.559,1.256,2.382,1.832,0,0,.002.001.003.002l16.38,11.472.003.002.003.002c2.1,1.47,4.386,2.715,6.838,3.721,4.313,1.772,9.074,2.67,14.153,2.67,7.521,0,13.993-1.71,19.238-5.083Z"/>
      <g>
        <path d="M6.855,1h32.204c7.54,0,14.326,1.154,20.36,3.46,6.032,2.308,11.178,5.568,15.436,9.781,4.258,4.214,7.519,9.248,9.781,15.104,2.263,5.855,3.394,12.288,3.394,19.295,0,7.099-1.131,13.574-3.394,19.429-2.262,5.855-5.522,10.868-9.781,15.037-4.258,4.171-9.404,7.409-15.436,9.715-6.034,2.308-12.821,3.46-20.36,3.46H6.855V1ZM38.26,79.247c5.233,0,9.847-.732,13.839-2.196s7.319-3.526,9.98-6.188c2.662-2.661,4.658-5.876,5.988-9.647,1.331-3.771,1.996-7.962,1.996-12.576s-.665-8.803-1.996-12.575c-1.331-3.77-3.327-6.986-5.988-9.647-2.661-2.661-5.988-4.724-9.98-6.188s-8.606-2.196-13.839-2.196h-13.44v61.214h13.44Z" fill="#fff" stroke="#000" stroke-miterlimit="10" stroke-width="2"/>
        <path d="M160.155,80.577c-3.017,5.323-7.076,9.627-12.176,12.908-5.103,3.281-11.334,4.924-18.697,4.924-4.969,0-9.56-.865-13.773-2.595-4.214-1.73-7.874-4.146-10.979-7.253-3.106-3.104-5.522-6.764-7.252-10.979-1.73-4.212-2.595-8.849-2.595-13.905,0-4.701.842-9.159,2.528-13.374,1.684-4.213,4.036-7.896,7.053-11.045,3.015-3.148,6.587-5.656,10.712-7.519,4.125-1.863,8.67-2.795,13.64-2.795,5.233,0,9.891.865,13.973,2.595,4.079,1.73,7.496,4.126,10.247,7.187,2.749,3.061,4.834,6.676,6.254,10.845,1.418,4.171,2.129,8.695,2.129,13.573v1.598c-.089.532-.133,1.021-.133,1.464-.09.444-.133.931-.133,1.464h-49.104c.353,2.661,1.085,4.946,2.195,6.853,1.108,1.909,2.483,3.506,4.125,4.791,1.641,1.287,3.437,2.219,5.389,2.794,1.951.578,3.947.865,5.988.865,3.992,0,7.296-.908,9.914-2.728,2.616-1.817,4.678-4.103,6.188-6.854l14.505,7.186ZM144.319,55.294c-.089-1.152-.465-2.439-1.131-3.859-.666-1.418-1.643-2.749-2.928-3.992-1.287-1.241-2.884-2.262-4.791-3.061-1.909-.799-4.192-1.197-6.853-1.197-3.726,0-7.009,1.064-9.848,3.193-2.84,2.129-4.836,5.103-5.988,8.916h31.538Z" fill="#fff" stroke="#000" stroke-miterlimit="10" stroke-width="2"/>
        <path d="M164.146,31.074h19.828l16.235,41.519h.932l16.368-41.519h19.694l-28.078,65.206h-17.167l-27.812-65.206Z" fill="#fff" stroke="#000" stroke-miterlimit="10" stroke-width="2"/>
        <path d="M247.317,1h60.415v17.033h-42.45v23.155h38.192v17.033h-38.192v38.059h-17.965V1Z" fill="#fff" stroke="#000" stroke-miterlimit="10" stroke-width="2"/>
        <path d="M377.196,80.577c-3.017,5.323-7.076,9.627-12.176,12.908-5.103,3.281-11.334,4.924-18.697,4.924-4.969,0-9.56-.865-13.773-2.595-4.214-1.73-7.874-4.146-10.979-7.253-3.106-3.104-5.522-6.764-7.252-10.979-1.73-4.212-2.595-8.849-2.595-13.905,0-4.701.842-9.159,2.528-13.374,1.684-4.213,4.036-7.896,7.053-11.045,3.015-3.148,6.587-5.656,10.712-7.519,4.125-1.863,8.67-2.795,13.64-2.795,5.233,0,9.891.865,13.973,2.595,4.079,1.73,7.496,4.126,10.247,7.187,2.749,3.061,4.834,6.676,6.254,10.845,1.418,4.171,2.129,8.695,2.129,13.573v1.598c-.089.532-.133,1.021-.133,1.464-.09.444-.133.931-.133,1.464h-49.104c.353,2.661,1.085,4.946,2.195,6.853,1.108,1.909,2.483,3.506,4.125,4.791,1.641,1.287,3.437,2.219,5.389,2.794,1.951.578,3.947.865,5.988.865,3.992,0,7.296-.908,9.914-2.728,2.616-1.817,4.678-4.103,6.188-6.854l14.505,7.186ZM361.36,55.294c-.089-1.152-.465-2.439-1.131-3.859-.666-1.418-1.643-2.749-2.928-3.992-1.287-1.241-2.884-2.262-4.791-3.061-1.909-.799-4.192-1.197-6.853-1.197-3.726,0-7.009,1.064-9.848,3.193-2.84,2.129-4.836,5.103-5.988,8.916h31.538Z" fill="#fff" stroke="#000" stroke-miterlimit="10" stroke-width="2"/>
        <path d="M415.92,98.409c-4.258,0-8.051-.532-11.377-1.597-3.327-1.064-6.211-2.462-8.65-4.192-2.441-1.729-4.504-3.726-6.188-5.988-1.686-2.262-2.973-4.545-3.859-6.853l15.569-6.654c1.507,3.373,3.526,5.879,6.055,7.519,2.528,1.644,5.344,2.462,8.45,2.462,3.194,0,5.722-.575,7.585-1.729,1.863-1.152,2.795-2.528,2.795-4.125,0-1.773-.778-3.215-2.329-4.325-1.553-1.108-4.237-2.106-8.051-2.994l-9.182-1.996c-2.042-.442-4.148-1.151-6.321-2.129-2.175-.976-4.148-2.217-5.922-3.727-1.775-1.507-3.239-3.326-4.391-5.456-1.154-2.129-1.73-4.611-1.73-7.451,0-3.194.686-6.032,2.062-8.518,1.375-2.482,3.26-4.591,5.656-6.32,2.395-1.73,5.21-3.061,8.45-3.992,3.237-.932,6.72-1.397,10.446-1.397,6.209,0,11.754,1.221,16.634,3.659,4.878,2.441,8.471,6.321,10.779,11.645l-15.037,6.121c-1.244-2.572-3.061-4.436-5.456-5.589-2.396-1.152-4.791-1.73-7.186-1.73-2.484,0-4.657.512-6.521,1.53-1.863,1.021-2.794,2.329-2.794,3.926,0,1.51.775,2.707,2.329,3.593,1.551.889,3.66,1.687,6.321,2.396l9.98,2.396c6.653,1.597,11.598,4.148,14.837,7.651,3.237,3.506,4.857,7.652,4.857,12.442,0,2.841-.665,5.546-1.996,8.117-1.331,2.574-3.216,4.857-5.655,6.854-2.441,1.996-5.369,3.572-8.783,4.725-3.417,1.151-7.209,1.729-11.378,1.729Z" fill="#fff" stroke="#000" stroke-miterlimit="10" stroke-width="2"/>
        <path d="M460.898,45.979h-11.444v-14.904h11.444V11.113h17.432v19.961h15.969v14.904h-15.969v26.056c0,1.555.154,2.996.466,4.32.31,1.326.909,2.445,1.796,3.36,1.242,1.464,3.015,2.193,5.323,2.193,1.507,0,2.705-.154,3.593-.466.886-.31,1.73-.731,2.528-1.264l4.924,15.303c-2.042.976-4.238,1.707-6.587,2.196-2.352.486-4.946.731-7.785.731-3.283,0-6.233-.521-8.849-1.562-2.618-1.042-4.813-2.468-6.587-4.279-4.171-4.075-6.254-9.87-6.254-17.387v-29.203Z" fill="#fff" stroke="#000" stroke-miterlimit="10" stroke-width="2"/>
        <path d="M44.914,249.047h-1.065c-2.042,2.485-4.503,4.614-7.385,6.388-2.884,1.773-6.587,2.661-11.112,2.661-3.373,0-6.543-.555-9.515-1.663-2.973-1.108-5.568-2.639-7.785-4.591-2.219-1.95-3.948-4.302-5.19-7.053-1.243-2.749-1.863-5.767-1.863-9.049,0-3.371.666-6.409,1.996-9.116,1.331-2.705,3.194-5.033,5.589-6.986,2.396-1.95,5.211-3.437,8.45-4.458,3.237-1.019,6.764-1.53,10.579-1.53,4.258,0,7.762.333,10.513.998,2.749.666,5.011,1.354,6.787,2.062v-1.996c0-3.459-1.376-6.32-4.125-8.583-2.751-2.262-6.167-3.393-10.247-3.393-6.034,0-11.134,2.528-15.303,7.585l-12.642-8.65c6.92-8.693,16.368-13.041,28.345-13.041,10.113,0,17.832,2.375,23.154,7.12,5.323,4.746,7.984,11.776,7.984,21.092v39.123h-17.166v-6.92ZM44.914,229.485c-2.042-.976-4.148-1.751-6.321-2.329-2.175-.575-4.547-.864-7.119-.864-4.171,0-7.386.91-9.648,2.728-2.262,1.819-3.393,4.059-3.393,6.721s1.085,4.79,3.26,6.387c2.173,1.598,4.678,2.396,7.519,2.396,2.306,0,4.435-.42,6.387-1.264,1.951-.843,3.614-1.951,4.99-3.327,1.375-1.374,2.439-2.972,3.194-4.791.753-1.817,1.131-3.703,1.131-5.655Z" fill="#fff" stroke="#000" stroke-miterlimit="10" stroke-width="2"/>
        <path d="M81.775,205.665h-11.444v-14.903h11.444v-19.961h17.432v19.961h15.969v14.903h-15.969v26.056c0,1.555.154,2.996.466,4.32.31,1.327.909,2.445,1.796,3.36,1.242,1.464,3.015,2.193,5.323,2.193,1.507,0,2.705-.153,3.593-.466.886-.31,1.73-.731,2.528-1.264l4.924,15.303c-2.042.976-4.238,1.707-6.587,2.196-2.352.486-4.946.731-7.785.731-3.283,0-6.233-.521-8.849-1.562-2.618-1.041-4.813-2.468-6.587-4.279-4.171-4.075-6.254-9.87-6.254-17.387v-29.203Z" fill="#fff" stroke="#000" stroke-miterlimit="10" stroke-width="2"/>
        <path d="M197.415,249.047h-1.065c-2.042,2.485-4.503,4.614-7.385,6.388-2.884,1.773-6.587,2.661-11.112,2.661-3.373,0-6.543-.555-9.515-1.663-2.973-1.108-5.568-2.639-7.785-4.591-2.219-1.95-3.948-4.302-5.19-7.053-1.243-2.749-1.863-5.767-1.863-9.049,0-3.371.666-6.409,1.996-9.116,1.331-2.705,3.194-5.033,5.589-6.986,2.396-1.95,5.211-3.437,8.45-4.458,3.237-1.019,6.764-1.53,10.579-1.53,4.258,0,7.762.333,10.513.998,2.749.666,5.011,1.354,6.787,2.062v-1.996c0-3.459-1.376-6.32-4.125-8.583-2.751-2.262-6.167-3.393-10.247-3.393-6.034,0-11.134,2.528-15.303,7.585l-12.642-8.65c6.92-8.693,16.368-13.041,28.345-13.041,10.113,0,17.832,2.375,23.154,7.12,5.323,4.746,7.984,11.776,7.984,21.092v39.123h-17.166v-6.92ZM197.415,229.485c-2.042-.976-4.148-1.751-6.321-2.329-2.175-.575-4.547-.864-7.119-.864-4.171,0-7.386.91-9.648,2.728-2.262,1.819-3.393,4.059-3.393,6.721s1.085,4.79,3.26,6.387c2.173,1.598,4.678,2.396,7.519,2.396,2.306,0,4.435-.42,6.387-1.264,1.951-.843,3.614-1.951,4.99-3.327,1.375-1.374,2.439-2.972,3.194-4.791.753-1.817,1.131-3.703,1.131-5.655Z" fill="#fff" stroke="#000" stroke-miterlimit="10" stroke-width="2"/>
        <path d="M52.1,363.356h46.708c.266,1.065.487,2.352.666,3.859.177,1.51.266,3.018.266,4.524,0,6.121-.932,11.89-2.794,17.3-1.863,5.412-4.791,10.246-8.783,14.505-4.258,4.524-9.361,8.03-15.304,10.513-5.944,2.482-12.731,3.726-20.36,3.726-6.92,0-13.44-1.243-19.562-3.726-6.122-2.482-11.444-5.942-15.969-10.38-4.524-4.435-8.118-9.691-10.779-15.769-2.662-6.076-3.992-12.709-3.992-19.895s1.331-13.817,3.992-19.895c2.661-6.075,6.254-11.332,10.779-15.77,4.524-4.435,9.847-7.895,15.969-10.379,6.121-2.483,12.642-3.727,19.562-3.727,7.718,0,14.615,1.331,20.693,3.992,6.075,2.661,11.288,6.344,15.636,11.045l-12.375,12.109c-3.106-3.28-6.566-5.788-10.38-7.519-3.815-1.729-8.383-2.595-13.707-2.595-4.348,0-8.473.778-12.375,2.329-3.905,1.553-7.319,3.749-10.247,6.587-2.928,2.841-5.256,6.277-6.986,10.313-1.73,4.038-2.595,8.539-2.595,13.507s.865,9.471,2.595,13.507c1.73,4.038,4.08,7.475,7.053,10.312,2.971,2.841,6.408,5.036,10.313,6.588,3.903,1.553,8.072,2.328,12.509,2.328,5.057,0,9.336-.731,12.842-2.195,3.503-1.464,6.498-3.348,8.982-5.656,1.773-1.597,3.304-3.613,4.591-6.055,1.285-2.438,2.283-5.167,2.994-8.184h-29.941v-15.304Z" fill="#fff" stroke="#000" stroke-miterlimit="10" stroke-width="2"/>
        <path d="M112.515,415.654v-95.28h17.433v95.28h-17.433Z" fill="#fff" stroke="#000" stroke-miterlimit="10" stroke-width="2"/>
        <path d="M184.374,408.734h-1.065c-2.042,2.485-4.503,4.614-7.385,6.388-2.884,1.773-6.587,2.661-11.112,2.661-3.373,0-6.543-.555-9.515-1.663-2.973-1.108-5.568-2.639-7.785-4.591-2.219-1.95-3.948-4.302-5.19-7.053-1.243-2.749-1.863-5.767-1.863-9.049,0-3.371.666-6.409,1.996-9.116,1.331-2.705,3.194-5.033,5.589-6.986,2.396-1.95,5.211-3.437,8.45-4.458,3.237-1.019,6.764-1.53,10.579-1.53,4.258,0,7.762.333,10.513.998,2.749.666,5.011,1.354,6.787,2.062v-1.996c0-3.459-1.376-6.32-4.125-8.583-2.751-2.262-6.167-3.393-10.247-3.393-6.034,0-11.134,2.528-15.303,7.585l-12.642-8.65c6.92-8.693,16.368-13.041,28.345-13.041,10.113,0,17.832,2.375,23.154,7.12,5.323,4.746,7.984,11.776,7.984,21.092v39.123h-17.166v-6.92ZM184.374,389.173c-2.042-.976-4.148-1.751-6.321-2.329-2.175-.575-4.547-.864-7.119-.864-4.171,0-7.386.91-9.648,2.728-2.262,1.819-3.393,4.059-3.393,6.721s1.085,4.79,3.26,6.387c2.173,1.598,4.678,2.396,7.519,2.396,2.306,0,4.435-.42,6.387-1.264,1.951-.843,3.614-1.951,4.99-3.327,1.375-1.374,2.439-2.972,3.194-4.791.753-1.817,1.131-3.703,1.131-5.655Z" fill="#fff" stroke="#000" stroke-miterlimit="10" stroke-width="2"/>
        <path d="M231.748,358.966h1.065c2.04-3.281,4.791-5.876,8.25-7.785,3.459-1.906,7.406-2.861,11.843-2.861,4.08,0,7.672.666,10.779,1.996,3.104,1.331,5.656,3.217,7.652,5.656,1.996,2.44,3.503,5.368,4.524,8.782,1.019,3.416,1.53,7.209,1.53,11.378v39.522h-17.433v-37.394c0-4.701-1.044-8.184-3.127-10.446-2.085-2.262-5.124-3.393-9.116-3.393-2.395,0-4.503.511-6.321,1.53-1.819,1.021-3.373,2.395-4.658,4.125-1.287,1.729-2.262,3.771-2.927,6.121-.666,2.352-.998,4.857-.998,7.519v31.938h-17.433v-65.205h16.368v8.517Z" fill="#fff" stroke="#000" stroke-miterlimit="10" stroke-width="2"/>
        <path d="M353.642,399.021c-2.84,5.501-6.81,10.003-11.91,13.507-5.103,3.503-11.467,5.256-19.096,5.256-5.057,0-9.693-.864-13.906-2.595-4.215-1.729-7.852-4.146-10.912-7.252-3.061-3.104-5.456-6.765-7.186-10.979-1.73-4.213-2.595-8.85-2.595-13.906s.865-9.715,2.595-13.973c1.73-4.259,4.125-7.918,7.186-10.979s6.697-5.456,10.912-7.186c4.212-1.73,8.849-2.596,13.906-2.596,7.54,0,13.883,1.73,19.029,5.19,5.145,3.46,8.916,7.94,11.312,13.44l-15.969,6.653c-1.51-3.015-3.439-5.3-5.789-6.854-2.352-1.551-5.302-2.328-8.85-2.328-2.308,0-4.48.444-6.521,1.33-2.042.888-3.838,2.129-5.389,3.727-1.553,1.597-2.774,3.549-3.66,5.854-.888,2.309-1.331,4.88-1.331,7.719s.443,5.412,1.331,7.718c.886,2.309,2.106,4.259,3.66,5.855,1.551,1.597,3.347,2.84,5.389,3.726,2.04.889,4.213,1.331,6.521,1.331,3.637,0,6.72-.819,9.249-2.462,2.528-1.641,4.545-4.013,6.055-7.119l15.969,6.92Z" fill="#fff" stroke="#000" stroke-miterlimit="10" stroke-width="2"/>
        <path d="M425.368,399.952c-3.017,5.322-7.076,9.627-12.176,12.907-5.103,3.281-11.334,4.924-18.697,4.924-4.969,0-9.56-.864-13.773-2.595-4.214-1.729-7.874-4.146-10.979-7.252-3.106-3.104-5.522-6.765-7.252-10.979-1.73-4.213-2.595-8.85-2.595-13.906,0-4.701.842-9.159,2.528-13.374,1.684-4.213,4.036-7.895,7.053-11.045,3.015-3.148,6.587-5.655,10.712-7.519,4.125-1.863,8.67-2.795,13.64-2.795,5.233,0,9.891.865,13.973,2.596,4.079,1.729,7.496,4.125,10.247,7.186,2.749,3.061,4.834,6.677,6.254,10.846,1.418,4.171,2.129,8.695,2.129,13.573v1.597c-.089.532-.133,1.021-.133,1.464-.09.444-.133.932-.133,1.464h-49.104c.353,2.661,1.085,4.946,2.195,6.853,1.108,1.909,2.483,3.506,4.125,4.791,1.641,1.287,3.437,2.219,5.389,2.795,1.951.578,3.947.864,5.988.864,3.992,0,7.296-.908,9.914-2.728,2.616-1.817,4.678-4.103,6.188-6.854l14.505,7.187ZM409.532,374.668c-.089-1.152-.465-2.438-1.131-3.859-.666-1.418-1.643-2.748-2.928-3.992-1.287-1.241-2.884-2.262-4.791-3.061-1.909-.798-4.192-1.197-6.853-1.197-3.726,0-7.009,1.064-9.848,3.193-2.84,2.129-4.836,5.103-5.988,8.916h31.538Z" fill="#fff" stroke="#000" stroke-miterlimit="10" stroke-width="2"/>
      </g>
    </g>
  </g>
</svg>