<?xml version="1.0" encoding="UTF-8"?>
<svg id="b" data-name="Layer_2" xmlns="http://www.w3.org/2000/svg" width="357.306" height="311.96" viewBox="0 0 357.306 311.96">
  <g id="c" data-name="Layer_1">
    <g>
      <g>
        <path d="M122.727,323.273c39.007-20.048,105.023-68.29,105.023-121.932,0-14.85-7.623-34.509-23.622-45.711,0,0-.004-.003-.004-.003l-16.38-11.467-.004-.003c-7.694-5.386-17.324-8.816-28.975-8.816-23.413,0-37.71,10.202-45.979,19.806-1.555,1.806-2.896,3.59-4.046,5.282-1.268-1.077-2.624-2.132-4.074-3.147h0s-16.383-11.47-16.383-11.47c-8.429-5.901-20.015-10.471-35.683-10.471-17.032,0-29.747,7.332-38.405,17.387C4.613,163.855,0,178.317,0,189.87c0,40.254,37.176,77.467,72.217,102.007.006.004.012.009.018.013l16.345,11.447.018.013.018.013c11.647,8.155,23.057,14.91,32.786,19.91.208.107.434.16.662.16s.454-.054.662-.16Z"/>
        <g>
          <g>
            <path d="M105.682,168.637c-.834-1.354-13.029-31.849-53.082-31.849-35.227,0-51.152,32.218-51.152,53.082,0,52.6,66.019,101,104.235,120.642,38.216-19.642,104.235-68.042,104.235-120.642,0-20.865-15.925-53.082-51.152-53.082-40.053,0-52.248,30.495-53.082,31.849Z" fill="#ed6033"/>
            <path d="M105.682,311.96c-.228,0-.454-.054-.662-.16C66.015,291.752,0,243.51,0,189.87c0-21.991,16.718-54.53,52.599-54.53,32.531,0,47.465,19.699,53.083,30.118,5.617-10.422,20.549-30.118,53.082-30.118,35.883,0,52.601,32.539,52.601,54.53,0,53.641-66.015,101.882-105.021,121.929-.208.107-.434.16-.662.16ZM52.599,138.235c-33.907,0-49.704,30.811-49.704,51.635,0,52.033,66.842,100.369,102.787,119.013,35.945-18.643,102.787-66.98,102.787-119.013,0-20.823-15.798-51.635-49.705-51.635-33.091,0-47.032,21.303-51.49,30.462-.175.359-.295.597-.359.699-.263.428-.73.689-1.233.689h0c-.502,0-.968-.26-1.233-.688-.062-.102-.185-.341-.361-.703-4.459-9.158-18.403-30.459-51.49-30.459Z"/>
          </g>
          <path d="M105.802,232.936c-3.844,0-7.384-1.296-10.209-3.475-1.337-1.031-3.001-1.543-4.69-1.543h-.515c-4.375,0-7.921,3.546-7.921,7.921,0,2.38,1.063,4.642,2.908,6.146,5.505,4.486,12.774,7.178,20.427,7.178s14.681-2.692,20.186-7.178c1.845-1.503,2.908-3.766,2.908-6.146,0-4.375-3.546-7.921-7.921-7.921h-.515c-1.688,0-3.353.512-4.69,1.543-2.825,2.179-6.366,3.475-10.209,3.475h.241Z" fill="#f1dfd7"/>
          <g>
            <path d="M121.954,200.939h0c0-9.239,7.49-16.729,16.729-16.729h0c9.239,0,16.729,7.49,16.729,16.729" fill="#ed6033"/>
            <path d="M155.412,202.387c-.8,0-1.448-.648-1.448-1.448,0-8.426-6.855-15.281-15.281-15.281s-15.28,6.855-15.28,15.281c0,.799-.648,1.448-1.448,1.448s-1.448-.648-1.448-1.448c0-10.023,8.153-18.177,18.175-18.177s18.177,8.154,18.177,18.177c0,.799-.648,1.448-1.448,1.448Z"/>
          </g>
          <rect x="152.343" y="209.888" width="17.372" height="17.372" rx="6" ry="6" fill="#fa8a9b"/>
          <g>
            <path d="M89.409,200.939h0c0-9.239-7.49-16.729-16.729-16.729h0c-9.239,0-16.729,7.49-16.729,16.729" fill="#ed6033"/>
            <path d="M89.41,202.387c-.8,0-1.448-.648-1.448-1.448,0-8.426-6.855-15.281-15.281-15.281s-15.281,6.855-15.281,15.281c0,.799-.648,1.448-1.448,1.448s-1.448-.648-1.448-1.448c0-10.023,8.155-18.177,18.177-18.177s18.177,8.154,18.177,18.177c0,.799-.648,1.448-1.448,1.448Z"/>
          </g>
          <rect x="46.783" y="209.888" width="17.372" height="17.372" rx="6" ry="6" fill="#fa8a9b"/>
        </g>
      </g>
      <g>
        <g>
          <polygon points="284.192 105.555 269.645 33.889 255.097 105.555 183.431 120.103 255.097 134.65 269.645 206.317 284.192 134.65 355.859 120.103 284.192 105.555" fill="#fff"/>
          <path d="M269.645,207.765c-.689,0-1.282-.485-1.419-1.16l-14.357-70.726-70.727-14.357c-.674-.137-1.159-.73-1.159-1.419s.485-1.282,1.159-1.419l70.727-14.356,14.357-70.727c.137-.675.731-1.16,1.419-1.16s1.282.485,1.419,1.16l14.357,70.727,70.725,14.356c.674.137,1.159.73,1.159,1.419s-.485,1.282-1.159,1.419l-70.725,14.357-14.357,70.726c-.137.675-.731,1.16-1.419,1.16ZM190.708,120.103l64.677,13.129c.57.116,1.015.561,1.131,1.131l13.128,64.677,13.128-64.677c.116-.57.561-1.015,1.131-1.131l64.677-13.129-64.677-13.128c-.57-.116-1.015-.561-1.131-1.131l-13.128-64.677-13.128,64.677c-.116.57-.561,1.015-1.131,1.131l-64.677,13.128Z"/>
        </g>
        <g>
          <polygon points="210.25 41.605 202.099 1.448 193.947 41.605 153.79 49.757 193.947 57.908 202.099 98.065 210.25 57.908 250.407 49.757 210.25 41.605" fill="#fff"/>
          <path d="M202.099,99.513c-.689,0-1.282-.485-1.419-1.16l-7.961-39.217-39.217-7.961c-.674-.137-1.159-.73-1.159-1.419s.485-1.282,1.159-1.419l39.217-7.96,7.961-39.217c.137-.675.731-1.16,1.419-1.16s1.282.485,1.419,1.16l7.96,39.217,39.218,7.96c.674.137,1.159.73,1.159,1.419s-.485,1.282-1.159,1.419l-39.218,7.961-7.96,39.217c-.137.675-.731,1.16-1.419,1.16ZM161.067,49.756l33.169,6.733c.57.116,1.015.561,1.131,1.131l6.732,33.167,6.731-33.167c.116-.57.561-1.015,1.131-1.131l33.169-6.733-33.169-6.732c-.57-.116-1.015-.561-1.131-1.131l-6.731-33.167-6.732,33.167c-.116.57-.561,1.015-1.131,1.131l-33.169,6.732Z"/>
        </g>
      </g>
    </g>
  </g>
</svg>