<?xml version="1.0" encoding="UTF-8"?>
<svg id="b" data-name="Layer_2" xmlns="http://www.w3.org/2000/svg" width="637.723" height="571.362" viewBox="0 0 637.723 571.362">
  <g id="c" data-name="Layer_1">
    <g>
      <g>
        <path d="M585.701,463.051c22.187-4.476,40.24-26.176,40.24-48.376,0-10.732-4.155-20.044-11.699-26.22-.608-.498-1.232-.97-1.871-1.418l-.004-.003h0s-11.778-8.244-11.778-8.244l-.004-.003c-7.507-5.255-17.082-7.023-27.234-4.975L40.239,481.292c-10.791,2.176-20.603,8.426-27.836,16.827C4.763,506.992,0,518.264,0,529.668c0,10.732,4.155,20.044,11.7,26.219.607.497,1.23.969,1.868,1.416.001.001.003.002.004.003l11.768,8.243.004.003.004.003c5.47,3.83,12.037,5.808,19.126,5.808,2.641,0,5.354-.275,8.11-.83l533.116-107.481Z"/>
        <g>
          <path d="M573.635,453.393L40.523,560.873c-21.586,4.352-39.085-9.619-39.085-31.205h0c0-21.586,17.499-42.613,39.085-46.965l533.111-107.48c21.586-4.352,39.085,9.619,39.085,31.205h0c0,21.586-17.499,42.613-39.085,46.965Z" fill="#fff" stroke="#231f20" stroke-miterlimit="10" stroke-width="2"/>
          <g>
            <path d="M56.753,518.483c0-14.054,10.783-25.812,24.538-28.585,3.638-.733,8.763-1.104,12.831-.343.604.113.986.636.986,1.285v6.616c0,1.158-1.177,2.152-2.242,1.918-3.11-.684-6.907-.574-10.091.068-9.298,1.875-15.561,8.739-15.561,17.061,0,8.095,5.94,12.532,15.11,10.683,1.304-.263,2.662-.645,3.981-1.169.759-.302,1.314-1.073,1.314-1.849v-5.253c0-.886-.716-1.459-1.599-1.281l-4.422.891c-.883.178-1.599-.396-1.599-1.281v-5.535c0-.886.716-1.748,1.599-1.926l14.43-2.909c.883-.178,1.599.396,1.599,1.281v20.893c0,.606-.337,1.225-.874,1.61-3.911,2.805-10.459,5.572-15.786,6.646-14.012,2.825-24.214-5.091-24.214-18.821Z"/>
            <path d="M121.425,482.713l10.174-2.051c.668-.135,1.266.162,1.499.743l15.6,38.981c.388.969-.385,2.24-1.499,2.464l-7.603,1.533c-.681.137-1.288-.173-1.511-.774l-2.386-6.428c-.223-.601-.83-.912-1.511-.774l-15.48,3.121c-.681.137-1.288.693-1.511,1.383l-2.386,7.39c-.223.691-.83,1.246-1.511,1.383l-7.475,1.507c-1.114.225-1.887-.734-1.499-1.86l15.601-45.271c.233-.675.831-1.213,1.499-1.348ZM132.807,507.813l-6.263-15.738-6.296,18.27,12.559-2.532Z"/>
            <path d="M158.126,475.314l7.427-1.497c.533-.107,1.031.058,1.328.442l18.638,24.092v-26.956c0-.886.716-1.748,1.599-1.926l6.617-1.334c.883-.178,1.599.396,1.599,1.281v42.126c0,.886-.716,1.748-1.599,1.926l-7.363,1.484c-.533.107-1.031-.059-1.328-.443l-18.702-24.208v27.086c0,.886-.716,1.748-1.599,1.926l-6.617,1.334c-.883.178-1.599-.396-1.599-1.281v-42.126c0-.886.716-1.748,1.599-1.926Z"/>
            <path d="M207.592,466.945c0-.886.716-1.748,1.599-1.926l13.64-2.75c13.043-2.63,23.632,4.043,23.632,17.967,0,14.118-10.59,24.737-23.632,27.366l-13.64,2.75c-.883.178-1.599-.396-1.599-1.281v-42.126ZM222.831,498.115c7.425-1.497,13.301-7.085,13.301-15.796,0-8.581-5.876-11.735-13.301-10.238l-3.438.693c-.883.178-1.599,1.04-1.599,1.926v22.827c0,.886.716,1.459,1.599,1.281l3.438-.693Z"/>
            <path d="M257.931,455.193l7.004-1.412c.883-.178,1.599.396,1.599,1.281v14.278c0,.886.716,1.459,1.599,1.281l13.72-2.766c.883-.178,1.599-1.04,1.599-1.926v-14.278c0-.886.716-1.748,1.599-1.926l7.004-1.412c.883-.178,1.599.396,1.599,1.281v42.126c0,.886-.716,1.748-1.599,1.926l-7.004,1.412c-.883.178-1.599-.396-1.599-1.281v-14.926c0-.886-.716-1.459-1.599-1.281l-13.72,2.766c-.883.178-1.599,1.04-1.599,1.926v14.926c0,.886-.716,1.748-1.599,1.926l-7.004,1.412c-.883.178-1.599-.396-1.599-1.281v-42.126c0-.886.716-1.748,1.599-1.926Z"/>
            <path d="M307.511,445.197l7.069-1.425c.883-.178,1.599.396,1.599,1.281v42.126c0,.886-.716,1.748-1.599,1.926l-7.069,1.425c-.883.178-1.599-.396-1.599-1.281v-42.126c0-.886.716-1.748,1.599-1.926Z"/>
            <path d="M330.04,440.655l7.427-1.497c.533-.107,1.031.058,1.328.442l18.638,24.092v-26.956c0-.886.716-1.748,1.599-1.926l6.617-1.334c.883-.178,1.599.396,1.599,1.281v42.126c0,.886-.716,1.748-1.599,1.926l-7.363,1.484c-.533.107-1.031-.059-1.328-.443l-18.702-24.208v27.086c0,.886-.716,1.748-1.599,1.926l-6.617,1.334c-.883.178-1.599-.396-1.599-1.281v-42.126c0-.886.716-1.748,1.599-1.926Z"/>
            <path d="M392.174,428.128l10.174-2.051c.668-.135,1.266.162,1.499.743l15.601,38.98c.388.969-.385,2.24-1.499,2.464l-7.604,1.533c-.681.137-1.288-.173-1.511-.774l-2.386-6.428c-.223-.601-.83-.912-1.511-.774l-15.48,3.121c-.681.137-1.288.693-1.511,1.383l-2.386,7.39c-.223.691-.83,1.246-1.511,1.383l-7.474,1.507c-1.114.225-1.887-.734-1.499-1.86l15.6-45.271c.233-.675.831-1.213,1.499-1.348ZM403.557,453.228l-6.263-15.738-6.296,18.27,12.559-2.532Z"/>
            <path d="M423.082,444.628c0-14.054,10.783-25.812,24.536-28.585,3.639-.734,8.764-1.104,12.832-.343.604.113.986.636.986,1.285v6.616c0,1.158-1.177,2.152-2.242,1.918-3.11-.684-6.907-.574-10.091.068-9.298,1.875-15.561,8.739-15.561,17.061,0,8.095,5.94,12.532,15.109,10.683,1.305-.263,2.663-.646,3.982-1.17.759-.302,1.314-1.073,1.314-1.849v-5.253c0-.886-.716-1.459-1.599-1.281l-4.421.891c-.883.178-1.599-.396-1.599-1.281v-5.535c0-.886.716-1.748,1.599-1.926l14.429-2.909c.883-.178,1.599.396,1.599,1.281v20.893c0,.606-.337,1.225-.874,1.61-3.911,2.805-10.458,5.572-15.786,6.646-14.012,2.825-24.213-5.091-24.213-18.821Z"/>
            <path d="M487.754,408.858l10.174-2.051c.668-.135,1.266.162,1.499.743l15.6,38.981c.388.969-.385,2.24-1.499,2.464l-7.603,1.533c-.681.137-1.288-.173-1.511-.774l-2.386-6.428c-.223-.601-.83-.912-1.511-.774l-15.48,3.121c-.681.137-1.288.693-1.511,1.383l-2.386,7.39c-.223.691-.83,1.246-1.511,1.383l-7.475,1.507c-1.114.225-1.887-.734-1.499-1.86l15.601-45.271c.233-.675.831-1.213,1.499-1.348ZM499.136,433.958l-6.263-15.738-6.296,18.27,12.559-2.532Z"/>
            <path d="M522.856,403.385c0-.886.716-1.748,1.599-1.926l16.093-3.244c9.815-1.979,16.854,3.078,16.854,11.691,0,4.986-2.794,10.155-6.939,13.968-.652.6-.849,1.524-.465,2.152l7.21,11.79c.582.951-.189,2.411-1.403,2.655l-8.401,1.694c-.601.121-1.151-.106-1.424-.587l-6.567-11.564c-.273-.481-.823-.708-1.424-.587l-3.459.697c-.883.178-1.599,1.04-1.599,1.926v11.429c0,.886-.716,1.748-1.599,1.926l-6.875,1.386c-.883.178-1.599-.396-1.599-1.281v-42.126ZM540.419,420.454c4.068-.82,6.78-4.346,6.78-7.843s-2.711-5.93-6.78-5.109l-7.49,1.51v12.952l7.49-1.51Z"/>
          </g>
        </g>
      </g>
      <g>
        <path d="M26.045,146.394c2.782,0,5.752-1.645,7.498-4.425,1.289-2.052,1.707-4.402,1.148-6.447-.374-1.372-1.172-2.517-2.279-3.293l-4.094-2.868c-.209-.146-.429-.28-.659-.399l-1.781-.921,5.984-5.507c3.323-3.059,4.059-7.886,1.641-10.762-.32-.381-.686-.715-1.089-.997h0s-4.093-2.868-4.093-2.868h0c-.095-.067-.191-.13-.29-.191-.832-.511-1.803-.816-2.847-.883-2.16-.133-4.441.734-6.246,2.394l-14.925,13.735c-.287.264-.554.541-.802.829-.442.513-.821,1.06-1.136,1.628-1.085,1.945-1.411,4.111-.892,6.015.375,1.371,1.172,2.516,2.279,3.292,0,0,0,0,.001,0l4.092,2.867h.002c.209.148.429.281.659.4l14.925,7.718c.898.464,1.89.684,2.907.684ZM67.927,125.992c.73-.671,1.334-1.428,1.808-2.231,1.188-2.002,1.561-4.264,1.021-6.241-.374-1.371-1.173-2.516-2.281-3.293l-4.095-2.868c-.209-.146-.428-.279-.658-.398l-14.925-7.718c-2.981-1.541-6.996-.388-9.526,2.551-.318.369-.612.767-.879,1.191-1.288,2.052-1.707,4.401-1.149,6.447.374,1.372,1.173,2.518,2.28,3.294l4.094,2.868c.209.146.429.28.659.399l1.78.92-5.984,5.506c-.287.264-.554.541-.802.828-2.624,3.048-3.048,7.306-.839,9.934.32.381.686.715,1.089.997,0,0,0,0,0,0l4.092,2.867h.002c.893.627,1.968.999,3.136,1.074.15.01.3.015.451.015,2.028,0,4.117-.863,5.796-2.408l14.925-13.735ZM139.467,112.69c-1.254,1.456-2.738,2.341-4.525,2.702-.484.098-.951.147-1.388.147-.112,0-.222-.003-.33-.009-.381-.865-.568-1.908-.568-3.145,0-2.252.642-4.161,1.964-5.835,1.344-1.701,2.918-2.714,4.813-3.096.461-.093.908-.14,1.329-.14.126,0,.251.004.373.012.39.864.582,1.904.582,3.135,0,2.285-.642,4.209-1.964,5.882-.094.119-.189.235-.286.347ZM165.518,107.438c-1.254,1.456-2.738,2.342-4.525,2.702-.484.098-.951.147-1.388.147-.112,0-.222-.003-.33-.009-.381-.865-.568-1.908-.568-3.145,0-2.252.642-4.161,1.964-5.835,1.344-1.701,2.918-2.714,4.813-3.096.461-.093.908-.14,1.329-.14.126,0,.251.004.373.012.39.864.582,1.904.582,3.135,0,2.285-.642,4.209-1.964,5.882-.094.119-.189.235-.286.347ZM191.106,102.428c-1.153,1.339-2.547,2.155-4.253,2.499-.444.089-.873.135-1.276.135-.079,0-.158-.002-.236-.005-.392-.874-.583-1.926-.583-3.175,0-2.227.63-4.137,1.926-5.84,1.282-1.681,2.806-2.679,4.66-3.053.456-.092.895-.138,1.306-.138.065,0,.129.001.193.003.401.883.598,1.937.598,3.18,0,2.257-.647,4.235-1.922,5.88-.134.179-.271.351-.412.515ZM226.45,95.249c-1.184,1.375-2.594,2.217-4.262,2.554-.481.097-.947.146-1.385.146-.122,0-.242-.004-.361-.011-.186-.462-.314-.978-.385-1.55l6.545-1.319c-.05.061-.101.122-.152.181ZM233.19,103.526c1.956-1.565,3.508-3.521,4.611-5.815.128-.266.132-.574.011-.843-.075-.167-.193-.307-.339-.41l-3.972-2.782,3.928-.792c.431-.087.755-.446.798-.884l.047-.483c.003-.032.005-.064.005-.097,0-4.288-1.14-7.479-3.389-9.485-.255-.228-.521-.438-.796-.631,0,0-4.095-2.867-4.095-2.868-1.511-1.058-3.32-1.593-5.394-1.593-.907,0-1.88.103-2.891.307-3.28.661-6.054,2.292-8.258,4.852-.197.229-.39.465-.578.709-.21.272-.41.548-.6.827v-9.517c0-.3-.135-.584-.367-.774-.02-.016-.04-.031-.06-.046,0,0-4.095-2.868-4.095-2.868-.169-.118-.369-.181-.573-.181-.066,0-.132.006-.198.02l-4.357.879c-.225.045-.419.164-.56.328-.152.177-.242.406-.242.653v12.585s-2.642-1.85-2.642-1.85c-.169-.118-.369-.181-.573-.181-.066,0-.132.006-.198.02l-4.168.84c-.225.045-.419.164-.56.328-.152.177-.242.406-.242.653v1.127c-.659-.456-1.407-.811-2.237-1.064-.884-.269-1.82-.405-2.782-.405-.734,0-1.5.079-2.277.236-2.954.596-5.554,2.183-7.742,4.724-.228.265-.451.54-.67.825-1.184,1.561-2.063,3.222-2.635,4.971-.207-.203-.423-.398-.65-.585-.227-.191-.459-.369-.699-.537l-4.093-2.866-.002-.002c-1.666-1.166-3.62-1.759-5.817-1.759-.901,0-1.858.101-2.843.3-3.498.705-6.467,2.453-8.83,5.199-.109.126-.216.254-.322.385-1.269,1.578-2.204,3.287-2.801,5.112-.205-.201-.419-.394-.644-.579-.227-.191-.459-.369-.698-.536h0s-4.094-2.868-4.094-2.868h0c-1.666-1.167-3.62-1.759-5.817-1.759-.901,0-1.858.101-2.843.3-3.498.705-6.467,2.453-8.831,5.199-.109.126-.216.254-.322.385-1.199,1.49-2.099,3.097-2.698,4.809l-2.062-1.444s-.009-.006-.013-.009c-.167-.113-.362-.172-.56-.172-.066,0-.132.006-.198.02l-16.436,3.314c-.225.045-.419.164-.56.328-.152.177-.242.406-.242.653v4.073c0,.3.135.584.367.774.019.016.039.031.06.045l4.095,2.868c.169.118.369.181.573.181.066,0,.132-.006.198-.02l5.387-1.086c-.424.759-.924,1.475-1.501,2.145-.152.176-.308.349-.471.519-2.087,2.184-4.746,3.615-7.905,4.251-.918.185-1.807.279-2.643.279-1.126,0-2.168-.163-3.142-.493-1.402-1.751-2.09-4.004-2.09-6.829,0-3.63,1.199-6.941,3.564-9.843,2.391-2.872,5.355-4.684,8.802-5.38.884-.178,1.75-.269,2.573-.269.803,0,1.59.086,2.337.256.59.134,1.137.316,1.639.546l2.058,1.441c.167.117.367.181.574.181.014,0,.028,0,.043,0,.276-.012.535-.138.715-.347l.011-.012,3.128-3.756c.34-.408.301-1.011-.087-1.372-.355-.33-.733-.636-1.134-.916h-.001s-4.094-2.868-4.094-2.868h-.001c-1.352-.948-2.961-1.61-4.8-1.976-1.092-.216-2.229-.326-3.381-.326-1.311,0-2.68.142-4.068.422-4.99,1.006-9.287,3.571-12.779,7.626-.1.116-.199.233-.297.351-3.548,4.263-5.347,9.065-5.347,14.271s1.558,8.752,4.633,11.61c.274.255.56.501.858.739.253.202.509.394.77.577,0,0,.001,0,.002.001l4.091,2.865.003.002h.001c2.496,1.749,5.374,2.634,8.569,2.634,1.269,0,2.61-.141,3.985-.418,5.361-1.081,9.749-3.735,13.043-7.89,1.254-1.507,2.246-3.157,2.97-4.939.459.621.991,1.186,1.597,1.695.213.176.431.342.653.498,0,0,0,0,.001,0l4.092,2.866.002.002c1.702,1.192,3.683,1.794,5.903,1.794.906,0,1.868-.101,2.857-.301,3.662-.738,6.726-2.615,9.106-5.578,1.282-1.557,2.228-3.256,2.833-5.082.192.189.393.372.602.548.213.176.431.342.654.498,0,0,0,0,.001,0l4.093,2.867h.002c1.702,1.193,3.683,1.795,5.903,1.795.906,0,1.868-.101,2.857-.301,3.662-.738,6.726-2.615,9.106-5.578,1.267-1.539,2.207-3.218,2.812-5.021.142.148.29.293.442.435.313.277.634.531.962.761l4.054,2.839.041.029c1.621,1.135,3.436,1.705,5.421,1.705.465,0,.944-.032,1.431-.095-.869.543-1.878.928-3.043,1.163-.47.095-.923.143-1.346.143-.015,0-.03,0-.045,0-.072-.117-.167-.217-.278-.295l-4.095-2.868c-.076-.053-.16-.096-.249-.127-.106-.036-.215-.054-.324-.054-.183,0-.365.05-.524.148l-4.12,2.536c-.09.055-.168.123-.234.199-.232.269-.309.65-.18.998.392,1.065.975,2.003,1.732,2.79.365.377.766.719,1.202,1.024l4.095,2.868c.465.325.968.608,1.506.846.995.438,2.1.721,3.29.84l.129.012c.349.031.71.047,1.071.047.911,0,1.874-.101,2.862-.3,3.749-.756,6.81-2.532,9.097-5.281,2.26-2.715,3.406-6.094,3.406-10.041v-.887l2.642,1.85c.169.118.369.181.573.181.066,0,.132-.006.198-.02l4.357-.878c.467-.094.802-.504.802-.98v-6.987c.247.267.511.521.79.763.016.014.032.027.048.041.246.211.5.408.761.59,0,0,4.094,2.867,4.095,2.868,1.641,1.149,3.561,1.731,5.719,1.731.886,0,1.828-.099,2.798-.295,2.482-.5,4.738-1.551,6.703-3.123ZM266.211,84.935c-2.106,2.446-5.012,4.056-8.642,4.788l-.723.146v-19.844l5.213-1.051c1.131-.228,2.2-.344,3.176-.344.968,0,1.85.108,2.656.328,1.085,1.576,1.617,3.687,1.617,6.389,0,3.752-1.069,6.93-3.177,9.447-.04.047-.08.094-.12.141ZM293.802,81.67c-1.184,1.375-2.594,2.217-4.262,2.554-.481.097-.947.146-1.385.146-.122,0-.242-.004-.36-.011-.186-.462-.314-.978-.385-1.55l6.545-1.319c-.05.061-.101.122-.152.181ZM341.594,72.035c-1.184,1.375-2.594,2.217-4.262,2.554-.481.097-.947.146-1.385.146-.122,0-.242-.004-.36-.011-.186-.462-.314-.978-.385-1.551l6.544-1.319c-.05.061-.101.122-.152.181h0ZM350.831,71.993l-2.186-1.53,2.186-.441v1.971ZM375.722,65.059c-1.254,1.456-2.738,2.342-4.525,2.702-.484.098-.951.147-1.388.147-.111,0-.221-.003-.329-.009-.381-.865-.568-1.908-.568-3.145,0-2.252.642-4.161,1.964-5.835,1.344-1.701,2.918-2.714,4.813-3.096.461-.093.908-.14,1.329-.14.126,0,.25.004.372.012.39.864.582,1.904.582,3.136,0,2.285-.642,4.209-1.964,5.882-.094.119-.189.235-.286.347ZM402.039,59.832c-1.2,1.394-2.601,2.236-4.27,2.572-.467.094-.918.142-1.339.142-.065,0-.129-.001-.193-.003-.375-.881-.562-1.938-.562-3.185,0-2.23.616-4.14,1.885-5.837,1.274-1.673,2.814-2.675,4.701-3.055.444-.089.874-.135,1.277-.135.075,0,.15.002.223.005.399.881.595,1.934.595,3.176,0,2.255-.629,4.163-1.922,5.833-.129.169-.261.332-.394.487ZM428.841,54.445c-1.184,1.376-2.594,2.217-4.262,2.554-.481.097-.947.146-1.385.146-.122,0-.242-.004-.36-.011-.186-.462-.314-.978-.385-1.551l6.544-1.319c-.05.061-.101.122-.152.181ZM438.079,54.403l-2.186-1.53,2.186-.441v1.971ZM447.73,61.287c.467-.094.802-.504.802-.98v-12.788c0-1.557.528-2.995,1.614-4.397,1.074-1.388,2.282-2.201,3.695-2.486.72-.145,1.305-.219,1.739-.219.212,0,.344.018.417.033.068.014.137.021.204.021.434,0,.83-.284.958-.716l1.327-4.483c.078-.265.044-.55-.096-.789-.074-.126-.173-.232-.29-.314l-4.096-2.867c-.105-.073-.224-.127-.351-.156-.461-.105-.966-.158-1.503-.158-.651,0-1.37.078-2.138.233-1.483.299-2.995,1.083-4.493,2.331-.239.2-.466.403-.681.609l-1.018-.713c-.169-.118-.369-.181-.573-.181-.066,0-.132.006-.198.02l-4.168.84c-.225.045-.419.164-.56.328-.152.177-.242.406-.242.653v6.839c-.248-.29-.514-.561-.797-.814-.255-.228-.521-.438-.797-.632l-4.096-2.868c-1.51-1.057-3.32-1.592-5.393-1.592-.907,0-1.879.103-2.891.307-3.28.661-6.054,2.292-8.258,4.852-.197.229-.39.465-.578.709-1.404,1.821-2.381,3.811-2.923,5.95-.341-.423-.718-.823-1.129-1.2-.351-.328-.716-.624-1.094-.889l-.043-.03-4.053-2.838c-1.544-1.081-3.302-1.629-5.24-1.629-.739,0-1.515.081-2.306.24-1.835.37-3.535,1.11-5.052,2.198-.459.33-.888.679-1.286,1.047l-.99-.693c-.169-.118-.369-.181-.573-.181-.066,0-.132.006-.198.02l-4.168.84c-.225.045-.419.164-.56.328-.152.177-.242.406-.242.653v6.846c-.239-.242-.491-.473-.758-.693-.227-.191-.46-.37-.699-.538l-4.096-2.868c-1.666-1.166-3.619-1.758-5.816-1.758-.901,0-1.858.101-2.843.3-3.498.705-6.467,2.453-8.83,5.199-.109.126-.216.254-.322.385-.268.333-.521.673-.76,1.018v-9.634c0-.3-.135-.584-.367-.774-.019-.016-.039-.031-.06-.045l-4.096-2.868c-.169-.118-.369-.181-.573-.181-.066,0-.132.006-.198.02l-4.357.878c-.225.045-.419.164-.56.328-.152.177-.242.406-.242.653v17.544c-.248-.29-.514-.562-.797-.814-.255-.228-.521-.438-.797-.631l-.283-.198-3.813-2.67c-1.51-1.058-3.32-1.592-5.394-1.592-.907,0-1.88.103-2.891.307-3.28.661-6.053,2.292-8.258,4.852-.197.229-.39.465-.578.709-.02.026-.04.052-.06.078l-3.073-2.151c-.168-.117-.368-.181-.574-.181-.066,0-.132.006-.198.02l-4.642.936c-.221.045-.417.162-.56.328-.079.092-.142.199-.184.316l-4.729,13.261-3.138-7.649c-.075-.182-.199-.333-.351-.439l-4.096-2.868c-.166-.116-.366-.181-.573-.181-.065,0-.132.006-.198.02l-4.737.955c-.22.044-.416.161-.56.328-.05.058-.094.122-.13.192-.139.269-.15.586-.028.863l2.325,5.284c-.089-.086-.179-.171-.272-.253-.255-.228-.521-.438-.797-.631l-4.096-2.868c-1.511-1.058-3.32-1.593-5.394-1.593-.907,0-1.879.104-2.891.307-3.28.661-6.054,2.292-8.258,4.852-.197.229-.39.465-.578.709-.443.574-.843,1.165-1.2,1.772-.842-2.308-2.199-4.212-4.064-5.691-.2-.158-.403-.31-.611-.455l-4.096-2.868c-2.273-1.592-5.018-2.398-8.172-2.398-1.411,0-2.931.162-4.517.482l-10.373,2.091c-.225.045-.419.164-.56.328-.152.177-.242.406-.242.653v33.914c0,.3.135.584.367.774.019.016.039.031.06.045l4.095,2.868c.169.118.369.181.573.181.066,0,.132-.006.198-.02l10.373-2.091c5.382-1.085,9.773-3.615,13.049-7.52,1.404-1.672,2.511-3.483,3.32-5.423.544.902,1.224,1.703,2.038,2.399.247.211.5.408.761.591l4.096,2.868c1.641,1.149,3.56,1.731,5.719,1.731.886,0,1.828-.099,2.798-.295,2.482-.5,4.738-1.551,6.703-3.123,1.956-1.565,3.508-3.521,4.611-5.815.128-.266.132-.574.011-.843-.075-.167-.193-.307-.339-.41l-3.973-2.782,3.928-.792c.431-.087.755-.446.798-.884l.047-.483c.003-.032.005-.064.005-.097,0-.866-.046-1.687-.139-2.463l4.076,9.265c.076.172.196.314.341.416l4.096,2.868c.166.116.366.181.573.181.066,0,.132-.006.198-.02l4.357-.879c.338-.068.617-.305.738-.627l5.103-13.531c.536,2.239,1.634,4.076,3.282,5.487.246.211.5.408.761.591l.061.043,4.034,2.825c1.641,1.149,3.561,1.731,5.719,1.731.886,0,1.828-.099,2.798-.295,2.482-.5,4.738-1.551,6.703-3.123,1.228-.982,2.296-2.118,3.195-3.396l3.824,2.678c.169.118.369.181.573.181.066,0,.132-.006.198-.02l4.357-.879c.467-.094.802-.504.802-.98v-7.034c.277.298.575.58.892.847.213.176.432.343.655.499l4.096,2.868c1.702,1.192,3.683,1.793,5.903,1.793.906,0,1.868-.101,2.857-.301,3.662-.738,6.726-2.615,9.106-5.578.215-.261.42-.525.615-.793v8.969c0,.3.135.584.367.774.019.016.039.031.06.045l4.096,2.868c.169.118.369.181.573.181.066,0,.132-.006.198-.02l4.357-.879c.467-.094.802-.504.802-.98v-10.231c0-.02,0-.04-.002-.059l-.054-.906c.591.388,1.258.7,1.998.933.887.279,1.835.42,2.819.42.751,0,1.54-.082,2.345-.245,3.296-.664,6.112-2.531,8.371-5.546,1.392-1.814,2.37-3.768,2.924-5.837.371.454.784.876,1.239,1.266.247.211.5.408.762.591l4.096,2.868c1.641,1.149,3.56,1.73,5.718,1.73.886,0,1.828-.099,2.798-.295,2.482-.5,4.737-1.551,6.703-3.123,1.228-.982,2.296-2.118,3.195-3.396l3.824,2.677c.169.118.369.181.573.181.066,0,.132-.006.198-.02l4.357-.878ZM532.499,33.452c-1.254,1.456-2.738,2.342-4.525,2.702-.484.098-.951.147-1.388.147-.111,0-.22-.003-.328-.009-.381-.865-.568-1.908-.568-3.146,0-2.252.642-4.161,1.964-5.835,1.344-1.701,2.918-2.714,4.813-3.096.461-.093.908-.14,1.329-.14.126,0,.249.004.371.012.39.864.583,1.904.583,3.136,0,2.285-.642,4.209-1.964,5.882-.094.119-.189.235-.286.347ZM584.013,23.144c-1.2,1.394-2.601,2.236-4.27,2.572-.467.094-.918.142-1.34.142-.064,0-.128-.001-.192-.003-.375-.881-.562-1.938-.562-3.185,0-2.23.616-4.139,1.885-5.837,1.275-1.673,2.814-2.675,4.701-3.055.444-.09.874-.135,1.278-.135.075,0,.149.002.222.005.399.881.595,1.934.595,3.176,0,2.255-.629,4.163-1.922,5.833-.129.17-.261.332-.395.488ZM606.712,19.229c-.138.154-.3.311-.488.47-.797.674-1.818,1.14-3.033,1.385-.321.065-.636.1-.939.105-.069-.102-.156-.19-.256-.26l-4.097-2.868c-.085-.06-.181-.106-.282-.137-.095-.029-.193-.043-.291-.043-.186,0-.371.052-.532.153l-.026.016c-.043-.909-.163-1.773-.361-2.588l3.066,2.146c1.176.823,2.916,1.407,5.452,1.535l1.787.086ZM614.867,26.097c1.957-1.931,2.95-4.072,2.95-6.362s-.513-3.704-2.411-5.032l-4.097-2.868c-1.197-.838-2.944-1.421-5.46-1.534l-1.131-.062c.756-.613,1.587-1.004,2.54-1.196.443-.089.87-.134,1.271-.134.228,0,.452.015.669.044l2.783,1.948c.09.063.191.111.299.142.09.026.183.038.275.038.184,0,.365-.051.525-.149l3.884-2.395c.425-.262.591-.797.391-1.254-.518-1.179-1.302-2.137-2.339-2.863h-.001s-4.096-2.868-4.096-2.868h-.001c-.505-.355-1.071-.653-1.695-.896C608.1.221,606.884,0,605.607,0c-.804,0-1.649.088-2.511.262-2.857.576-5.245,1.755-7.096,3.504-.282.267-.544.54-.785.82-1.256,1.459-1.956,3.099-2.087,4.895-.01.137-.017.275-.02.414-.326-.297-.662-.568-1.01-.811,0,0-.001,0-.002-.001l-4.095-2.866h-.002c-1.544-1.082-3.302-1.63-5.24-1.63-.739,0-1.515.081-2.306.24-1.835.37-3.535,1.109-5.052,2.198-.459.33-.888.679-1.286,1.047l-.99-.693c-.169-.118-.369-.181-.573-.181-.066,0-.132.006-.198.02l-4.168.84c-.225.045-.419.164-.56.328-.152.177-.242.406-.242.653v2.264l-3.069-2.148c-.169-.118-.369-.181-.573-.181-.066,0-.132.006-.198.02l-4.357.878c-.225.045-.419.164-.56.328-.152.177-.242.406-.242.653v12.836c0,1.76-.512,3.336-1.567,4.818-.154.216-.313.419-.476.609-.923,1.072-1.997,1.722-3.264,1.977-.131.026-.26.05-.385.07-.027-.239-.045-.496-.052-.775v-14.28c0-.3-.134-.584-.366-.774-.02-.016-.04-.031-.06-.046l-4.097-2.868c-.169-.118-.369-.181-.573-.181-.066,0-.132.006-.198.02l-4.357.879c-.225.045-.419.164-.56.328-.152.177-.242.406-.242.653v6.845c-.238-.241-.491-.472-.757-.692-.227-.191-.46-.37-.699-.537h-.001s-.016-.012-.016-.012l-4.079-2.855h-.001c-1.666-1.167-3.619-1.759-5.815-1.759-.901,0-1.858.101-2.843.3-3.318.669-6.159,2.276-8.46,4.782l-2.325-1.627c-.105-.073-.224-.127-.351-.156-.461-.105-.966-.158-1.503-.158-.651,0-1.37.078-2.138.233-1.483.299-2.995,1.083-4.493,2.331-.239.2-.466.403-.681.609l-1.018-.713c-.169-.118-.369-.181-.573-.181-.066,0-.132.006-.198.02l-4.168.84c-.225.045-.419.164-.56.328-.152.177-.242.406-.242.653v7.033l-2.735-1.915s-.009-.006-.013-.009c-.167-.113-.362-.172-.56-.172-.066,0-.132.006-.198.02l-16.436,3.314c-.225.045-.419.164-.56.328-.152.177-.242.406-.242.653v4.073c0,.3.135.584.367.774.02.016.04.031.06.045l4.097,2.868c.169.118.369.181.573.181.066,0,.132-.006.198-.02l5.384-1.086c-.424.759-.924,1.475-1.501,2.145-.152.176-.308.349-.471.519-2.086,2.184-4.746,3.615-7.905,4.251-.918.185-1.807.279-2.643.279-1.124,0-2.166-.162-3.139-.492-1.403-1.751-2.092-4.005-2.092-6.831,0-3.63,1.199-6.941,3.564-9.843,2.391-2.872,5.355-4.684,8.802-5.379.884-.178,1.75-.269,2.573-.269.803,0,1.59.086,2.337.256.589.134,1.135.315,1.636.544l2.061,1.443c.167.117.367.181.573.181.014,0,.028,0,.043,0,.276-.012.535-.138.715-.347l.01-.012,3.128-3.756c.34-.408.301-1.011-.088-1.372-.355-.33-.734-.636-1.135-.917h-.001s-4.095-2.868-4.095-2.868h-.001c-1.352-.947-2.96-1.609-4.798-1.975-1.092-.216-2.229-.326-3.381-.326-1.311,0-2.68.142-4.068.422-4.99,1.006-9.287,3.571-12.779,7.626-.1.116-.199.233-.297.351-3.548,4.263-5.347,9.065-5.347,14.271,0,4.852,1.558,8.752,4.633,11.61.274.255.56.501.858.739.253.202.511.395.772.578,0,0,0,0,.001,0l4.095,2.867h.001c2.496,1.748,5.373,2.633,8.567,2.633,1.269,0,2.61-.141,3.985-.418,5.361-1.081,9.749-3.735,13.043-7.89.956-1.148,1.759-2.38,2.408-3.69v2.792c0,.3.135.584.367.774.019.016.039.031.06.045l4.097,2.868c.169.118.369.181.573.181.066,0,.132-.006.198-.02l4.357-.879c.467-.094.802-.504.802-.98v-12.788c0-1.556.528-2.995,1.614-4.397.65-.841,1.35-1.47,2.114-1.9-.14.869-.21,1.761-.21,2.674,0,3.862,1.251,6.872,3.718,8.945.213.176.432.343.655.499,0,0,0,0,.001,0l4.096,2.867h.001c1.702,1.192,3.682,1.794,5.902,1.794.906,0,1.867-.101,2.857-.301,3.662-.738,6.726-2.615,9.106-5.578,1.074-1.304,1.912-2.708,2.511-4.203.228.275.477.528.746.76,0,0,.001.001.002.002.158.136.322.264.492.383,0,0,0,0,0,0l4.096,2.867h0c1.172.821,2.621,1.236,4.317,1.236.804,0,1.679-.094,2.601-.28,1.622-.327,3.2-1.061,4.69-2.181.396-.299.767-.608,1.111-.928l.96.672c.169.118.369.181.573.181.066,0,.132-.006.198-.02l3.514-.708v5.316c0,.3.135.584.367.774.019.016.039.031.06.045l4.097,2.868c.169.118.369.181.573.181.066,0,.132-.006.198-.02l4.357-.878c.467-.094.802-.504.802-.98v-10.231c0-.02,0-.04-.002-.059l-.054-.906c.591.388,1.258.7,1.998.933.887.279,1.835.42,2.819.42.751,0,1.54-.082,2.346-.245,3.296-.664,6.112-2.53,8.371-5.546.837-1.091,1.525-2.233,2.06-3.42.054.04.109.079.165.118,0,0,0,0,.001.001l.499.349,3.597,2.518h.001c.389.273.806.518,1.251.734,1.275.619,2.695.932,4.22.932.818,0,1.684-.091,2.571-.27,2.865-.578,5.282-1.823,7.185-3.7Z"/>
        <g>
          <g>
            <path d="M100.233,127.524c-3.414,0-6.452-1.044-9.03-3.103-3.519-2.81-5.303-6.833-5.303-11.958,0-5.087,1.76-9.781,5.231-13.952,3.47-4.168,7.773-6.795,12.791-7.807,1.355-.273,2.691-.412,3.969-.412,1.119,0,2.224.106,3.283.316,2.293.456,4.208,1.387,5.692,2.768.195.181.214.482.044.687l-3.127,3.756c-.09.108-.222.173-.363.18h-.021c-.133,0-.261-.054-.355-.148-.968-.979-2.248-1.654-3.804-2.007-.783-.178-1.606-.268-2.447-.268-.856,0-1.756.094-2.673.278-3.561.717-6.62,2.587-9.094,5.558-2.436,2.988-3.673,6.406-3.673,10.154,0,3.71,1.213,6.59,3.606,8.559,1.769,1.412,3.864,2.131,6.22,2.131.869,0,1.792-.098,2.743-.289,3.261-.657,6.009-2.136,8.167-4.396,2.003-2.096,3.233-4.659,3.665-7.626l-11.634,2.346c-.033.007-.066.01-.099.01-.114,0-.227-.039-.317-.113-.116-.095-.183-.236-.183-.387v-4.073c0-.238.168-.443.401-.49l16.436-3.313c.033-.007.066-.01.099-.01.099,0,.197.029.28.086.111.075.187.191.211.323.162.876.244,1.751.244,2.602,0,4.836-1.457,9.038-4.331,12.49-3.209,4.05-7.499,6.645-12.742,7.702-1.343.271-2.65.408-3.886.408Z" fill="#fff"/>
            <path d="M107.891,90.793c1.093,0,2.155.102,3.186.306,2.21.439,4.026,1.32,5.448,2.643l-3.128,3.756c-1.041-1.053-2.392-1.768-4.049-2.143-.824-.187-1.677-.281-2.558-.281-.894,0-1.817.096-2.77.288-3.695.745-6.821,2.655-9.379,5.728-2.526,3.099-3.788,6.59-3.788,10.474s1.263,6.866,3.788,8.945c1.875,1.497,4.054,2.245,6.538,2.245.906,0,1.853-.1,2.841-.299,3.379-.681,6.189-2.195,8.43-4.541,2.243-2.348,3.537-5.213,3.884-8.599l-12.314,2.483v-4.073l16.436-3.314c.158.853.236,1.689.236,2.511,0,4.736-1.405,8.793-4.215,12.17-3.157,3.983-7.31,6.494-12.456,7.531-1.317.266-2.579.398-3.788.398-3.313,0-6.219-.998-8.717-2.993-3.41-2.723-5.115-6.579-5.115-11.567s1.705-9.534,5.115-13.632c3.41-4.098,7.579-6.643,12.505-7.637,1.331-.268,2.621-.402,3.87-.402M107.891,89.793c-1.311,0-2.68.142-4.068.422-5.133,1.035-9.532,3.719-13.076,7.977-3.548,4.263-5.347,9.065-5.347,14.271,0,5.285,1.848,9.44,5.492,12.349,2.669,2.131,5.812,3.211,9.341,3.211,1.269,0,2.61-.141,3.985-.418,5.361-1.081,9.749-3.735,13.042-7.89,2.936-3.527,4.432-7.837,4.432-12.791,0-.881-.085-1.787-.253-2.693-.049-.263-.201-.496-.423-.646-.167-.113-.362-.172-.56-.172-.066,0-.132.006-.198.02l-16.436,3.314c-.467.094-.802.504-.802.98v4.073c0,.3.135.584.367.774.18.148.404.226.633.226.066,0,.132-.006.198-.02l10.921-2.202c-.499,2.565-1.643,4.796-3.411,6.647-2.087,2.184-4.746,3.615-7.905,4.251-.918.185-1.807.279-2.643.279-2.272,0-4.207-.663-5.914-2.026-2.292-1.887-3.412-4.56-3.412-8.163,0-3.63,1.199-6.941,3.564-9.843,2.391-2.872,5.355-4.684,8.802-5.38.884-.178,1.75-.269,2.573-.269.803,0,1.59.086,2.337.256,1.462.332,2.66.961,3.559,1.871.188.19.445.297.711.297.014,0,.028,0,.043,0,.282-.012.545-.143.726-.359l3.128-3.756c.34-.408.301-1.01-.087-1.372-1.554-1.445-3.55-2.418-5.935-2.892-1.092-.216-2.229-.326-3.381-.326h0Z" fill="#231e20"/>
          </g>
          <g>
            <path d="M132.48,121.133c-2.392,0-4.489-.731-6.233-2.173-2.353-1.977-3.543-4.856-3.543-8.564,0-3.67,1.168-6.983,3.472-9.849,2.341-2.877,5.323-4.696,8.865-5.411.953-.192,1.876-.289,2.745-.289,2.391,0,4.477.734,6.2,2.184,2.38,1.966,3.588,4.844,3.588,8.553s-1.186,7.021-3.524,9.861c-2.301,2.865-5.267,4.683-8.812,5.397-.957.193-1.885.291-2.758.291ZM136.666,99.945c-.454,0-.934.051-1.428.15-1.987.4-3.706,1.503-5.107,3.275-1.374,1.742-2.071,3.811-2.071,6.146s.675,4.099,2.005,5.244c.996.86,2.136,1.278,3.488,1.278h0c.47,0,.97-.053,1.486-.157,2.018-.406,3.735-1.493,5.105-3.229,1.375-1.74,2.071-3.823,2.071-6.192,0-2.33-.656-4.03-2.006-5.198-1.029-.886-2.188-1.317-3.544-1.317Z" fill="#fff"/>
            <path d="M137.785,95.346c2.28,0,4.24.689,5.878,2.067,2.274,1.878,3.41,4.601,3.41,8.17,0,3.599-1.136,6.783-3.41,9.545-2.241,2.79-5.084,4.531-8.524,5.224-.929.187-1.816.281-2.66.281-2.283,0-4.254-.686-5.915-2.058-2.243-1.884-3.362-4.611-3.362-8.179s1.119-6.746,3.362-9.535c2.274-2.795,5.131-4.54,8.574-5.234.925-.187,1.807-.28,2.646-.28M133.554,116.539c.505,0,1.034-.056,1.586-.167,2.146-.433,3.946-1.569,5.398-3.409,1.452-1.838,2.179-4.007,2.179-6.502,0-2.463-.727-4.32-2.179-5.577-1.114-.959-2.404-1.439-3.872-1.439-.489,0-.998.053-1.526.16-2.116.427-3.917,1.579-5.4,3.456-1.454,1.842-2.179,3.992-2.179,6.455,0,2.494.725,4.371,2.179,5.623,1.079.933,2.35,1.399,3.814,1.399M137.785,94.346h0c-.901,0-1.858.101-2.843.3-3.659.738-6.738,2.616-9.152,5.583-2.381,2.96-3.586,6.379-3.586,10.166,0,3.862,1.251,6.872,3.718,8.945,1.842,1.523,4.047,2.292,6.558,2.292.906,0,1.867-.101,2.857-.301,3.662-.738,6.726-2.615,9.106-5.578,2.407-2.923,3.631-6.348,3.631-10.171,0-3.865-1.27-6.873-3.774-8.941-1.809-1.521-4.004-2.296-6.515-2.296h0ZM133.554,115.539c-1.227,0-2.26-.378-3.161-1.156-1.233-1.063-1.833-2.654-1.833-4.867,0-2.252.642-4.161,1.964-5.835,1.344-1.701,2.918-2.714,4.813-3.096.461-.093.908-.14,1.329-.14,1.231,0,2.284.392,3.219,1.197,1.232,1.066,1.831,2.643,1.831,4.819,0,2.285-.642,4.209-1.964,5.882-1.313,1.663-2.886,2.661-4.811,3.049-.484.098-.951.147-1.388.147h0Z" fill="#231e20"/>
          </g>
          <g>
            <path d="M158.531,115.881c-2.392,0-4.489-.731-6.233-2.173-2.353-1.977-3.543-4.856-3.543-8.564,0-3.67,1.168-6.983,3.472-9.849,2.341-2.877,5.323-4.696,8.865-5.411.953-.192,1.876-.289,2.745-.289,2.391,0,4.477.734,6.2,2.184,2.38,1.966,3.588,4.844,3.588,8.553s-1.186,7.021-3.524,9.861c-2.302,2.865-5.268,4.683-8.812,5.397-.957.193-1.885.291-2.758.291ZM162.717,94.693c-.454,0-.934.051-1.428.15-1.987.4-3.706,1.503-5.107,3.275-1.374,1.741-2.071,3.81-2.071,6.146s.675,4.099,2.005,5.244c.996.86,2.136,1.278,3.488,1.278h0c.47,0,.97-.053,1.486-.157,2.018-.406,3.735-1.493,5.105-3.229,1.375-1.739,2.071-3.823,2.071-6.192,0-2.33-.656-4.03-2.006-5.198-1.029-.886-2.188-1.317-3.544-1.317Z" fill="#fff"/>
            <path d="M163.836,90.094c2.28,0,4.24.689,5.878,2.067,2.274,1.878,3.41,4.601,3.41,8.17,0,3.599-1.136,6.783-3.41,9.545-2.241,2.79-5.084,4.531-8.524,5.224-.929.187-1.816.281-2.66.281-2.283,0-4.254-.686-5.914-2.058-2.243-1.884-3.362-4.611-3.362-8.179s1.119-6.746,3.362-9.535c2.274-2.795,5.131-4.54,8.574-5.234.925-.187,1.807-.28,2.646-.28M159.605,111.287c.506,0,1.034-.056,1.586-.167,2.146-.433,3.946-1.569,5.398-3.409,1.452-1.838,2.179-4.007,2.179-6.502,0-2.463-.727-4.32-2.179-5.577-1.114-.959-2.404-1.439-3.872-1.439-.489,0-.998.053-1.526.16-2.116.427-3.917,1.579-5.4,3.456-1.454,1.842-2.179,3.992-2.179,6.455,0,2.494.725,4.371,2.179,5.623,1.079.932,2.35,1.399,3.814,1.399M163.836,89.094h0c-.901,0-1.858.101-2.843.3-3.659.738-6.738,2.616-9.152,5.583-2.381,2.96-3.586,6.379-3.586,10.166,0,3.862,1.251,6.872,3.719,8.945,1.842,1.523,4.047,2.292,6.558,2.292.906,0,1.867-.101,2.857-.301,3.662-.738,6.726-2.615,9.106-5.578,2.407-2.923,3.631-6.348,3.631-10.171,0-3.865-1.27-6.873-3.773-8.941-1.809-1.521-4.004-2.296-6.515-2.296h0ZM159.605,110.287c-1.227,0-2.261-.378-3.161-1.156-1.233-1.063-1.833-2.654-1.833-4.867,0-2.252.642-4.161,1.964-5.835,1.344-1.701,2.918-2.714,4.813-3.096.461-.093.908-.14,1.329-.14,1.231,0,2.284.392,3.219,1.197,1.232,1.066,1.831,2.643,1.831,4.819,0,2.285-.642,4.209-1.964,5.882-1.313,1.663-2.886,2.661-4.811,3.049-.484.098-.951.147-1.388.147h0Z" fill="#231e20"/>
          </g>
          <g>
            <path d="M184.243,120.926c-.349,0-.69-.015-1.026-.045-1.184-.106-2.281-.38-3.26-.811-.986-.438-1.843-1.029-2.55-1.76-.71-.739-1.256-1.619-1.625-2.617-.082-.224.004-.474.207-.599l4.12-2.536c.08-.049.171-.074.262-.074.055,0,.109.009.162.027.142.048.254.157.306.297.431,1.151,1.157,1.969,2.218,2.5.689.346,1.464.521,2.305.521.457,0,.943-.052,1.445-.153,2.24-.451,4.005-1.483,5.248-3.067,1.25-1.59,1.883-3.597,1.883-5.964v-.827c-.75.991-1.667,1.873-2.739,2.633-1.459,1.03-3.061,1.727-4.761,2.069-.758.152-1.502.23-2.212.23-2.262,0-4.292-.781-6.034-2.323-2.251-2.095-3.388-4.964-3.388-8.536,0-3.539,1.117-6.807,3.321-9.712,2.246-2.928,4.976-4.732,8.116-5.365.745-.15,1.478-.227,2.179-.227.912,0,1.798.129,2.635.383,1.132.344,2.098.892,2.883,1.632v-2.173c0-.238.168-.443.401-.49l4.168-.841c.033-.007.066-.01.099-.01.114,0,.227.039.317.113.116.095.183.236.183.387v22.216c0,3.827-1.107,7.098-3.291,9.722-2.212,2.658-5.176,4.378-8.811,5.11-.957.192-1.887.29-2.764.29ZM188.554,89.481c-.443,0-.916.05-1.404.148-1.95.393-3.619,1.483-4.959,3.24-1.345,1.768-2.027,3.835-2.027,6.143s.66,4.057,1.962,5.212c.991.9,2.119,1.337,3.451,1.337h0c.436,0,.899-.049,1.375-.146,2.013-.405,3.68-1.479,4.956-3.189,1.351-1.742,2.033-3.823,2.033-6.193,0-2.271-.662-4.026-1.969-5.216-.963-.9-2.08-1.336-3.418-1.336Z" fill="#fff"/>
            <path d="M198.609,83.588v22.216c0,3.724-1.058,6.859-3.174,9.402-2.147,2.58-4.989,4.227-8.526,4.94-.929.187-1.817.281-2.665.281-.334,0-.661-.014-.982-.043-1.136-.102-2.172-.36-3.103-.771-.932-.412-1.728-.963-2.392-1.65-.663-.689-1.167-1.501-1.514-2.442l4.12-2.536c.474,1.263,1.294,2.187,2.463,2.771.762.382,1.605.573,2.529.573.492,0,1.007-.054,1.544-.163,2.37-.478,4.217-1.56,5.542-3.249,1.327-1.688,1.99-3.78,1.99-6.273v-2.227l-.189.038c-.822,1.397-1.936,2.593-3.339,3.587-1.407.993-2.93,1.656-4.571,1.987-.729.147-1.434.221-2.114.221-2.147,0-4.047-.733-5.702-2.197-2.147-1.999-3.219-4.718-3.219-8.161s1.072-6.579,3.219-9.411c2.179-2.84,4.784-4.566,7.816-5.177.716-.144,1.409-.216,2.08-.216.868,0,1.698.12,2.491.362,1.403.427,2.517,1.173,3.339,2.239l.189-.038v-3.221l4.168-.84M185.577,106.061c.471,0,.962-.052,1.474-.155,2.148-.433,3.899-1.56,5.258-3.381,1.421-1.832,2.132-3.998,2.132-6.492,0-2.43-.711-4.292-2.132-5.586-1.046-.977-2.297-1.466-3.755-1.466-.479,0-.98.053-1.503.158-2.083.42-3.835,1.562-5.258,3.428-1.421,1.867-2.13,4.015-2.13,6.445,0,2.463.709,4.325,2.13,5.586,1.073.975,2.335,1.462,3.784,1.462M198.609,82.588c-.066,0-.132.006-.198.02l-4.168.84c-.467.094-.802.504-.802.98v1.127c-.659-.456-1.407-.811-2.237-1.064-.884-.269-1.82-.405-2.782-.405-.734,0-1.5.079-2.277.236-3.262.658-6.092,2.524-8.412,5.549-2.275,2.999-3.426,6.369-3.426,10.019,0,3.716,1.19,6.708,3.538,8.893,1.854,1.642,3.995,2.465,6.383,2.465.743,0,1.521-.081,2.312-.24,1.769-.357,3.434-1.08,4.95-2.15.713-.505,1.361-1.063,1.94-1.67-.089,2.016-.682,3.733-1.764,5.11-1.184,1.51-2.804,2.454-4.954,2.887-.47.095-.923.143-1.346.143-.773,0-1.454-.153-2.081-.467-.944-.472-1.589-1.201-1.975-2.229-.105-.28-.329-.498-.612-.595-.106-.036-.215-.054-.324-.054-.183,0-.365.05-.524.148l-4.12,2.536c-.406.25-.579.751-.414,1.197.392,1.065.975,2.003,1.732,2.79.755.781,1.666,1.409,2.708,1.871,1.031.454,2.18.741,3.418.852.349.031.71.047,1.071.047.911,0,1.874-.101,2.862-.3,3.749-.756,6.81-2.532,9.097-5.281,2.26-2.715,3.406-6.094,3.406-10.041v-22.216c0-.3-.135-.584-.367-.774-.18-.148-.404-.226-.633-.226h0ZM185.577,105.061c-1.203,0-2.221-.393-3.112-1.203-1.216-1.079-1.802-2.662-1.802-4.846,0-2.227.63-4.137,1.926-5.84,1.282-1.681,2.806-2.679,4.659-3.053.456-.092.895-.138,1.306-.138,1.205,0,2.21.391,3.072,1.197,1.224,1.115,1.815,2.7,1.815,4.855,0,2.257-.647,4.235-1.922,5.88-1.228,1.647-2.751,2.627-4.665,3.013-.444.089-.873.135-1.276.135h0Z" fill="#231e20"/>
          </g>
          <g>
            <path d="M202.824,106.448c-.114,0-.227-.039-.317-.113-.116-.095-.183-.236-.183-.387v-33.914c0-.238.168-.443.401-.49l4.357-.879c.033-.007.066-.01.099-.01.114,0,.227.039.317.113.116.095.183.236.183.387v33.914c0,.238-.168.443-.401.49l-4.357.879c-.033.007-.066.01-.099.01Z" fill="#fff"/>
            <path d="M207.181,71.155v33.914l-4.357.878v-33.914l4.357-.879M207.181,70.155c-.066,0-.132.006-.198.02l-4.357.879c-.467.094-.802.504-.802.98v33.914c0,.3.135.584.367.774.18.148.405.226.633.226.066,0,.132-.006.198-.02l4.357-.878c.467-.094.802-.504.802-.98v-33.914c0-.3-.135-.584-.367-.774-.18-.148-.404-.226-.633-.226h0Z" fill="#231e20"/>
          </g>
          <g>
            <path d="M219.594,103.576c-2.379,0-4.45-.741-6.155-2.202-2.315-1.981-3.49-4.864-3.49-8.568,0-3.634,1.118-6.927,3.324-9.787,2.215-2.872,5.087-4.681,8.539-5.376.979-.197,1.919-.298,2.793-.298,2.325,0,4.296.705,5.857,2.097,2.138,1.906,3.222,4.973,3.222,9.112l-.049.531c-.021.22-.183.398-.399.442l-17.814,3.591c.134,1.905.808,3.292,2.055,4.232.978.739,2.067,1.099,3.328,1.099.471,0,.97-.053,1.483-.156,2.607-.526,4.69-2.283,6.189-5.224.087-.17.261-.272.445-.272.046,0,.092.006.138.02l3.884,1.113c.142.04.258.142.318.276.061.134.059.288-.005.421-1.072,2.226-2.577,4.123-4.473,5.641-1.902,1.521-4.085,2.538-6.489,3.023-.938.189-1.847.285-2.7.285ZM223.648,82.433c-.531,0-1.114.063-1.733.188-1.53.309-2.867,1.057-3.975,2.224-.944.997-1.625,2.19-2.028,3.555l12.081-2.436c-.189-1.22-.748-2.137-1.7-2.795-.707-.488-1.596-.736-2.644-.736Z" fill="#fff"/>
            <path d="M224.604,77.845c2.209,0,4.051.657,5.525,1.97,2.036,1.817,3.055,4.73,3.055,8.739l-.047.483-18.236,3.677c.064,2.261.82,3.941,2.274,5.037,1.058.799,2.268,1.199,3.628,1.199.507,0,1.034-.055,1.582-.166,2.777-.56,4.956-2.389,6.536-5.486l3.884,1.113c-1.042,2.167-2.487,3.99-4.335,5.467-1.847,1.477-3.939,2.453-6.276,2.924-.909.183-1.777.275-2.601.275-2.266,0-4.209-.693-5.83-2.081-2.21-1.891-3.315-4.621-3.315-8.189,0-3.535,1.072-6.697,3.219-9.482,2.148-2.785,4.895-4.517,8.241-5.191.952-.192,1.85-.288,2.694-.288M215.232,89.047l13.31-2.683c-.127-1.584-.781-2.786-1.965-3.606-.796-.55-1.772-.825-2.93-.825-.567,0-1.177.066-1.83.198-1.643.331-3.055,1.122-4.24,2.371-1.185,1.25-1.965,2.764-2.345,4.546M224.604,76.845c-.907,0-1.88.103-2.891.307-3.573.72-6.546,2.591-8.836,5.561-2.274,2.95-3.428,6.345-3.428,10.093,0,3.857,1.233,6.868,3.665,8.949,1.798,1.54,3.979,2.321,6.48,2.321.886,0,1.828-.099,2.798-.295,2.482-.5,4.737-1.551,6.703-3.123,1.956-1.565,3.508-3.521,4.611-5.815.128-.266.132-.574.011-.843-.121-.269-.354-.471-.637-.552l-3.884-1.113c-.091-.026-.184-.039-.276-.039-.368,0-.716.204-.891.546-1.447,2.837-3.359,4.459-5.843,4.96-.481.097-.947.146-1.385.146-1.148,0-2.138-.326-3.026-.997-1.029-.776-1.627-1.904-1.816-3.433l17.373-3.502c.431-.087.755-.446.798-.884l.047-.483c.003-.032.005-.064.005-.097,0-4.288-1.14-7.479-3.389-9.485-1.656-1.476-3.738-2.224-6.191-2.224h0ZM216.667,87.738c.384-.957.925-1.799,1.635-2.548,1.05-1.107,2.264-1.787,3.711-2.078.586-.118,1.135-.178,1.633-.178.958,0,1.731.212,2.361.648.707.489,1.167,1.145,1.392,1.993l-10.733,2.164h0Z" fill="#231e20"/>
          </g>
          <g>
            <path d="M247.394,97.462c-.114,0-.227-.039-.317-.113-.116-.095-.183-.236-.183-.387v-33.914c0-.238.168-.443.401-.49l10.374-2.091c1.553-.313,3.04-.472,4.417-.472,3.327,0,6.177.923,8.473,2.744,3.253,2.582,4.903,6.521,4.903,11.709s-1.625,9.744-4.831,13.562c-3.201,3.815-7.496,6.289-12.765,7.352l-10.374,2.091c-.033.007-.066.01-.099.01ZM252.251,91.304l5.417-1.092c3.812-.768,6.855-2.482,9.046-5.098,2.186-2.609,3.293-5.896,3.293-9.769,0-3.801-1.084-6.594-3.222-8.301-1.484-1.183-3.383-1.783-5.646-1.783-1.009,0-2.11.119-3.274.354l-5.615,1.132v24.557Z" fill="#fff"/>
            <path d="M262.086,60.495c3.226,0,5.946.879,8.162,2.636,3.141,2.492,4.713,6.264,4.713,11.317,0,5.084-1.572,9.498-4.713,13.24-3.143,3.746-7.303,6.139-12.481,7.182l-10.373,2.091v-33.914l10.373-2.091c1.528-.308,2.968-.462,4.319-.462M251.751,91.915l6.016-1.213c3.946-.796,7.057-2.552,9.331-5.267s3.41-6.079,3.41-10.089c0-3.979-1.136-6.876-3.41-8.692-1.581-1.261-3.567-1.893-5.957-1.893-1.047,0-2.171.121-3.373.363l-6.016,1.213v25.577M262.086,59.495h0c-1.411,0-2.931.162-4.517.482l-10.373,2.091c-.467.094-.802.504-.802.98v33.914c0,.3.135.584.367.774.18.148.405.226.633.226.066,0,.132-.006.198-.02l10.373-2.091c5.382-1.085,9.773-3.615,13.049-7.52,3.283-3.91,4.947-8.581,4.947-13.883,0-5.349-1.713-9.42-5.091-12.1-2.386-1.893-5.341-2.853-8.783-2.853h0ZM252.751,67.157l5.213-1.051c1.131-.228,2.2-.344,3.176-.344,2.176,0,3.921.548,5.334,1.674,2.041,1.63,3.034,4.217,3.034,7.91,0,3.752-1.069,6.93-3.177,9.447-2.115,2.525-5.063,4.183-8.762,4.929l-4.818.971v-23.537h0Z" fill="#231e20"/>
          </g>
          <g>
            <path d="M286.946,89.997c-2.378,0-4.449-.741-6.154-2.201-2.315-1.982-3.49-4.865-3.49-8.569,0-3.634,1.118-6.927,3.323-9.787,2.214-2.871,5.086-4.68,8.539-5.376.979-.197,1.919-.298,2.793-.298,2.326,0,4.296.705,5.857,2.097,2.138,1.907,3.222,4.974,3.222,9.112l-.049.531c-.021.22-.183.398-.399.442l-17.814,3.592c.133,1.905.808,3.292,2.054,4.231.979.739,2.067,1.099,3.329,1.099.471,0,.97-.053,1.483-.156,2.606-.525,4.689-2.282,6.189-5.224.087-.17.261-.272.445-.272.046,0,.092.006.138.02l3.884,1.113c.142.04.258.142.318.275.061.135.059.289-.005.422-1.071,2.226-2.576,4.123-4.473,5.641-1.903,1.521-4.086,2.539-6.49,3.023-.938.189-1.846.285-2.7.285ZM290.999,68.854c-.531,0-1.113.062-1.73.188-1.531.309-2.868,1.057-3.976,2.225-.944.997-1.625,2.189-2.028,3.554l12.081-2.435c-.189-1.22-.748-2.137-1.7-2.795-.708-.489-1.598-.736-2.646-.736Z" fill="#fff"/>
            <path d="M291.956,64.266c2.21,0,4.052.657,5.525,1.97,2.036,1.817,3.055,4.73,3.055,8.739l-.047.483-18.236,3.677c.064,2.261.82,3.941,2.274,5.037,1.058.799,2.267,1.199,3.628,1.199.507,0,1.034-.055,1.583-.166,2.777-.56,4.956-2.389,6.536-5.486l3.884,1.113c-1.042,2.167-2.487,3.99-4.335,5.467s-3.939,2.453-6.276,2.924c-.909.183-1.777.275-2.601.275-2.266,0-4.209-.693-5.83-2.081-2.21-1.891-3.315-4.621-3.315-8.189,0-3.535,1.072-6.697,3.22-9.482,2.147-2.785,4.895-4.517,8.241-5.192.951-.192,1.849-.288,2.694-.288M282.584,75.468l13.31-2.683c-.127-1.584-.781-2.786-1.965-3.606-.796-.55-1.772-.825-2.93-.825-.567,0-1.177.066-1.83.198-1.643.331-3.055,1.122-4.239,2.371-1.185,1.25-1.965,2.764-2.345,4.546M291.956,63.266c-.907,0-1.879.104-2.891.307-3.573.72-6.546,2.591-8.836,5.561-2.274,2.95-3.428,6.345-3.428,10.093,0,3.857,1.233,6.868,3.665,8.948,1.798,1.54,3.979,2.322,6.48,2.322.886,0,1.828-.099,2.798-.295,2.482-.5,4.737-1.551,6.703-3.123,1.956-1.565,3.508-3.521,4.611-5.815.128-.266.132-.574.011-.843-.121-.269-.354-.471-.637-.552l-3.884-1.113c-.091-.026-.184-.039-.276-.039-.368,0-.717.204-.891.546-1.447,2.837-3.359,4.459-5.843,4.96-.481.097-.947.146-1.385.146-1.148,0-2.138-.326-3.025-.997-1.029-.776-1.627-1.904-1.816-3.433l17.373-3.503c.431-.087.755-.446.798-.884l.047-.483c.003-.032.005-.064.005-.097,0-4.288-1.14-7.479-3.389-9.485-1.656-1.476-3.739-2.224-6.191-2.224h0ZM284.02,74.159c.384-.957.925-1.799,1.636-2.548,1.05-1.107,2.264-1.787,3.711-2.078.586-.118,1.135-.178,1.633-.178.958,0,1.731.212,2.361.648.707.489,1.167,1.145,1.392,1.993l-10.733,2.164h0Z" fill="#231e20"/>
          </g>
          <g>
            <path d="M310.484,84.742c-.195,0-.376-.114-.458-.299l-9.379-21.318c-.061-.139-.056-.297.014-.432.07-.134.197-.229.345-.26l4.737-.955c.033-.007.066-.01.099-.01.2,0,.384.12.462.311l6.372,15.529,6.525-18.296c.059-.165.2-.287.373-.322l4.642-.936c.033-.007.066-.01.099-.01.145,0,.285.063.381.176.118.139.151.33.087.501l-9.473,25.119c-.061.161-.2.279-.369.313l-4.357.878c-.033.007-.066.01-.099.01Z" fill="#fff"/>
            <path d="M324.315,58.245l-9.473,25.119-4.357.879-9.379-21.319,4.737-.955,6.821,16.624.094-.019,6.916-19.393,4.642-.936M324.315,57.245c-.066,0-.132.006-.198.02l-4.642.936c-.344.069-.626.314-.744.644l-6.087,17.067-5.877-14.323c-.156-.381-.526-.62-.925-.62-.065,0-.132.006-.198.02l-4.737.955c-.297.06-.551.251-.69.52-.139.269-.15.586-.028.863l9.379,21.319c.162.368.525.597.915.597.066,0,.132-.006.198-.02l4.357-.879c.338-.068.617-.305.738-.627l9.473-25.119c.128-.34.062-.724-.174-1.001-.192-.226-.472-.352-.762-.352h0ZM324.315,59.245h.005-.005Z" fill="#231e20"/>
          </g>
          <g>
            <path d="M334.738,80.362c-2.379,0-4.45-.741-6.155-2.202-2.315-1.981-3.49-4.864-3.49-8.568,0-3.634,1.118-6.927,3.324-9.787,2.214-2.872,5.087-4.681,8.539-5.377.979-.197,1.918-.297,2.791-.297,2.326,0,4.297.705,5.859,2.097,2.138,1.907,3.222,4.973,3.222,9.112l-.049.531c-.021.219-.183.397-.399.441l-17.815,3.592c.134,1.904.809,3.292,2.055,4.232.978.739,2.067,1.099,3.328,1.099.471,0,.97-.053,1.483-.156,2.607-.526,4.69-2.283,6.189-5.224.087-.17.261-.272.445-.272.045,0,.092.006.138.02l3.884,1.112c.142.04.258.142.318.275.061.135.059.289-.005.422-1.071,2.227-2.576,4.124-4.473,5.642-1.901,1.521-4.085,2.538-6.489,3.023-.938.189-1.847.285-2.7.285ZM338.792,59.219c-.531,0-1.114.063-1.733.188-1.529.309-2.867,1.057-3.976,2.225-.944.996-1.625,2.188-2.028,3.554l12.081-2.436c-.189-1.219-.748-2.136-1.701-2.795-.706-.488-1.595-.736-2.644-.736Z" fill="#fff"/>
            <path d="M339.748,54.631c2.21,0,4.051.657,5.525,1.97,2.036,1.817,3.055,4.73,3.055,8.739l-.047.483-18.236,3.677c.064,2.261.82,3.941,2.274,5.037,1.058.799,2.267,1.199,3.628,1.199.507,0,1.034-.055,1.582-.166,2.777-.56,4.956-2.389,6.536-5.486l3.884,1.113c-1.043,2.167-2.487,3.99-4.335,5.467-1.847,1.477-3.939,2.453-6.276,2.924-.91.183-1.777.275-2.601.275-2.266,0-4.209-.693-5.83-2.081-2.21-1.891-3.315-4.621-3.315-8.189,0-3.535,1.072-6.697,3.219-9.482,2.148-2.785,4.895-4.517,8.241-5.192.951-.192,1.85-.288,2.694-.288M330.376,65.833l13.31-2.683c-.127-1.584-.781-2.786-1.965-3.606-.795-.55-1.772-.825-2.929-.825-.567,0-1.177.066-1.83.198-1.643.331-3.055,1.122-4.24,2.371-1.185,1.25-1.965,2.764-2.345,4.546M339.748,53.631c-.907,0-1.88.103-2.891.307-3.573.72-6.546,2.591-8.836,5.561-2.274,2.95-3.428,6.345-3.428,10.092,0,3.857,1.233,6.868,3.665,8.949,1.798,1.54,3.979,2.321,6.48,2.321.886,0,1.828-.099,2.798-.295,2.482-.5,4.738-1.551,6.703-3.123,1.956-1.565,3.508-3.521,4.611-5.815.128-.266.132-.574.011-.843-.121-.269-.354-.471-.637-.552l-3.884-1.113c-.091-.026-.184-.039-.276-.039-.368,0-.716.204-.891.546-1.447,2.837-3.359,4.459-5.843,4.96-.481.097-.947.146-1.385.146-1.148,0-2.138-.326-3.026-.997-1.029-.776-1.627-1.904-1.816-3.433l17.373-3.502c.431-.087.755-.446.798-.884l.047-.483c.003-.032.005-.064.005-.097,0-4.288-1.14-7.479-3.389-9.485-1.656-1.476-3.738-2.224-6.191-2.224h0ZM331.811,64.524c.384-.957.925-1.799,1.635-2.548,1.05-1.107,2.264-1.787,3.711-2.078.586-.118,1.135-.178,1.633-.178.958,0,1.73.212,2.361.648.707.489,1.167,1.145,1.393,1.993l-10.733,2.164h0Z" fill="#231e20"/>
          </g>
          <g>
            <path d="M351.831,76.407c-.114,0-.227-.039-.317-.113-.116-.095-.183-.236-.183-.387v-33.914c0-.238.168-.443.401-.49l4.357-.879c.033-.007.066-.01.099-.01.114,0,.227.039.317.113.116.095.183.236.183.387v33.914c0,.238-.168.443-.401.49l-4.357.879c-.033.007-.066.01-.099.01Z" fill="#fff"/>
            <path d="M356.189,41.114v33.914l-4.357.879v-33.914l4.357-.878M356.189,40.114c-.066,0-.132.006-.198.02l-4.357.878c-.467.094-.802.504-.802.98v33.914c0,.3.135.584.367.774.18.148.404.226.633.226.066,0,.132-.006.198-.02l4.357-.879c.467-.094.802-.504.802-.98v-33.914c0-.3-.135-.584-.367-.774-.18-.148-.405-.226-.633-.226h0Z" fill="#231e20"/>
          </g>
          <g>
            <path d="M368.735,73.502c-2.392,0-4.489-.731-6.233-2.173-2.353-1.977-3.543-4.856-3.543-8.564,0-3.67,1.168-6.983,3.472-9.849,2.341-2.877,5.323-4.697,8.866-5.411.953-.192,1.876-.289,2.744-.289,2.391,0,4.477.734,6.2,2.184,2.38,1.966,3.588,4.844,3.588,8.553s-1.186,7.021-3.524,9.861c-2.302,2.865-5.268,4.683-8.812,5.397-.957.193-1.885.291-2.758.291ZM372.922,52.314c-.454,0-.934.051-1.428.15-1.988.4-3.706,1.503-5.107,3.275-1.374,1.741-2.071,3.81-2.071,6.146s.675,4.099,2.005,5.244c.996.86,2.136,1.278,3.488,1.278h0c.47,0,.97-.053,1.487-.157,2.017-.406,3.734-1.493,5.104-3.229,1.375-1.739,2.071-3.823,2.071-6.192,0-2.33-.656-4.03-2.006-5.198-1.029-.886-2.188-1.317-3.544-1.317Z" fill="#fff"/>
            <path d="M374.04,47.715c2.28,0,4.24.689,5.878,2.067,2.274,1.878,3.41,4.601,3.41,8.17,0,3.599-1.136,6.783-3.41,9.545-2.241,2.79-5.084,4.531-8.524,5.224-.929.187-1.816.281-2.66.281-2.283,0-4.254-.686-5.915-2.058-2.243-1.884-3.362-4.611-3.362-8.179s1.119-6.746,3.362-9.535c2.274-2.795,5.131-4.54,8.574-5.234.925-.187,1.807-.28,2.646-.28M369.809,68.908c.506,0,1.034-.056,1.586-.167,2.146-.432,3.946-1.569,5.398-3.409,1.452-1.838,2.179-4.007,2.179-6.502,0-2.463-.727-4.32-2.179-5.577-1.114-.959-2.404-1.439-3.872-1.439-.489,0-.998.053-1.526.16-2.116.427-3.917,1.579-5.4,3.456-1.454,1.842-2.179,3.992-2.179,6.455,0,2.495.725,4.371,2.179,5.623,1.079.932,2.35,1.399,3.814,1.399M374.04,46.715h0c-.901,0-1.858.101-2.843.3-3.659.738-6.738,2.616-9.152,5.583-2.381,2.96-3.586,6.379-3.586,10.166,0,3.862,1.251,6.872,3.719,8.945,1.842,1.523,4.047,2.292,6.558,2.292.906,0,1.867-.101,2.857-.301,3.662-.738,6.726-2.615,9.106-5.578,2.406-2.923,3.631-6.348,3.631-10.171,0-3.865-1.27-6.873-3.774-8.941-1.809-1.521-4.003-2.296-6.515-2.296h0ZM369.809,67.908c-1.227,0-2.261-.378-3.161-1.156-1.233-1.063-1.833-2.654-1.833-4.867,0-2.252.642-4.161,1.964-5.835,1.344-1.701,2.918-2.714,4.813-3.096.461-.093.908-.14,1.329-.14,1.231,0,2.284.392,3.219,1.197,1.232,1.066,1.831,2.643,1.831,4.819,0,2.285-.642,4.209-1.964,5.882-1.313,1.664-2.886,2.661-4.811,3.049-.484.098-.951.147-1.388.147h0Z" fill="#231e20"/>
          </g>
          <g>
            <path d="M386.41,79.666c-.114,0-.227-.039-.317-.113-.116-.095-.183-.236-.183-.387v-33.44c0-.238.168-.443.401-.49l4.168-.84c.033-.007.066-.01.099-.01.114,0,.227.039.317.113.116.095.183.236.183.387v1.791c.708-.947,1.593-1.805,2.641-2.559,1.459-1.046,3.094-1.757,4.859-2.113.758-.153,1.501-.23,2.208-.23,2.281,0,4.3.804,6,2.39,2.273,2.079,3.427,4.93,3.427,8.469s-1.134,6.811-3.372,9.727c-2.179,2.91-4.894,4.712-8.065,5.352-.772.155-1.528.234-2.246.234-.934,0-1.832-.134-2.669-.397-1.075-.339-1.984-.853-2.714-1.531l.119,2.011v10.261c0,.238-.167.443-.4.49l-4.357.878c-.033.007-.066.01-.099.01ZM399.441,46.963c-.437,0-.899.049-1.376.145-1.983.4-3.667,1.494-5.005,3.25-1.314,1.759-1.981,3.823-1.981,6.133s.647,4.084,1.925,5.277c.966.857,2.09,1.278,3.427,1.278h0c.455,0,.938-.051,1.437-.151,1.952-.394,3.621-1.484,4.958-3.24,1.348-1.739,2.03-3.806,2.03-6.144,0-2.271-.662-4.026-1.968-5.216-.985-.896-2.113-1.332-3.446-1.332Z" fill="#fff"/>
            <path d="M400.785,42.274c2.161,0,4.048.752,5.66,2.256,2.179,1.993,3.268,4.693,3.268,8.103,0,3.443-1.089,6.582-3.268,9.422-2.116,2.826-4.706,4.548-7.768,5.166-.744.15-1.461.225-2.148.225-.887,0-1.727-.125-2.518-.374-1.405-.443-2.486-1.188-3.244-2.236l-.189.038.189,3.183v10.231l-4.357.879v-33.44l4.168-.84v3.221l.189-.038c.758-1.352,1.839-2.534,3.244-3.544,1.405-1.008,2.961-1.686,4.666-2.03.729-.147,1.432-.22,2.108-.221M396.429,63.546c.49,0,1.003-.054,1.537-.162,2.085-.42,3.837-1.563,5.258-3.428,1.421-1.834,2.132-3.982,2.132-6.446,0-2.43-.711-4.292-2.132-5.586-1.072-.975-2.333-1.463-3.783-1.463-.472,0-.963.052-1.475.155-2.115.426-3.884,1.572-5.305,3.437-1.389,1.86-2.083,4.005-2.083,6.436,0,2.463.694,4.344,2.083,5.643,1.062.942,2.318,1.413,3.767,1.413M400.785,41.274h0c-.739,0-1.515.081-2.306.24-1.835.37-3.535,1.11-5.052,2.198-.684.492-1.302,1.027-1.85,1.601v-.428c0-.3-.135-.584-.367-.774-.18-.148-.405-.226-.633-.226-.066,0-.132.006-.198.02l-4.168.84c-.467.094-.802.504-.802.98v33.44c0,.3.135.584.367.774.18.148.405.226.633.226.066,0,.132-.006.198-.02l4.357-.879c.467-.094.802-.504.802-.98v-10.231c0-.02,0-.04-.002-.059l-.054-.906c.591.388,1.258.7,1.998.933.887.279,1.835.42,2.819.42.751,0,1.54-.082,2.345-.245,3.296-.664,6.112-2.531,8.37-5.546,2.299-2.996,3.468-6.371,3.468-10.022,0-3.686-1.209-6.66-3.593-8.841-1.788-1.668-3.922-2.518-6.335-2.518h0ZM396.429,62.546c-1.208,0-2.223-.38-3.104-1.161-1.169-1.093-1.747-2.7-1.747-4.895,0-2.23.616-4.14,1.885-5.837,1.274-1.673,2.814-2.675,4.701-3.055.444-.089.874-.135,1.277-.135,1.203,0,2.22.393,3.11,1.202,1.214,1.106,1.805,2.691,1.805,4.846,0,2.255-.629,4.163-1.922,5.833-1.285,1.687-2.809,2.686-4.665,3.06-.467.094-.918.142-1.339.142h0Z" fill="#231e20"/>
          </g>
          <g>
            <path d="M421.985,62.772c-2.379,0-4.45-.741-6.155-2.202-2.315-1.981-3.49-4.864-3.49-8.568,0-3.634,1.118-6.927,3.323-9.787,2.215-2.872,5.087-4.681,8.539-5.376.979-.197,1.919-.298,2.793-.298,2.326,0,4.296.705,5.857,2.097,2.138,1.906,3.222,4.973,3.222,9.112l-.049.531c-.021.22-.183.398-.399.442l-17.814,3.591c.134,1.905.809,3.292,2.055,4.232.978.739,2.066,1.099,3.328,1.099.471,0,.97-.053,1.483-.156,2.607-.526,4.689-2.283,6.189-5.224.087-.17.261-.272.445-.272.046,0,.092.006.138.02l3.884,1.113c.142.04.258.142.318.276.061.134.059.288-.005.421-1.071,2.226-2.576,4.123-4.473,5.641-1.901,1.521-4.084,2.538-6.489,3.023-.938.189-1.847.285-2.7.285ZM426.039,41.629c-.531,0-1.114.063-1.733.188-1.53.309-2.867,1.057-3.975,2.224-.944.997-1.625,2.189-2.028,3.555l12.081-2.436c-.189-1.219-.748-2.137-1.7-2.795-.706-.488-1.596-.736-2.644-.736Z" fill="#fff"/>
            <path d="M426.995,37.041c2.21,0,4.052.657,5.525,1.97,2.036,1.817,3.055,4.73,3.055,8.739l-.047.483-18.236,3.677c.064,2.261.82,3.94,2.274,5.037,1.058.799,2.267,1.199,3.628,1.199.506,0,1.034-.055,1.583-.166,2.777-.56,4.956-2.389,6.536-5.486l3.884,1.113c-1.042,2.167-2.487,3.99-4.335,5.467s-3.939,2.453-6.276,2.924c-.909.183-1.777.275-2.601.275-2.266,0-4.209-.693-5.83-2.081-2.21-1.891-3.315-4.621-3.315-8.189,0-3.535,1.072-6.697,3.219-9.482,2.148-2.785,4.895-4.517,8.241-5.192.951-.192,1.849-.288,2.694-.288M417.623,48.243l13.31-2.683c-.127-1.584-.781-2.786-1.965-3.606-.796-.55-1.772-.825-2.93-.825-.567,0-1.177.066-1.83.198-1.643.331-3.055,1.122-4.24,2.371-1.185,1.25-1.965,2.764-2.345,4.546M426.995,36.041c-.907,0-1.879.103-2.891.307-3.573.72-6.546,2.591-8.836,5.561-2.274,2.95-3.428,6.345-3.428,10.093,0,3.857,1.233,6.868,3.665,8.948,1.798,1.54,3.979,2.322,6.48,2.322.886,0,1.828-.099,2.798-.295,2.482-.5,4.737-1.551,6.703-3.123,1.956-1.565,3.508-3.521,4.611-5.815.128-.266.132-.574.011-.843-.121-.269-.354-.471-.637-.552l-3.884-1.113c-.092-.026-.184-.039-.276-.039-.368,0-.716.204-.891.546-1.447,2.837-3.359,4.459-5.843,4.96-.481.097-.947.146-1.385.146-1.148,0-2.138-.326-3.026-.997-1.029-.776-1.627-1.904-1.816-3.433l17.373-3.503c.431-.087.755-.446.798-.884l.047-.483c.003-.032.005-.064.005-.096,0-4.288-1.14-7.479-3.389-9.485-1.656-1.476-3.739-2.224-6.191-2.224h0ZM419.059,46.934c.384-.957.925-1.799,1.635-2.548,1.05-1.107,2.265-1.787,3.711-2.078.586-.118,1.135-.178,1.633-.178.958,0,1.73.212,2.361.648.707.489,1.167,1.145,1.392,1.993l-10.733,2.164h0Z" fill="#231e20"/>
          </g>
          <g>
            <path d="M439.079,58.817c-.114,0-.227-.039-.317-.113-.116-.095-.183-.236-.183-.387v-23.21c0-.238.168-.443.401-.49l4.168-.841c.033-.007.066-.01.099-.01.114,0,.227.039.317.113.116.095.183.236.183.387v1.977c.521-.808,1.22-1.579,2.092-2.307,1.435-1.195,2.872-1.944,4.272-2.227.735-.147,1.421-.223,2.039-.223.499,0,.967.049,1.392.146.135.03.251.115.321.234s.087.263.048.395l-1.327,4.482c-.064.216-.262.358-.479.358-.034,0-.068-.003-.102-.011-.14-.028-.314-.043-.519-.043-.467,0-1.086.077-1.839.229-1.514.305-2.856,1.203-3.991,2.67-1.141,1.474-1.719,3.056-1.719,4.703v12.788c0,.238-.168.443-.401.49l-4.357.879c-.033.007-.066.01-.099.01Z" fill="#fff"/>
            <path d="M452.151,31.987c.464,0,.89.044,1.281.133l-1.327,4.483c-.174-.036-.381-.054-.62-.054-.501,0-1.146.079-1.936.239-1.643.331-3.072,1.282-4.288,2.854-1.216,1.57-1.823,3.24-1.823,5.009v12.788l-4.357.878v-23.209l4.168-.84v3.79l.189-.038c.442-1.321,1.349-2.553,2.723-3.699,1.374-1.144,2.723-1.852,4.05-2.119.706-.142,1.353-.214,1.941-.214M452.151,30.987c-.651,0-1.37.078-2.138.233-1.483.299-2.995,1.083-4.493,2.331-.473.394-.897.801-1.272,1.221v-.505c0-.3-.135-.584-.367-.774-.18-.148-.405-.226-.633-.226-.066,0-.132.006-.198.02l-4.168.84c-.467.094-.802.504-.802.98v23.209c0,.3.135.584.367.774.18.148.405.226.633.226.066,0,.132-.006.198-.02l4.357-.878c.467-.094.802-.504.802-.98v-12.788c0-1.557.528-2.995,1.614-4.397,1.074-1.388,2.282-2.201,3.695-2.486.72-.145,1.305-.219,1.739-.219.212,0,.344.018.417.033.068.014.137.021.204.021.434,0,.83-.284.958-.716l1.327-4.483c.078-.265.044-.55-.096-.789-.14-.238-.372-.409-.641-.47-.461-.105-.966-.158-1.503-.158h0Z" fill="#231e20"/>
          </g>
          <g>
            <path d="M477.73,51.417c-3.413,0-6.451-1.044-9.028-3.102-3.519-2.81-5.304-6.833-5.304-11.958,0-5.087,1.76-9.781,5.231-13.952,3.468-4.168,7.771-6.795,12.791-7.807,1.355-.273,2.691-.412,3.97-.412,1.119,0,2.224.106,3.283.316,2.292.455,4.207,1.387,5.691,2.767.194.181.214.482.044.687l-3.127,3.757c-.09.108-.222.173-.363.18h-.021c-.133,0-.262-.054-.355-.148-.968-.979-2.247-1.654-3.804-2.008-.784-.178-1.608-.268-2.448-.268-.856,0-1.755.094-2.671.278-3.561.718-6.621,2.588-9.093,5.559-2.436,2.988-3.673,6.405-3.673,10.153,0,3.71,1.213,6.59,3.606,8.56,1.769,1.412,3.864,2.131,6.22,2.131.869,0,1.792-.098,2.743-.289,3.261-.657,6.009-2.137,8.168-4.396,2.002-2.097,3.233-4.659,3.664-7.627l-11.635,2.346c-.033.007-.066.01-.099.01-.114,0-.227-.039-.317-.113-.116-.095-.183-.236-.183-.387v-4.072c0-.238.168-.443.401-.49l16.436-3.313c.033-.007.066-.01.099-.01.099,0,.197.029.28.086.111.075.188.191.212.323.162.876.244,1.751.244,2.602,0,4.834-1.457,9.036-4.331,12.489-3.211,4.052-7.501,6.646-12.742,7.702-1.343.271-2.651.408-3.887.408Z" fill="#fff"/>
            <path d="M485.389,14.687c1.093,0,2.155.102,3.186.306,2.21.439,4.026,1.32,5.448,2.643l-3.128,3.756c-1.041-1.053-2.392-1.768-4.049-2.143-.824-.187-1.677-.281-2.558-.281-.894,0-1.817.096-2.77.288-3.695.745-6.821,2.655-9.379,5.728-2.526,3.099-3.788,6.59-3.788,10.474s1.263,6.866,3.788,8.945c1.875,1.497,4.054,2.245,6.538,2.245.906,0,1.853-.1,2.841-.299,3.379-.681,6.189-2.195,8.43-4.541,2.243-2.348,3.537-5.213,3.884-8.599l-12.314,2.483v-4.073l16.436-3.314c.158.853.236,1.689.236,2.511,0,4.736-1.405,8.793-4.215,12.17-3.157,3.983-7.31,6.494-12.456,7.531-1.317.266-2.579.398-3.788.398-3.313,0-6.219-.998-8.717-2.993-3.41-2.723-5.115-6.579-5.115-11.567s1.705-9.534,5.115-13.632c3.41-4.098,7.579-6.643,12.505-7.637,1.33-.268,2.621-.402,3.87-.402M485.389,13.687c-1.311,0-2.68.142-4.068.422-5.133,1.035-9.532,3.719-13.076,7.977-3.548,4.263-5.347,9.065-5.347,14.271,0,5.285,1.848,9.44,5.492,12.349,2.669,2.131,5.812,3.211,9.341,3.211,1.269,0,2.61-.141,3.985-.418,5.36-1.081,9.749-3.735,13.042-7.89,2.935-3.527,4.432-7.837,4.432-12.791,0-.881-.085-1.787-.253-2.693-.049-.263-.201-.496-.423-.646-.167-.113-.362-.172-.56-.172-.066,0-.132.006-.198.02l-16.436,3.314c-.467.094-.802.504-.802.98v4.073c0,.3.135.584.367.774.18.148.405.226.633.226.066,0,.132-.006.198-.02l10.921-2.202c-.499,2.565-1.643,4.796-3.411,6.647-2.086,2.184-4.746,3.615-7.905,4.251-.918.185-1.807.279-2.643.279-2.272,0-4.207-.663-5.914-2.026-2.292-1.887-3.412-4.56-3.412-8.163,0-3.63,1.199-6.941,3.564-9.843,2.391-2.872,5.355-4.684,8.802-5.379.884-.178,1.75-.269,2.573-.269.803,0,1.59.086,2.337.256,1.462.332,2.66.961,3.559,1.871.188.19.445.297.711.297.014,0,.028,0,.043,0,.282-.012.545-.143.726-.359l3.128-3.756c.34-.408.301-1.01-.088-1.372-1.554-1.445-3.55-2.418-5.935-2.892-1.092-.216-2.229-.326-3.381-.326h0Z" fill="#231e20"/>
          </g>
          <g>
            <path d="M502.263,46.078c-.114,0-.227-.039-.317-.113-.116-.095-.183-.236-.183-.387v-23.209c0-.238.168-.443.401-.49l4.168-.841c.033-.007.066-.01.099-.01.114,0,.227.039.317.113.116.095.183.236.183.387v1.977c.52-.808,1.22-1.58,2.092-2.308,1.435-1.194,2.872-1.943,4.272-2.226.737-.148,1.423-.224,2.04-.224.5,0,.967.05,1.391.146.135.03.25.115.32.235.07.119.087.262.048.394l-1.327,4.482c-.064.216-.262.358-.479.358-.034,0-.068-.003-.102-.011-.14-.028-.314-.043-.518-.043-.467,0-1.086.077-1.839.229-1.515.305-2.857,1.203-3.991,2.669-1.141,1.473-1.719,3.056-1.719,4.704v12.788c0,.238-.168.443-.401.49l-4.357.878c-.033.007-.066.01-.099.01Z" fill="#fff"/>
            <path d="M515.335,19.249c.464,0,.891.044,1.281.133l-1.327,4.483c-.174-.036-.381-.054-.62-.054-.501,0-1.147.079-1.936.239-1.643.331-3.072,1.282-4.288,2.854-1.216,1.57-1.823,3.24-1.823,5.009v12.788l-4.357.879v-23.21l4.168-.84v3.79l.189-.038c.442-1.321,1.35-2.553,2.723-3.699,1.374-1.144,2.723-1.852,4.05-2.119.706-.142,1.353-.214,1.941-.214M515.335,18.249c-.651,0-1.37.078-2.138.233-1.483.299-2.995,1.083-4.493,2.331-.472.394-.897.802-1.272,1.221v-.505c0-.3-.135-.584-.367-.774-.18-.148-.405-.226-.633-.226-.066,0-.132.006-.198.02l-4.168.84c-.467.094-.802.504-.802.98v23.21c0,.3.135.584.367.774.18.148.405.226.633.226.066,0,.132-.006.198-.02l4.357-.879c.467-.094.802-.504.802-.98v-12.788c0-1.556.528-2.995,1.614-4.397,1.074-1.388,2.282-2.201,3.695-2.486.72-.145,1.305-.219,1.739-.219.212,0,.344.018.417.033.068.014.137.021.204.021.434,0,.83-.284.958-.716l1.327-4.483c.078-.265.044-.55-.096-.789-.14-.238-.372-.409-.641-.47-.461-.105-.966-.158-1.503-.158h0Z" fill="#231e20"/>
          </g>
          <g>
            <path d="M525.512,41.895c-2.392,0-4.489-.731-6.233-2.173-2.353-1.976-3.543-4.856-3.543-8.565,0-3.671,1.168-6.984,3.472-9.848,2.341-2.877,5.323-4.696,8.865-5.411.953-.192,1.876-.289,2.745-.289,2.391,0,4.477.734,6.2,2.184,2.38,1.966,3.589,4.844,3.589,8.552s-1.186,7.022-3.525,9.862c-2.301,2.866-5.267,4.683-8.811,5.397-.957.193-1.885.291-2.758.291ZM529.699,20.707c-.454,0-.934.051-1.428.15-1.988.399-3.706,1.502-5.106,3.275-1.375,1.741-2.071,3.81-2.071,6.146s.675,4.099,2.005,5.244c.995.86,2.136,1.278,3.488,1.278h0c.47,0,.97-.053,1.487-.157,2.017-.406,3.735-1.493,5.104-3.229,1.375-1.74,2.071-3.823,2.071-6.192,0-2.33-.656-4.03-2.006-5.198-1.029-.886-2.188-1.317-3.544-1.317Z" fill="#fff"/>
            <path d="M530.817,16.108c2.28,0,4.24.689,5.878,2.067,2.274,1.878,3.41,4.601,3.41,8.17,0,3.599-1.136,6.783-3.41,9.545-2.241,2.79-5.084,4.531-8.524,5.224-.929.187-1.816.281-2.66.281-2.283,0-4.254-.686-5.915-2.058-2.243-1.884-3.362-4.611-3.362-8.179s1.119-6.746,3.362-9.535c2.274-2.795,5.131-4.54,8.574-5.234.925-.187,1.807-.28,2.646-.28M526.586,37.301c.505,0,1.034-.056,1.586-.167,2.146-.433,3.946-1.569,5.398-3.409,1.452-1.838,2.179-4.007,2.179-6.502,0-2.463-.727-4.32-2.179-5.577-1.114-.959-2.404-1.439-3.872-1.439-.489,0-.998.053-1.526.16-2.116.427-3.917,1.579-5.4,3.456-1.454,1.842-2.179,3.992-2.179,6.455,0,2.494.725,4.371,2.179,5.623,1.079.933,2.35,1.399,3.814,1.399M530.817,15.108h0c-.901,0-1.858.101-2.843.3-3.659.738-6.738,2.616-9.152,5.583-2.381,2.96-3.586,6.379-3.586,10.166,0,3.862,1.251,6.872,3.718,8.945,1.842,1.523,4.047,2.292,6.558,2.292.906,0,1.867-.101,2.857-.301,3.662-.738,6.726-2.615,9.106-5.578,2.406-2.923,3.631-6.348,3.631-10.171,0-3.865-1.27-6.873-3.774-8.941-1.809-1.522-4.004-2.296-6.515-2.296h0ZM526.586,36.301c-1.227,0-2.261-.378-3.161-1.156-1.234-1.063-1.833-2.654-1.833-4.867,0-2.252.642-4.161,1.964-5.835,1.344-1.701,2.918-2.714,4.812-3.096.461-.093.908-.14,1.329-.14,1.231,0,2.284.392,3.219,1.197,1.232,1.066,1.831,2.643,1.831,4.819,0,2.285-.642,4.209-1.964,5.882-1.313,1.663-2.886,2.661-4.811,3.049-.484.098-.951.147-1.388.147h0Z" fill="#231e20"/>
          </g>
          <g>
            <path d="M549.64,37.061c-1.818,0-3.327-.504-4.482-1.498-1.639-1.411-2.47-3.718-2.47-6.855v-14.589c0-.238.168-.443.401-.49l4.357-.878c.033-.007.066-.01.099-.01.114,0,.227.039.317.113.116.095.183.236.183.387v14.306c.073,2.871,1.192,4.214,3.523,4.214.483,0,1.024-.06,1.608-.178,1.622-.326,2.946-1.237,4.049-2.785,1.101-1.548,1.66-3.266,1.66-5.107v-12.837c0-.238.168-.443.401-.49l4.357-.878c.033-.007.066-.01.099-.01.114,0,.227.039.317.113.116.095.183.236.183.387v23.209c0,.238-.168.443-.401.49l-4.167.84c-.033.007-.066.01-.099.01-.114,0-.227-.039-.317-.113-.116-.095-.183-.236-.183-.387v-1.749c-.641.87-1.458,1.682-2.444,2.425-1.43,1.075-2.94,1.779-4.489,2.091-.89.18-1.732.271-2.503.271Z" fill="#fff"/>
            <path d="M563.742,9.974v23.209l-4.167.84v-3.221l-.191.038c-.663,1.272-1.681,2.424-3.055,3.459-1.374,1.033-2.803,1.701-4.286,2-.861.174-1.662.26-2.403.26-1.704,0-3.09-.459-4.157-1.377-1.532-1.318-2.297-3.476-2.297-6.477v-14.588l4.357-.879v14.306c.08,3.143,1.421,4.714,4.024,4.714.519,0,1.088-.062,1.707-.187,1.736-.35,3.188-1.345,4.357-2.986,1.167-1.641,1.752-3.439,1.752-5.398v-12.836l4.357-.878M563.742,8.974c-.066,0-.132.006-.198.02l-4.357.878c-.467.094-.802.504-.802.98v12.836c0,1.76-.512,3.336-1.567,4.818-1.025,1.439-2.249,2.285-3.74,2.586-.551.111-1.059.167-1.509.167-1.364,0-2.941-.425-3.025-3.74v-14.28c0-.3-.134-.584-.366-.774-.18-.148-.405-.226-.633-.226-.066,0-.132.006-.198.02l-4.357.879c-.467.094-.802.504-.802.98v14.588c0,3.291.89,5.725,2.644,7.235,1.25,1.074,2.868,1.619,4.81,1.619.804,0,1.679-.094,2.601-.28,1.622-.327,3.2-1.061,4.69-2.181.61-.46,1.159-.945,1.644-1.455v.38c0,.3.135.584.367.774.18.148.405.226.633.226.066,0,.132-.006.198-.02l4.167-.84c.467-.094.802-.504.802-.98V9.974c0-.3-.135-.584-.367-.774-.18-.148-.405-.226-.633-.226h0Z" fill="#231e20"/>
          </g>
          <g>
            <path d="M568.384,42.979c-.114,0-.227-.039-.317-.113-.116-.095-.183-.236-.183-.387V9.038c0-.238.168-.443.401-.49l4.168-.84c.033-.007.066-.01.099-.01.114,0,.227.039.317.113.116.095.183.236.183.387v1.791c.708-.947,1.592-1.804,2.641-2.559,1.461-1.047,3.096-1.759,4.86-2.114.758-.152,1.5-.23,2.206-.23,2.282,0,4.301.805,6.001,2.391,2.273,2.079,3.427,4.93,3.427,8.469s-1.134,6.811-3.372,9.727c-2.178,2.909-4.893,4.711-8.065,5.351-.773.156-1.529.235-2.247.235-.934,0-1.831-.134-2.668-.397-1.075-.339-1.984-.853-2.714-1.531l.119,2.011v10.261c0,.238-.167.443-.4.49l-4.357.878c-.033.007-.066.01-.099.01ZM581.415,10.275c-.437,0-.899.049-1.376.145-1.983.4-3.667,1.494-5.005,3.25-1.314,1.759-1.981,3.823-1.981,6.133s.647,4.083,1.925,5.277c.966.857,2.09,1.278,3.427,1.278h0c.455,0,.938-.051,1.437-.151,1.953-.395,3.621-1.484,4.958-3.241,1.348-1.738,2.03-3.804,2.03-6.143,0-2.271-.662-4.026-1.968-5.216-.985-.896-2.113-1.332-3.446-1.332Z" fill="#fff"/>
            <path d="M582.759,5.587c2.161,0,4.048.752,5.66,2.256,2.179,1.993,3.268,4.693,3.268,8.103,0,3.443-1.089,6.582-3.268,9.422-2.116,2.826-4.706,4.548-7.768,5.165-.745.15-1.461.225-2.148.225-.887,0-1.726-.125-2.518-.374-1.405-.444-2.486-1.188-3.244-2.236l-.189.038.189,3.183v10.231l-4.357.878V9.038l4.168-.84v3.221l.189-.038c.758-1.351,1.839-2.534,3.244-3.544,1.405-1.008,2.961-1.686,4.666-2.03.729-.147,1.432-.221,2.108-.221M578.403,26.858c.49,0,1.003-.054,1.537-.162,2.085-.42,3.837-1.563,5.258-3.428,1.421-1.834,2.132-3.982,2.132-6.446,0-2.43-.711-4.292-2.132-5.586-1.072-.975-2.333-1.463-3.782-1.463-.472,0-.963.052-1.475.155-2.115.426-3.884,1.572-5.305,3.437-1.389,1.86-2.083,4.006-2.083,6.436,0,2.463.694,4.344,2.083,5.643,1.062.942,2.318,1.413,3.767,1.413M582.76,4.587h0c-.739,0-1.515.081-2.306.24-1.835.37-3.535,1.109-5.052,2.198-.684.492-1.302,1.027-1.85,1.602v-.428c0-.3-.135-.584-.367-.774-.18-.148-.405-.226-.633-.226-.066,0-.132.006-.198.02l-4.168.84c-.467.094-.802.504-.802.98v33.44c0,.3.135.584.367.774.18.148.405.226.633.226.066,0,.132-.006.198-.02l4.357-.878c.467-.094.802-.504.802-.98v-10.231c0-.02,0-.04-.002-.059l-.054-.906c.591.388,1.258.7,1.998.933.887.279,1.835.42,2.819.42.751,0,1.54-.082,2.346-.245,3.296-.664,6.112-2.53,8.371-5.546,2.299-2.996,3.468-6.371,3.468-10.022,0-3.685-1.209-6.66-3.593-8.841-1.789-1.668-3.922-2.518-6.335-2.518h0ZM578.403,25.858c-1.208,0-2.223-.38-3.104-1.161-1.169-1.093-1.747-2.7-1.747-4.895,0-2.23.616-4.139,1.885-5.837,1.275-1.673,2.814-2.675,4.701-3.055.444-.09.874-.135,1.278-.135,1.203,0,2.22.393,3.11,1.202,1.214,1.106,1.805,2.691,1.805,4.846,0,2.255-.629,4.163-1.922,5.833-1.285,1.687-2.809,2.686-4.665,3.06-.467.094-.918.142-1.34.142h0Z" fill="#231e20"/>
          </g>
          <g>
            <path d="M601.015,26.699c-1.449,0-2.795-.297-4.002-.882-1.874-.91-3.231-2.358-4.034-4.305-.093-.225-.01-.484.196-.614l3.884-2.44c.081-.05.173-.076.266-.076.049,0,.098.007.146.021.139.042.252.143.311.275.525,1.178,1.263,1.995,2.257,2.501.667.339,1.386.511,2.138.511.358,0,.732-.039,1.112-.115,1.299-.262,2.395-.765,3.257-1.494.81-.686,1.221-1.369,1.221-2.032,0-.438,0-1.773-2.962-2.083l-3.951-.189c-4.81-.242-7.249-2.149-7.249-5.67,0-2.25.921-4.261,2.738-5.977,1.782-1.685,4.087-2.821,6.852-3.378.829-.167,1.641-.252,2.412-.252,1.214,0,2.369.21,3.433.624,1.778.689,3.042,1.865,3.758,3.493.101.229.017.496-.195.627l-3.884,2.395c-.08.049-.17.074-.262.074-.046,0-.092-.006-.137-.02-.135-.038-.248-.132-.311-.258-.386-.776-1-1.305-1.875-1.616-.526-.185-1.1-.279-1.703-.279-.434,0-.895.049-1.37.145-1.052.212-2.005.67-2.833,1.361-.778.648-1.172,1.312-1.172,1.972,0,.998,1.095,1.532,3.255,1.589l3.52.194c4.901.22,7.389,2.261,7.389,6.066,0,2.151-.942,4.172-2.801,6.006-1.833,1.809-4.165,3.009-6.933,3.566-.854.172-1.686.26-2.471.26Z" fill="#fff"/>
            <path d="M605.607,1c1.157,0,2.241.197,3.251.59,1.658.644,2.819,1.721,3.481,3.229l-3.884,2.395c-.442-.889-1.161-1.511-2.154-1.864-.583-.206-1.207-.308-1.871-.308-.469,0-.959.051-1.469.154-1.138.229-2.156.718-3.055,1.468-.9.75-1.351,1.535-1.351,2.356,0,1.327,1.247,2.023,3.742,2.089l3.506.193c4.611.207,6.916,2.063,6.916,5.567,0,2.023-.885,3.906-2.652,5.65-1.769,1.746-3.997,2.891-6.68,3.432-.827.167-1.618.25-2.374.25-1.38,0-2.641-.278-3.783-.832-1.769-.859-3.032-2.207-3.79-4.044l3.884-2.441c.569,1.276,1.398,2.19,2.487,2.744.741.377,1.529.565,2.364.565.393,0,.797-.042,1.211-.125,1.39-.28,2.55-.814,3.481-1.602s1.398-1.592,1.398-2.414c0-1.483-1.136-2.343-3.41-2.581l-3.979-.192c-4.515-.228-6.772-1.951-6.772-5.171,0-2.116.859-3.986,2.581-5.613,1.721-1.625,3.922-2.709,6.607-3.251.801-.161,1.572-.242,2.313-.242M605.607,0c-.804,0-1.649.088-2.511.262-2.857.576-5.245,1.755-7.096,3.504-1.921,1.815-2.894,3.948-2.894,6.34,0,2.637,1.34,5.848,7.722,6.17l3.953.19c2.487.266,2.487,1.222,2.487,1.583,0,.509-.351,1.064-1.044,1.65-.797.674-1.818,1.14-3.033,1.385-.347.07-.688.105-1.014.105-.682,0-1.307-.149-1.91-.456-.888-.451-1.551-1.191-2.027-2.26-.118-.265-.345-.465-.622-.55-.095-.029-.193-.043-.291-.043-.186,0-.371.052-.532.153l-3.884,2.441c-.412.259-.578.778-.392,1.228.851,2.062,2.29,3.597,4.278,4.562,1.275.619,2.695.932,4.22.932.818,0,1.684-.091,2.571-.27,2.865-.578,5.282-1.823,7.185-3.7,1.957-1.931,2.95-4.072,2.95-6.362,0-2.834-1.366-6.274-7.871-6.566l-3.495-.193c-1.291-.035-2.797-.251-2.797-1.09,0-.505.334-1.039.992-1.588.775-.647,1.629-1.057,2.612-1.256.443-.089.87-.134,1.271-.134.547,0,1.064.085,1.538.252.744.264,1.266.712,1.592,1.366.125.252.35.439.62.516.09.026.183.038.275.038.184,0,.365-.051.525-.149l3.884-2.395c.425-.262.591-.797.391-1.254-.771-1.754-2.128-3.018-4.035-3.759-1.121-.436-2.337-.657-3.613-.657h0Z" fill="#231e20"/>
          </g>
          <path d="M29.025,109.225h0c2.252,2.679,1.537,7.189-1.596,10.073l-14.925,13.736c-3.133,2.884-7.499,3.049-9.751.37h0c-2.252-2.679-1.537-7.189,1.596-10.073l14.925-13.736c3.133-2.884,7.499-3.049,9.751-.37Z" fill="#ea4335" stroke="#231e20" stroke-miterlimit="10"/>
          <path d="M2.752,125.251h0c-2.252,3.588-1.537,7.809,1.596,9.429l14.925,7.717c3.133,1.62,7.499.025,9.751-3.562h0c2.252-3.588,1.537-7.809-1.596-9.429l-14.925-7.717c-3.133-1.62-7.499-.025-9.751,3.562Z" fill="#4285f4" stroke="#231e20" stroke-miterlimit="10"/>
          <path d="M65.09,112.683h0c2.252,2.679,1.537,7.189-1.596,10.073l-14.925,13.736c-3.133,2.884-7.499,3.049-9.751.37h0c-2.252-2.679-1.537-7.189,1.596-10.073l14.925-13.736c3.133-2.884,7.499-3.049,9.751-.37Z" fill="#f9ab00" stroke="#231e20" stroke-miterlimit="10"/>
          <path d="M38.817,107.251h0c-2.252,3.588-1.537,7.809,1.596,9.429l14.925,7.717c3.133,1.62,7.499.025,9.751-3.562h0c2.252-3.588,1.537-7.809-1.596-9.429l-14.925-7.717c-3.133-1.62-7.499-.025-9.751,3.562Z" fill="#34a853" stroke="#231e20" stroke-miterlimit="10"/>
        </g>
      </g>
      <g>
        <path d="M129.641,357.947l-17.548-12.29,12.834-2.587c1.666-.336,3.257-.982,4.714-1.865v16.743ZM203.721,284.266l-14.019-9.817,14.019-2.826v12.644ZM202.301,357.558c-.829.963-1.949,1.686-3.161,1.93l-6.028,1.215v-26.822c0-2.471,2.098-4.981,4.581-5.482l6.027-1.215v26.822c0,1.265-.55,2.541-1.421,3.552ZM437.606,245.298c-.829.963-1.95,1.686-3.162,1.93l-20.112,4.055c-1.877.378-3.556,1.433-4.786,2.862-1.303,1.513-2.103,3.446-2.103,5.439v9.409s-11.08-7.757-11.08-7.757c-4.541-3.179-10.321-4.251-16.443-3.016l-1.602.323v-22.121l60.708-12.239v17.563c0,1.265-.55,2.541-1.42,3.551ZM574.244,209.784l-61.455,12.389c-3.353.676-6.453,2.629-8.74,5.286-.567.659-1.084,1.361-1.543,2.097v-18.172l71.739-14.463v12.862ZM500.165,335.619l-10.603-7.424v-26.3c0-2.471,2.098-4.982,4.582-5.482l6.022-1.214v40.42ZM630.834,352.197c3.863-.779,6.889-4.426,6.889-8.302v-25.57c0-1.95-.77-3.653-2.167-4.797-.115-.094-.232-.183-.352-.267l-23.565-16.496c-1.377-.964-3.112-1.294-4.939-.925l-43.058,8.681v-26.822c0-2.471,2.098-4.981,4.582-5.482l62.61-12.623c3.863-.779,6.889-4.425,6.889-8.302v-99.652c0-1.949-.77-3.653-2.166-4.796-.114-.093-.231-.182-.351-.266,0,0-23.564-16.492-23.565-16.493-1.378-.964-3.113-1.295-4.94-.926l-49.942,10.069-200.158,40.354,9.153-13.018-52.409-38.688-23.558-16.493-31.195,44.367,23.558,16.493,31.416,16.015-197.972,39.913,9.153-13.019-52.409-38.687-23.554-16.494-31.195,44.367,23.553,16.494,34.654,17.665c-1.071,1.431-1.714,3.168-1.714,4.955v43.881c0,1.323-.575,2.657-1.485,3.714-.867,1.007-2.038,1.763-3.305,2.018l-56.664,11.424c-3.383.682-6.459,2.642-8.728,5.277C1.497,312.555,0,316.099,0,319.684v69.659c0,3.46,1.352,6.472,3.806,8.481.199.163.403.317.611.463l21.038,14.737-18.356,3.701c-1.934.39-3.664,1.477-4.932,2.95C.825,421.234,0,423.225,0,425.279v25.15c0,2.005.791,3.756,2.227,4.931.117.096.237.187.361.274,0,0,23.551,16.498,23.553,16.499,1.037.726,2.273,1.102,3.597,1.102.484,0,.979-.05,1.481-.151l93.707-18.892c6.961-1.404,12.625-8.22,12.625-15.193v-27.36s20.062,14.052,20.062,14.052c2.432,1.704,5.518,2.281,8.775,1.623l45.005-9.074,18.403,12.889c1.378.965,3.116,1.292,4.94.926l25.568-5.155c3.863-.779,6.889-4.425,6.889-8.302v-71.793c.934,1.651,2.157,3.111,3.644,4.329.303.248.615.484.933.707,0,0,23.558,16.497,23.558,16.497,3.728,2.61,8.47,3.49,13.489,2.48l6.024-1.215v17.561c0,1.95.77,3.653,2.167,4.797.114.093.231.182.35.266l23.559,16.498c1.378.965,3.115,1.293,4.94.926l25.571-5.155c3.863-.779,6.889-4.425,6.889-8.302v-6.215s12.427,8.702,12.427,8.702c1.378.965,3.114,1.293,4.939.925l25.571-5.155c3.863-.779,6.889-4.425,6.889-8.302v-20.535c.497.679,1.08,1.295,1.744,1.838.199.163.404.318.613.465l23.561,16.498c2.432,1.703,5.515,2.278,8.774,1.622l23.816-4.802.033.023,14.507-2.924c3.863-.779,6.889-4.426,6.889-8.302v-14.572s20.065,14.048,20.065,14.048c2.432,1.703,5.516,2.278,8.774,1.623l93.914-18.934Z"/>
        <g>
          <g>
            <polygon points="99.206 198.981 49.112 162.003 19.716 203.81 75.733 232.366 99.206 198.981" fill="#fff" stroke="#231e20" stroke-miterlimit="10" stroke-width="2"/>
            <polygon points="340.209 150.393 290.116 113.414 260.72 155.222 316.736 183.778 340.209 150.393" fill="#fff" stroke="#231e20" stroke-miterlimit="10" stroke-width="2"/>
            <path d="M557.042,140.639l-55.443,11.178-92.719,18.693-148.161,29.871h0l-129.642,26.137-49.825,10.045c-3.167.639-5.735,3.724-5.735,6.891v31.305s0,12.576,0,12.576c0,3.283-2.661,6.481-5.944,7.143l-56.665,11.424c-6.335,1.277-11.47,7.448-11.47,13.783v69.659c0,6.335,5.136,10.435,11.47,9.158l56.664-11.424c3.283-.662,5.945,1.463,5.945,4.747v6.631c0,3.283-2.661,6.481-5.944,7.143l-62.19,12.538c-3.283.662-5.945,3.86-5.945,7.144v25.15c0,3.283,2.661,5.408,5.944,4.746l93.706-18.892c6.335-1.277,11.47-7.448,11.47-13.783v-69.659c0-6.335-5.136-10.435-11.47-9.158l-56.665,11.424c-3.283.662-5.944-1.463-5.944-4.746v-6.632c0-3.283,2.661-6.481,5.944-7.143l56.665-11.424c6.335-1.277,11.47-7.448,11.47-13.783v-38.354c0-3.167,2.568-6.253,5.735-6.891l12.784-2.577,74.082-14.936v105.385c0,3.167-2.568,6.253-5.735,6.892l-25.571,5.155c-3.167.639-5.735-1.411-5.735-4.579v-44.09c0-3.167,2.568-6.253,5.735-6.892l7.049-1.421c3.167-.639,5.735-3.724,5.735-6.892v-25.57c0-3.167-2.568-5.218-5.735-4.579l-38.352,7.732c-6.335,1.277-11.47,7.448-11.47,13.783v2.808h-.003v103.892c0,6.335,5.136,10.435,11.47,9.158l56.876-11.467c3.167-.639,5.735,1.411,5.735,4.579v7.05c0,3.167,2.568,5.218,5.735,4.579l25.568-5.155c3.167-.639,5.735-3.724,5.735-6.892v-160.945l18.522-3.734h0l5.735-1.156v101.86h0c0,10.229,8.292,16.849,18.52,14.786l25.57-5.155c3.167-.639,5.735,1.411,5.735,4.579v34.83c0,3.167,2.568,5.218,5.735,4.579l25.571-5.155c3.167-.639,5.735-3.724,5.735-6.892v-71.87c0-3.167,2.568-6.253,5.735-6.892l1.313-.265c3.167-.639,5.735,1.411,5.735,4.579v71.87c0,3.167,2.568,5.218,5.735,4.579l25.571-5.155c3.167-.639,5.735-3.724,5.735-6.892v-91.704c0-12.67-10.271-20.87-22.941-18.316l-14.1,2.843-12.784,2.577v-46.3l55.56-11.201,31.583-6.367v40.565c0,3.167-2.568,6.253-5.735,6.892l-20.113,4.055c-3.167.639-5.735,3.724-5.735,6.892v25.57c0,3.167,2.568,5.218,5.735,4.579l7.169-1.445c3.167-.639,5.735,1.411,5.735,4.579v66.104c0,6.335,5.136,10.435,11.47,9.158l25.571-5.155v.03l12.784-2.577c3.167-.639,5.735-3.724,5.735-6.892v-25.569c0-3.167-2.568-5.218-5.735-4.579l-7.049,1.421c-3.167.639-5.735-1.411-5.735-4.579v-34.829c0-3.167,2.568-6.253,5.735-6.892l31.306-6.312v71.87c0,6.335,5.136,10.435,11.47,9.158l93.912-18.933c3.167-.639,5.735-3.724,5.735-6.892v-25.569c0-3.167-2.568-5.218-5.735-4.579l-62.609,12.622c-3.167.639-5.735-1.411-5.735-4.579v-44.09c0-3.167,2.568-6.253,5.735-6.892l62.609-12.622c3.167-.639,5.735-3.724,5.735-6.892v-99.65c0-3.167-2.568-5.217-5.735-4.579l-49.942,10.069ZM316.28,272.518v31.305c0,3.167-2.568,6.253-5.735,6.892l-1.313.265c-3.167.639-5.735-1.412-5.735-4.579v-77.605l12.784-2.577v46.3ZM575.682,210.961l-62.609,12.622c-5.578,1.125-10.216,6.043-11.246,11.527l-18.586,3.747c-3.167.639-5.735-1.411-5.735-4.579v-40.565l24.095-4.858,55.443-11.178,12.904-2.602c3.167-.639,5.735,1.411,5.735,4.579v31.305Z" fill="#fff" stroke="#231e20" stroke-miterlimit="10" stroke-width="2"/>
          </g>
          <g>
            <path d="M21.564,434.53l-.284-1.41,64.811-13.067c3.828-.772,6.928-4.505,6.911-8.323l-.182-40.547c-.008-1.744-.678-3.247-1.886-4.231-1.249-1.017-2.932-1.379-4.741-1.012l-58.871,11.868c-2.245.451-4.36-.017-5.95-1.321-1.552-1.273-2.404-3.184-2.399-5.381l.09-40.701c.01-4.46,3.64-8.807,8.093-9.69l59.559-11.809c3.831-.76,6.941-4.488,6.934-8.311l-.098-48.727,493.305-99.454c2.241-.452,4.355.015,5.945,1.317,1.55,1.269,2.404,3.175,2.404,5.367v59.064c0,4.477-3.637,8.833-8.108,9.711l-59.601,11.701c-3.832.752-6.948,4.477-6.947,8.302l.017,77.976c0,1.752.667,3.261,1.877,4.252,1.249,1.022,2.936,1.384,4.75,1.02l65.403-13.186.284,1.41-65.403,13.186c-2.245.449-4.355-.016-5.945-1.317-1.55-1.269-2.404-3.174-2.405-5.365l-.017-77.976c-.001-4.478,3.636-8.835,8.108-9.714l59.601-11.701c3.83-.752,6.947-4.475,6.947-8.3v-59.064c0-1.753-.666-3.263-1.877-4.254-1.25-1.024-2.938-1.383-4.751-1.02L94.991,253.046l.096,47.547c.009,4.475-3.621,8.838-8.092,9.724l-59.559,11.809c-3.815.757-6.926,4.473-6.934,8.283l-.09,40.701c-.004,1.757.661,3.272,1.873,4.266,1.25,1.024,2.938,1.387,4.754,1.022l58.871-11.868c2.238-.449,4.345.013,5.934,1.308,1.548,1.26,2.406,3.157,2.415,5.338l.182,40.547c.02,4.47-3.598,8.839-8.065,9.74l-64.811,13.067Z" fill="#e01b25"/>
            <path d="M452.314,347.523c-1.618,0-3.108-.507-4.302-1.486-1.551-1.269-2.404-3.177-2.403-5.37l.034-69.445c0-1.753-.666-3.264-1.876-4.256-1.25-1.023-2.938-1.387-4.751-1.02l-10.005,2.017-.284-1.41,10.005-2.017c2.244-.451,4.356.015,5.946,1.318,1.551,1.269,2.404,3.177,2.403,5.369l-.034,69.446c-.001,1.753.665,3.265,1.876,4.256,1.251,1.024,2.939,1.389,4.751,1.02l9.345-1.884.284,1.41-9.345,1.884c-.558.112-1.108.168-1.644.168Z" fill="#e01b25"/>
            <path d="M437.734,266.205l-.284-1.41,14.311-2.885c3.811-.768,6.911-4.489,6.911-8.293v-74.77h1.438v74.77c0,4.453-3.618,8.806-8.065,9.703l-14.311,2.885Z" fill="#e01b25"/>
            <rect x="450.253" y="255.144" width="70.269" height="1.438" transform="translate(-41.006 101.018) rotate(-11.403)" fill="#e01b25"/>
            <rect x="333.798" y="204.022" width="1.438" height="165.217" fill="#e01b25"/>
            <path d="M385.627,359.079h-1.438v-74.638c0-1.753-.667-3.263-1.877-4.254-1.25-1.024-2.936-1.386-4.75-1.02l-42.903,8.65-.284-1.41,42.903-8.65c2.244-.454,4.355.015,5.945,1.317,1.55,1.269,2.404,3.175,2.404,5.367v74.638Z" fill="#e01b25"/>
            <path d="M291.245,333.774c-1.615,0-3.102-.506-4.296-1.481-1.554-1.269-2.41-3.177-2.41-5.371v-112.97h1.438v112.97c0,1.755.668,3.266,1.881,4.257,1.254,1.024,2.945,1.381,4.764,1.013l41.751-8.523.288,1.409-41.752,8.523c-.565.116-1.122.173-1.664.173Z" fill="#e01b25"/>
            <rect x="223.244" y="226.311" width="1.438" height="165.217" fill="#e01b25"/>
            <path d="M155.443,388.854c-1.618,0-3.106-.507-4.301-1.484-1.55-1.269-2.404-3.174-2.404-5.367v-77.545c0-4.453,3.618-8.806,8.065-9.703l9.782-1.972.284,1.41-9.782,1.972c-3.811.768-6.911,4.489-6.911,8.293v77.545c0,1.753.667,3.263,1.877,4.254,1.251,1.023,2.937,1.385,4.75,1.02l67.018-13.511.284,1.41-67.018,13.511c-.558.112-1.109.168-1.644.168Z" fill="#e01b25"/>
            <rect x="299.193" y="128.851" width="1.438" height="43.889" transform="translate(12.947 324.972) rotate(-57.949)" fill="#e01b25"/>
            <rect x="57.54" y="177.367" width="1.438" height="45.793" transform="translate(-142.123 142.414) rotate(-57.677)" fill="#e01b25"/>
          </g>
        </g>
      </g>
    </g>
  </g>
</svg>