<?xml version="1.0" encoding="UTF-8"?>
<svg id="b" data-name="Layer_2" xmlns="http://www.w3.org/2000/svg" width="440.406" height="282.785" viewBox="0 0 440.406 282.785">
  <g id="c" data-name="Layer_1">
    <g>
      <path d="M91.176,146.867c-.638-.996-1.466-1.858-2.435-2.536l-12.285-8.604c-1.505-1.054-3.299-1.616-5.136-1.61l-30.134.005c.387-1.344,1.615-2.271,3.014-2.273l39.406-.007c3.069-.001,5.924-1.57,7.571-4.16v19.186h0ZM142.693,105.589c-.223-.23-.467-.438-.729-.621l-12.286-8.604c-.836-.585-1.832-.898-2.852-.895h-.002l-26.67.005c-2.616,0-5.101,1.142-6.803,3.128-.281.325-.537.671-.768,1.033v-3.443c.002-1.65,1.339-2.987,2.989-2.989l47.122-.009v12.397-.002ZM141.969,158.82c-.567.661-1.394,1.041-2.265,1.042h-8.484v-25.04c.002-1.65,1.339-2.987,2.989-2.989h4.902c1.351,0,2.645-.549,3.583-1.522v26.563c0,.743-.273,1.424-.724,1.947h0ZM305.602,113.713c-.567.661-1.394,1.041-2.265,1.041l-13.986.003c-1.453,0-2.835.634-3.781,1.737-.78.903-1.209,2.057-1.208,3.251v4.529l-9.244-6.472c-2.842-1.989-6.229-3.051-9.698-3.041h-5.407v-21.59l46.312-.009v18.603c0,.744-.273,1.425-.724,1.948h.001ZM400.358,108.296l-42.539.009c-2.614.002-5.098,1.145-6.801,3.128-.83.963-1.445,2.092-1.804,3.312h-2.84v-21.591l53.984-.01v15.152h0ZM348.842,182.822l-.052-.053c-.208-.207-.433-.397-.673-.565l-10.744-7.523v-20.58c.002-1.65,1.339-2.986,2.989-2.988l8.481-.002v31.712h-.001ZM435.417,209.05c2.754-.003,4.985-2.235,4.988-4.989v-17.782c.004-1.324-.523-2.594-1.461-3.527-.207-.208-.433-.397-.674-.565l-12.29-8.605c-.836-.585-1.831-.897-2.851-.894h-.002l-34.237.006v-25.043c.002-1.65,1.339-2.986,2.989-2.988l43.539-.009c2.754-.003,4.985-2.235,4.988-4.989v-69.298c.004-1.324-.522-2.594-1.461-3.527-.208-.208-.433-.397-.674-.566l-12.29-8.603c-.836-.585-1.831-.897-2.851-.894h-.002l-183.417.034,11.552-14.104-36.297-34.105-12.289-8.602-21.799,26.612,40.588,28.866,1.907,1.335-151.263.028,11.552-14.104L47.365,8.633,35.081.031,13.282,26.644l40.588,28.866,2.211,1.548c-2.102.64-3.539,2.578-3.543,4.775v30.516c0,.75-.269,1.475-.759,2.042-.594.693-1.462,1.092-2.375,1.092l-39.405.007c-2.616,0-5.101,1.142-6.803,3.128-1.403,1.626-2.175,3.703-2.173,5.851v48.441c0,2.397.934,4.652,2.629,6.348.378.377.783.717,1.211,1.017l12.284,8.605c1.505,1.054,3.299,1.617,5.137,1.611l30.134-.006c-.386,1.344-1.614,2.271-3.013,2.273l-43.247.009c-1.496,0-2.917.653-3.891,1.788-.804.929-1.245,2.117-1.244,3.345v17.49c0,1.738.869,3.277,2.196,4.207l12.282,8.604h.002c.86.604,1.887.928,2.938.927l65.165-.013c4.95,0,8.977-4.027,8.977-8.978v-16.667c.637.996,1.463,1.858,2.432,2.536l12.285,8.605c1.505,1.056,3.3,1.621,5.138,1.619l30.306-.006c.199,1.363.953,2.583,2.082,3.371l12.286,8.605c.809.567,1.794.9,2.855.9l17.78-.004c2.754-.003,4.986-2.234,4.989-4.988v-110.925h2.582v61.229c0,3.707,1.444,7.192,4.065,9.813.584.584,1.21,1.109,1.873,1.573l12.287,8.605c2.326,1.628,5.099,2.498,7.938,2.49h8.486s0,18.602,0,18.602c0,1.689.844,3.185,2.133,4.087l12.259,8.586.028.02c.809.567,1.794.9,2.855.9l17.782-.003c2.754-.003,4.985-2.235,4.988-4.989v-2.229l9.024,6.32c.83.581,1.817.895,2.852.895h.002l17.782-.003c2.754-.003,4.985-2.235,4.988-4.989v-56.755l2.662,1.864v42.273c0,2.397.934,4.652,2.629,6.348.378.378.783.718,1.212,1.018l12.289,8.605c1.505,1.054,3.299,1.616,5.136,1.61l16.753-.003.029.021,9.89-.002c2.754-.003,4.985-2.235,4.988-4.989v-7.773c.637.995,1.463,1.856,2.431,2.534l12.289,8.605c1.505,1.056,3.299,1.621,5.138,1.619l65.308-.013.003-.002Z"/>
      <path d="M70.012,34.225L35.176,1.493,14.734,26.449l38.954,27.705,16.324-19.929Z" fill="#fff"/>
      <path d="M53.87,55.51L13.282,26.644,35.081.031l36.296,34.104-17.507,21.374h0ZM16.186,26.255l37.321,26.542,15.14-18.483L35.271,2.955s-19.085,23.3-19.085,23.3Z"/>
      <path d="M237.608,34.194L202.772,1.462l-20.442,24.956,38.955,27.704,16.323-19.928h0Z" fill="#fff"/>
      <path d="M221.466,55.479l-40.588-28.866L202.677,0l36.296,34.104-17.507,21.374h0ZM183.782,26.224l37.321,26.542,15.14-18.483L202.867,2.924l-19.086,23.3h.001Z"/>
      <path d="M388.396,57.783l-38.555.007-64.478.012-103.033.019-90.155.017-34.649.006c-2.203,0-3.988,1.785-3.988,3.988h0v30.516c0,2.283-1.851,4.134-4.134,4.134h0l-39.405.007c-4.406.001-7.976,3.572-7.977,7.978v48.442c0,4.404,3.571,7.975,7.975,7.975h.002l39.404-.007c2.283,0,4.134,1.851,4.134,4.134h0v4.611c0,2.283-1.851,4.134-4.134,4.134h0l-43.247.008c-2.283,0-4.134,1.852-4.134,4.135v17.49c0,2.283,1.85,4.133,4.133,4.133h0l65.164-.012c4.406-.001,7.976-3.572,7.977-7.978v-48.442c0-4.404-3.571-7.975-7.975-7.975h-.002l-39.405.007c-2.283,0-4.133-1.849-4.134-4.132h0v-4.613c0-2.283,1.851-4.134,4.134-4.134h0l39.405-.007c4.406-.001,7.976-3.572,7.977-7.978v-26.672c0-2.203,1.785-3.988,3.988-3.989l8.89-.002,51.517-.01v73.286c0,2.203-1.785,3.988-3.988,3.989l-17.782.003c-2.202,0-3.987-1.784-3.988-3.986v-30.662c0-2.203,1.785-3.988,3.988-3.989h4.902c2.203-.001,3.988-1.787,3.988-3.99v-17.782c0-2.203-1.785-3.988-3.988-3.988l-26.67.005c-4.406.001-7.976,3.572-7.977,7.978v1.953h-.002v72.247c0,4.404,3.571,7.975,7.975,7.975h.002l39.552-.007c2.202,0,3.987,1.784,3.988,3.986v4.904c0,2.203,1.785,3.988,3.988,3.988h0l17.78-.003c2.203,0,3.988-1.785,3.988-3.988h0v-111.924l12.88-.002h3.988v70.834c0,7.113,5.766,12.878,12.879,12.877l17.782-.003c2.202,0,3.987,1.784,3.988,3.986v24.223c0,2.203,1.785,3.988,3.988,3.988h0l17.782-.003c2.203,0,3.988-1.785,3.988-3.988h0v-49.98c0-2.203,1.785-3.988,3.988-3.989h.913c2.202,0,3.987,1.784,3.988,3.986h0v49.98c0,2.203,1.785,3.988,3.988,3.988h0l17.782-.003c2.203,0,3.988-1.785,3.988-3.988h0v-63.773c0-8.811-7.143-15.952-15.953-15.95l-9.805.002-8.89.002v-32.197l38.637-.007,21.963-.004v28.209c0,2.203-1.785,3.988-3.988,3.989l-13.986.003c-2.203,0-3.988,1.785-3.988,3.988h0v17.783c0,2.203,1.785,3.988,3.988,3.988h4.985c2.201-.001,3.987,1.783,3.988,3.984v45.973c0,4.404,3.571,7.975,7.975,7.975h.002l17.782-.003v.021l8.89-.002c2.203,0,3.988-1.785,3.988-3.988h0v-17.782c0-2.203-1.785-3.988-3.988-3.988h-4.902c-2.201.001-3.987-1.783-3.988-3.984v-24.224c0-2.203,1.785-3.988,3.988-3.989l21.77-.004v49.979c0,4.404,3.571,7.975,7.975,7.975h.002l65.307-.012c2.203,0,3.988-1.785,3.988-3.988h0v-17.782c0-2.203-1.785-3.988-3.988-3.988h0l-43.539.008c-2.202,0-3.987-1.784-3.988-3.986v-30.663c0-2.203,1.785-3.988,3.988-3.989l43.539-.008c2.203,0,3.988-1.785,3.988-3.988h0V61.764c0-2.203-1.785-3.988-3.988-3.988h0l-34.731.006h.005ZM220.967,115.769v21.77c0,2.203-1.785,3.988-3.988,3.989h-.913c-2.202,0-3.987-1.784-3.988-3.986h0v-53.968l8.89-.002v32.197h0ZM401.358,109.296l-43.539.008c-3.879,0-7.104,2.772-7.821,6.441l-12.925.002c-2.202,0-3.987-1.784-3.988-3.986v-28.211l16.756-.003,38.555-.007,8.974-.002c2.202,0,3.987,1.784,3.988,3.986v.002s0,21.77,0,21.77Z" fill="#fff"/>
      <path d="M6.157,200.523c-2.834-.003-5.13-2.298-5.134-5.132v-17.49c.003-2.834,2.3-5.132,5.134-5.135l43.247-.009c1.73-.002,3.132-1.404,3.134-3.134v-4.611c-.002-1.73-1.405-3.132-3.135-3.134l-39.404.008c-2.382.007-4.668-.94-6.348-2.628-1.688-1.681-2.634-3.966-2.628-6.348v-48.441c0-4.949,4.027-8.978,8.976-8.979l39.405-.007c1.73-.003,3.132-1.405,3.134-3.135v-30.516c.003-2.753,2.235-4.985,4.988-4.988l365.599-.068h.002c1.332,0,2.583.519,3.525,1.46.939.933,1.465,2.203,1.461,3.527v69.297c-.003,2.754-2.234,4.986-4.988,4.989l-43.539.009c-1.65.002-2.987,1.338-2.989,2.988v30.661c0,.798.311,1.549.875,2.112.559.562,1.319.877,2.111.875h.001l43.539-.008h.002c1.331,0,2.583.519,3.525,1.46.938.933,1.465,2.203,1.461,3.527v17.781c-.003,2.754-2.234,4.986-4.988,4.989l-65.307.013c-4.95,0-8.977-4.026-8.977-8.976v-48.979l-20.77.005c-1.65.002-2.987,1.338-2.989,2.988v24.222c.002,1.649,1.339,2.985,2.988,2.987h4.903c1.332,0,2.583.519,3.525,1.46.938.933,1.465,2.203,1.461,3.527v17.781c-.003,2.754-2.234,4.986-4.988,4.989l-9.89.002v-.021l-16.782.003c-2.382.007-4.668-.94-6.348-2.628-1.689-1.68-2.635-3.966-2.629-6.348v-45.97c-.002-1.649-1.339-2.985-2.988-2.987h-4.985c-2.753-.002-4.985-2.233-4.989-4.986v-17.782c.003-2.753,2.235-4.985,4.988-4.988l13.986-.003c1.65-.002,2.987-1.339,2.989-2.989v-27.209l-58.6.012v30.197l17.695-.004c4.529,0,8.786,1.763,11.988,4.964s4.966,7.458,4.966,11.986v63.772c-.003,2.754-2.234,4.986-4.988,4.989l-17.782.003h-.002c-1.323.003-2.592-.522-3.525-1.46-.939-.933-1.465-2.203-1.461-3.527v-49.979c-.002-1.649-1.339-2.986-2.988-2.988h-.913c-1.649.003-2.986,1.34-2.988,2.989v49.979c-.004,2.753-2.235,4.985-4.988,4.989l-17.782.003c-2.753-.003-4.985-2.234-4.989-4.987v-24.222c-.002-1.649-1.339-2.985-2.988-2.987l-17.781.003h-.004c-3.706,0-7.19-1.442-9.81-4.062-2.611-2.597-4.075-6.13-4.065-9.813v-69.835l-14.869.003v110.924c-.003,2.754-2.235,4.985-4.989,4.988l-17.78.004c-2.754-.003-4.986-2.234-4.989-4.988v-4.902c-.002-1.649-1.339-2.985-2.988-2.987l-39.552.008c-4.95,0-8.977-4.026-8.977-8.976l.002-74.201c0-4.948,4.027-8.976,8.976-8.977l26.67-.005h.002c1.331,0,2.583.519,3.525,1.46.939.933,1.465,2.203,1.461,3.527v17.781c-.003,2.754-2.234,4.986-4.988,4.989h-4.902c-1.65.002-2.987,1.34-2.989,2.99v30.66c0,.799.311,1.549.875,2.113.559.561,1.319.876,2.111.874h0l17.782-.003c1.65-.002,2.987-1.339,2.989-2.989v-72.286l-59.407.012c-1.65.002-2.987,1.339-2.989,2.989v26.672c0,4.949-4.027,8.978-8.977,8.979l-39.405.007c-1.73.003-3.132,1.405-3.134,3.135v4.611c0,.837.326,1.624.918,2.216.586.589,1.383.919,2.214.917h0l39.405-.007c2.398,0,4.652.933,6.348,2.628s2.629,3.949,2.629,6.347v48.442c0,4.95-4.027,8.978-8.977,8.978l-65.164.013h.008ZM49.404,159.878c2.834.003,5.132,2.3,5.135,5.134v4.611c-.003,2.834-2.3,5.131-5.134,5.134l-43.247.009c-1.731.002-3.133,1.404-3.135,3.135v17.49c.002,1.73,1.404,3.131,3.134,3.133l65.164-.013c3.847,0,6.977-3.13,6.977-6.978v-48.442c.005-1.851-.731-3.627-2.043-4.933-1.306-1.312-3.082-2.047-4.933-2.042l-39.405.007h-.002c-1.362.004-2.668-.537-3.628-1.503-.966-.961-1.508-2.268-1.504-3.63v-4.611c.004-2.834,2.299-5.13,5.133-5.135l39.405-.007c3.847,0,6.977-3.132,6.977-6.979v-26.672c.003-2.754,2.234-4.986,4.988-4.989l61.407-.012v74.286c-.004,2.753-2.235,4.985-4.988,4.989l-17.782.003h-.002c-1.323.003-2.592-.522-3.525-1.46-.939-.933-1.465-2.203-1.461-3.527v-30.66c.003-2.754,2.234-4.986,4.988-4.989h4.902c1.65-.002,2.987-1.34,2.989-2.99v-17.781c0-.799-.311-1.549-.875-2.113-.559-.561-1.319-.876-2.111-.874h0l-26.67.005c-3.847,0-6.977,3.131-6.977,6.978l-.002,74.2c0,3.847,3.13,6.976,6.977,6.976l39.552-.008c2.753.003,4.985,2.234,4.989,4.987v4.902c.002,1.649,1.339,2.986,2.988,2.988l17.78-.004c1.65-.002,2.987-1.338,2.989-2.988v-112.924l18.869-.003v71.835c-.009,3.152,1.244,6.176,3.479,8.399,2.222,2.233,5.245,3.485,8.396,3.477h.003l17.781-.003c2.753.003,4.985,2.234,4.989,4.987v24.222c.002,1.649,1.339,2.985,2.988,2.987l17.782-.003c1.65-.002,2.987-1.339,2.989-2.989v-49.979c.004-2.753,2.235-4.985,4.988-4.989h.914c2.753.003,4.985,2.235,4.988,4.988v49.979c0,.799.311,1.549.875,2.113.559.561,1.319.876,2.111.874h.001l17.782-.003c1.65-.002,2.987-1.339,2.989-2.989v-63.772c0-3.994-1.555-7.749-4.38-10.572s-6.579-4.378-10.574-4.378l-19.695.004v-34.197l62.6-.012v29.209c-.003,2.754-2.234,4.986-4.988,4.989l-13.986.003c-1.65.002-2.987,1.338-2.989,2.988v17.782c.002,1.649,1.339,2.985,2.988,2.987h4.985c2.753.002,4.985,2.233,4.989,4.986v45.97c0,1.863.726,3.615,2.043,4.933,1.305,1.313,3.082,2.048,4.933,2.043l18.782-.003v.021l7.89-.002c1.65-.002,2.987-1.339,2.989-2.989v-17.781c0-.798-.311-1.549-.875-2.112-.559-.562-1.319-.877-2.111-.875h-4.903c-2.753-.002-4.985-2.233-4.989-4.986v-24.222c.003-2.753,2.235-4.985,4.988-4.988l22.77-.005v50.979c0,3.847,3.13,6.976,6.977,6.976l65.307-.013c1.65-.002,2.987-1.339,2.989-2.989v-17.781c0-.798-.311-1.548-.875-2.112-.559-.562-1.319-.877-2.111-.875h-.001l-43.539.008h-.002c-1.323.003-2.592-.522-3.525-1.46-.938-.933-1.465-2.203-1.461-3.527v-30.661c.003-2.753,2.235-4.985,4.988-4.988l43.539-.009c1.65-.002,2.987-1.339,2.989-2.989V61.764c0-.799-.311-1.549-.875-2.113-.559-.561-1.319-.876-2.111-.874h-.001l-365.6.068c-1.65.002-2.987,1.338-2.989,2.988v30.516c-.004,2.834-2.299,5.13-5.133,5.135l-39.405.007c-3.847,0-6.977,3.132-6.977,6.979v48.441c0,1.863.726,3.615,2.043,4.933,1.305,1.313,3.082,2.048,4.933,2.043l39.404-.008h-.004ZM216.063,142.528c-1.323.003-2.592-.522-3.525-1.46-.938-.933-1.465-2.203-1.461-3.527v-54.968h10.89v54.966c-.004,2.753-2.235,4.985-4.988,4.989h-.916ZM213.077,84.573v52.968c0,.798.311,1.548.875,2.112.559.562,1.319.877,2.111.875h.915c1.649-.003,2.986-1.34,2.988-2.989v-52.967h-6.89.001ZM337.073,116.748c-2.754-.003-4.986-2.234-4.989-4.988v-29.209l65.285-.012h.002c1.331,0,2.583.519,3.525,1.46.938.933,1.465,2.203,1.461,3.527v22.77l-44.539.009c-3.332.005-6.195,2.363-6.84,5.632l-.158.809-13.748.003h0ZM334.085,84.551v27.209c.002,1.649,1.339,2.986,2.988,2.988l12.141-.003c1.128-3.814,4.628-6.433,8.605-6.44l42.539-.009v-20.77c0-.798-.311-1.549-.875-2.112-.559-.562-1.319-.877-2.111-.875h-.001l-63.285.012h-.001Z"/>
      <g>
        <path d="M15.92,187.893c-.69,0-1.25-.56-1.25-1.25s.56-1.25,1.25-1.25l45.071-.009c1.06,0,2.056-.414,2.804-1.165.745-.745,1.161-1.757,1.153-2.811l-.127-28.223c-.014-2.176-1.78-3.934-3.956-3.938h0l-40.939.008c-1.716.005-3.363-.678-4.572-1.896-1.215-1.211-1.894-2.859-1.885-4.574l.063-28.292c-.001-1.715.685-3.359,1.905-4.564,1.207-1.207,2.845-1.883,4.552-1.879h.022l41.417.13h.012c1.057,0,2.05-.411,2.798-1.158.747-.743,1.166-1.754,1.161-2.808l-.07-34.741h1.252l342.647-.064c3.565.003,6.454,2.892,6.458,6.457v41.073c.005,1.72-.681,3.37-1.904,4.579-1.228,1.221-2.883,1.858-4.588,1.879l-41.447-.211h-.021c-1.047-.002-2.051.412-2.792,1.152-.749.741-1.17,1.753-1.166,2.807l.012,54.228c.003,2.184,1.773,3.954,3.957,3.956l45.482-.009c.69,0,1.25.56,1.25,1.25s-.56,1.25-1.25,1.25l-45.482.009c-3.564-.004-6.453-2.892-6.458-6.456l-.012-54.228c0-1.731.676-3.357,1.903-4.578,1.228-1.222,2.857-1.923,4.588-1.881l41.447.211c1.055.016,2.071-.4,2.812-1.151.749-.741,1.17-1.753,1.167-2.807v-41.073c-.002-2.184-1.773-3.955-3.957-3.957l-341.395.064.065,32.235c.008,1.719-.674,3.37-1.894,4.582-1.208,1.214-2.852,1.895-4.565,1.89h-.02l-41.418-.13h-.014c-1.046-.003-2.05.411-2.79,1.151-.748.739-1.168,1.747-1.167,2.798l-.063,28.292c-.005,1.051.411,2.061,1.155,2.803.741.746,1.75,1.165,2.802,1.162l40.939-.008h.002c3.544,0,6.439,2.883,6.455,6.427l.127,28.223c.013,1.719-.665,3.371-1.881,4.586-1.209,1.221-2.858,1.906-4.576,1.901l-45.07.009h.002Z" fill="#e01b25"/>
        <path d="M316.609,187.836c-1.713.005-3.357-.677-4.565-1.892-1.215-1.209-1.896-2.854-1.89-4.568l.024-48.288c.003-1.05-.414-2.058-1.158-2.799-.741-.744-1.749-1.162-2.799-1.159l-6.957.002c-.69,0-1.25-.56-1.25-1.25s.56-1.25,1.25-1.25l6.957-.002c1.726,0,3.348.672,4.567,1.892,1.215,1.209,1.896,2.854,1.89,4.568l-.024,48.288c0,1.057.411,2.051,1.158,2.799.74.745,1.747,1.162,2.797,1.159h6.5c.69-.02,1.265.524,1.285,1.214s-.524,1.265-1.214,1.285c-.024,0-.047,0-.071,0h-6.5,0Z" fill="#e01b25"/>
        <path d="M305.329,129.131c-.69,0-1.25-.56-1.25-1.25s.56-1.25,1.25-1.25l9.952-.002c2.185-.003,3.956-1.774,3.958-3.959v-51.996c0-.69.56-1.25,1.25-1.25s1.25.56,1.25,1.25v51.996c-.004,3.565-2.892,6.454-6.457,6.459l-9.952.002h-.001Z" fill="#e01b25"/>
        <path d="M314.615,129.129c-.69,0-1.25-.56-1.25-1.25s.56-1.25,1.25-1.25l47.902-.009c.69,0,1.25.56,1.25,1.25s-.56,1.25-1.25,1.25l-47.902.009ZM233.65,186.834c-.69,0-1.25-.56-1.25-1.25v-114.894c0-.69.56-1.25,1.25-1.25s1.25.56,1.25,1.25v114.894c0,.69-.56,1.25-1.25,1.25Z" fill="#e01b25"/>
        <path d="M268.692,186.827c-.69,0-1.25-.56-1.25-1.25v-51.904c-.002-2.184-1.773-3.954-3.957-3.956l-29.835.006c-.69,0-1.25-.56-1.25-1.25s.56-1.25,1.25-1.25l29.835-.006c3.565.003,6.454,2.891,6.458,6.456v51.904c0,.69-.56,1.25-1.25,1.25h-.001ZM204.6,155.714c-1.71.005-3.351-.674-4.559-1.885-1.218-1.209-1.902-2.855-1.897-4.571v-78.561c0-.69.56-1.25,1.25-1.25s1.25.56,1.25,1.25v78.561c-.003,1.052.416,2.06,1.162,2.801.74.742,1.746,1.158,2.794,1.155h.011l29.035-.079h.003c.69,0,1.251.558,1.251,1.249,0,.69-.558,1.251-1.248,1.251l-29.035.079h-.018,0ZM156.769,186.849c-.69,0-1.25-.56-1.25-1.25v-114.894c0-.69.56-1.25,1.25-1.25s1.25.56,1.25,1.25v114.894c0,.69-.56,1.25-1.25,1.25Z" fill="#e01b25"/>
        <path d="M110.164,174.996c-3.565-.003-6.454-2.892-6.458-6.457v-53.925c.004-3.565,2.892-6.454,6.457-6.458l6.802-.002c.69,0,1.25.56,1.25,1.25s-.56,1.25-1.25,1.25l-6.802.002c-2.185.002-3.956,1.773-3.958,3.958v53.925c.002,2.184,1.773,3.955,3.957,3.957l46.605-.009c.69,0,1.25.56,1.25,1.25s-.56,1.25-1.25,1.25l-46.605.009h.002ZM222.518,40.782c-.281,0-.563-.094-.796-.287l-25.869-21.406c-.532-.44-.606-1.228-.166-1.76.44-.532,1.228-.606,1.76-.166h0l25.869,21.406c.532.44.606,1.228.166,1.76-.238.287-.591.453-.964.453ZM54.991,41.855c-.282,0-.566-.095-.8-.29l-26.91-22.448c-.53-.442-.601-1.231-.159-1.761s1.231-.601,1.761-.159l26.91,22.448c.53.442.602,1.23.159,1.761-.238.285-.59.45-.961.449Z" fill="#e01b25"/>
      </g>
      <path d="M410.97,282.714c15.678-.003,28.434-12.761,28.434-28.44,0-7.595-2.958-14.734-8.328-20.104-1.197-1.197-2.482-2.274-3.84-3.225l-.003-.002h0s-8.005-5.603-8.005-5.603l-.003-.002c-4.734-3.314-10.358-5.098-16.257-5.098h-.006l-374.505.07c-8.606.002-16.331,3.846-21.55,9.907C2.619,235.198.023,241.677.023,248.75c0,7.595,2.958,14.735,8.328,20.105,1.196,1.196,2.479,2.272,3.836,3.222.001,0,.002.002.003.002l7.997,5.601.003.002.003.002c4.735,3.315,10.36,5.1,16.262,5.1h.005l374.509-.071Z"/>
      <g>
        <path d="M402.962,276.131l-374.505.07c-15.164.003-27.457-12.288-27.457-27.452h0c0-15.164,12.293-27.459,27.457-27.462l374.505-.07c15.164-.003,27.457,12.288,27.457,27.452h0c0,15.164-12.293,27.459-27.457,27.462Z" fill="#fff" stroke="#231f20" stroke-miterlimit="10" stroke-width="2"/>
        <g>
          <path d="M39.858,248.72c0-9.872,7.575-16.607,17.238-16.609,2.555,0,6.156.465,9.014,1.575.424.165.693.586.693,1.042v4.648c0,.814-.827,1.345-1.575,1.03-2.185-.921-4.852-1.381-7.089-1.38-6.532.001-10.932,3.937-10.932,9.783,0,5.687,4.173,9.644,10.615,9.643.916,0,1.87-.077,2.796-.258.533-.105.923-.568.923-1.113v-3.69c0-.622-.503-1.127-1.123-1.126h-3.106c-.62,0-1.123-.504-1.123-1.126v-3.888c0-.622.503-1.127,1.123-1.127l10.137-.002c.62,0,1.123.504,1.123,1.126v14.677c0,.426-.237.813-.614,1.007-2.748,1.417-7.347,2.434-11.089,2.435-9.843.002-17.01-7.003-17.01-16.647Z"/>
          <path d="M85.29,232.742h7.147c.47-.001.89.291,1.053.733l10.959,29.591c.273.736-.27,1.519-1.053,1.519h-5.341c-.479.001-.905-.303-1.061-.757l-1.676-4.853c-.157-.454-.583-.758-1.061-.758l-10.875.002c-.479,0-.905.304-1.061.758l-1.676,4.854c-.157.454-.583.758-1.061.758h-5.251c-.783.001-1.326-.782-1.053-1.518l10.96-29.595c.163-.441.583-.734,1.053-.735ZM93.286,251.985l-4.4-11.942-4.423,11.943,8.823-.002Z"/>
          <path d="M111.072,232.738h5.218c.374-.001.724.186.933.498l13.093,19.562v-18.936c0-.622.503-1.127,1.123-1.127h4.648c.62,0,1.123.503,1.123,1.126v29.593c0,.622-.503,1.127-1.123,1.127h-5.172c-.375.001-.724-.186-.933-.498l-13.138-19.652v19.028c0,.622-.503,1.127-1.123,1.127h-4.648c-.62,0-1.123-.503-1.123-1.126v-29.593c0-.622.503-1.127,1.123-1.127Z"/>
          <path d="M145.821,233.858c0-.622.503-1.127,1.123-1.127l9.582-.002c9.162-.002,16.601,6.184,16.601,15.966,0,9.917-7.439,15.879-16.601,15.88l-9.582.002c-.62,0-1.123-.504-1.123-1.126v-29.593ZM156.526,257.91c5.216,0,9.344-3.095,9.344-9.214,0-6.028-4.128-9.075-9.344-9.074h-2.415c-.62,0-1.123.505-1.123,1.127v16.036c0,.622.503,1.127,1.123,1.126h2.415Z"/>
          <path d="M181.184,232.724h4.92c.62-.001,1.123.503,1.123,1.125v10.03c0,.622.503,1.127,1.123,1.126l9.638-.002c.62,0,1.123-.505,1.123-1.127v-10.03c0-.622.503-1.127,1.123-1.127h4.92c.62-.001,1.123.503,1.123,1.125v29.593c0,.622-.503,1.127-1.123,1.127h-4.92c-.62.001-1.123-.503-1.123-1.125v-10.485c0-.622-.503-1.127-1.123-1.126l-9.638.002c-.62,0-1.123.505-1.123,1.127v10.485c0,.622-.503,1.127-1.123,1.127h-4.92c-.62.001-1.123-.503-1.123-1.125v-29.593c0-.622.503-1.127,1.123-1.127Z"/>
          <path d="M216.013,232.717h4.966c.62,0,1.123.503,1.123,1.123v29.599c0,.62-.503,1.124-1.124,1.124h-4.962c-.622,0-1.126-.505-1.126-1.126v-29.596c0-.62.503-1.124,1.124-1.124Z"/>
          <path d="M231.84,232.715h5.218c.374-.001.724.186.933.498l13.093,19.562v-18.936c0-.622.503-1.127,1.123-1.127h4.648c.62,0,1.123.503,1.123,1.126v29.593c0,.622-.503,1.127-1.123,1.127h-5.172c-.375.001-.724-.186-.933-.498l-13.138-19.652v19.028c0,.622-.503,1.127-1.123,1.127h-4.648c-.62,0-1.123-.503-1.123-1.126v-29.593c0-.622.503-1.127,1.123-1.127Z"/>
          <path d="M275.488,232.707h7.147c.47-.001.89.291,1.053.733l10.96,29.591c.273.736-.27,1.519-1.053,1.519h-5.342c-.479.001-.905-.303-1.061-.757l-1.676-4.853c-.157-.454-.583-.758-1.061-.758l-10.875.002c-.479,0-.905.304-1.061.758l-1.676,4.854c-.157.454-.583.758-1.061.758h-5.251c-.783.001-1.326-.782-1.053-1.518l10.959-29.595c.163-.441.583-.734,1.053-.735ZM283.485,251.95l-4.4-11.942-4.423,11.943,8.823-.002Z"/>
          <path d="M297.2,248.671c0-9.872,7.575-16.607,17.236-16.609,2.556,0,6.156.465,9.015,1.575.424.165.693.586.693,1.042v4.648c0,.814-.827,1.345-1.575,1.03-2.185-.921-4.852-1.381-7.089-1.38-6.532.001-10.932,3.937-10.932,9.783,0,5.687,4.173,9.644,10.614,9.643.916,0,1.871-.077,2.797-.258.533-.105.923-.568.923-1.113v-3.69c0-.622-.503-1.127-1.123-1.126h-3.106c-.62,0-1.123-.504-1.123-1.126v-3.888c0-.622.503-1.127,1.123-1.127l10.137-.002c.62,0,1.123.504,1.123,1.126v14.677c0,.426-.236.813-.614,1.007-2.748,1.417-7.347,2.434-11.089,2.435-9.843.002-17.01-7.003-17.01-16.647Z"/>
          <path d="M342.632,232.694h7.147c.47-.001.89.291,1.053.733l10.959,29.591c.273.736-.27,1.519-1.053,1.519h-5.341c-.479.001-.905-.303-1.061-.757l-1.676-4.853c-.157-.454-.583-.758-1.061-.758l-10.875.002c-.479,0-.905.304-1.061.758l-1.676,4.854c-.157.454-.583.758-1.061.758h-5.251c-.783.001-1.326-.782-1.053-1.518l10.96-29.595c.163-.441.583-.734,1.053-.735ZM350.628,251.937l-4.4-11.942-4.423,11.943,8.823-.002Z"/>
          <path d="M367.291,233.816c0-.622.503-1.127,1.123-1.127l11.305-.002c6.895-.001,11.839,4.547,11.839,10.598,0,3.503-1.962,6.738-4.875,8.831-.458.329-.596.95-.326,1.446l5.065,9.303c.409.751-.133,1.667-.986,1.667h-5.902c-.422.001-.808-.236-1-.613l-4.614-9.053c-.192-.377-.578-.614-1-.614h-2.43c-.62,0-1.123.505-1.123,1.127v8.028c0,.622-.503,1.127-1.123,1.127h-4.83c-.62.001-1.123-.503-1.123-1.126v-29.593ZM379.629,248.292c2.858,0,4.763-2.094,4.763-4.55s-1.905-4.549-4.763-4.549h-5.262v9.1h5.262Z"/>
        </g>
      </g>
    </g>
  </g>
</svg>