<svg xmlns="http://www.w3.org/2000/svg" width="439.382" height="209.129" data-name="Layer_1">
  <path
    d="M90.153 146.867a9.061 9.061 0 0 0-2.435-2.536l-12.285-8.604a8.905 8.905 0 0 0-5.136-1.61l-30.134.005a3.142 3.142 0 0 1 3.014-2.273l39.406-.007a8.977 8.977 0 0 0 7.571-4.16v19.186Zm51.517-41.278a4.988 4.988 0 0 0-.729-.621l-12.286-8.604a4.945 4.945 0 0 0-2.852-.895h-.002l-26.67.005a8.957 8.957 0 0 0-6.803 3.128 8.92 8.92 0 0 0-.768 1.033v-3.443a2.993 2.993 0 0 1 2.989-2.989l47.122-.009v12.397Zm-.724 53.231a2.987 2.987 0 0 1-2.265 1.042h-8.484v-25.04a2.993 2.993 0 0 1 2.989-2.989h4.902a4.979 4.979 0 0 0 3.583-1.522v26.563c0 .743-.273 1.424-.724 1.947Zm163.633-45.107a2.981 2.981 0 0 1-2.265 1.041l-13.986.003a4.98 4.98 0 0 0-3.781 1.737 4.97 4.97 0 0 0-1.208 3.251v4.529l-9.244-6.472a16.826 16.826 0 0 0-9.698-3.041h-5.407v-21.59l46.312-.009v18.603c0 .744-.273 1.425-.724 1.948Zm94.756-5.417-42.539.009a8.976 8.976 0 0 0-6.801 3.128 8.933 8.933 0 0 0-1.804 3.312h-2.84V93.154l53.984-.01v15.152Zm-51.516 74.526-.052-.053a5.062 5.062 0 0 0-.673-.565l-10.744-7.523v-20.58a2.992 2.992 0 0 1 2.989-2.988l8.481-.002v31.712Zm86.575 26.228a4.994 4.994 0 0 0 4.988-4.989v-17.782a4.956 4.956 0 0 0-1.461-3.527 4.935 4.935 0 0 0-.674-.565l-12.29-8.605a4.95 4.95 0 0 0-2.851-.894h-.002l-34.237.006v-25.043a2.992 2.992 0 0 1 2.989-2.988l43.539-.009a4.994 4.994 0 0 0 4.988-4.989V70.367a4.954 4.954 0 0 0-1.461-3.527 5.016 5.016 0 0 0-.674-.566l-12.29-8.603a4.95 4.95 0 0 0-2.851-.894h-.002l-183.417.034 11.552-14.104-36.297-34.105L201.654 0l-21.799 26.612 40.588 28.866 1.907 1.335-151.263.028 11.552-14.104L46.342 8.633 34.058.031 12.259 26.644 52.847 55.51l2.211 1.548a5 5 0 0 0-3.543 4.775v30.516a3.12 3.12 0 0 1-.759 2.042 3.128 3.128 0 0 1-2.375 1.092l-39.405.007a8.958 8.958 0 0 0-6.803 3.128A8.946 8.946 0 0 0 0 104.469v48.441c0 2.397.934 4.652 2.629 6.348.378.377.783.717 1.211 1.017l12.284 8.605a8.901 8.901 0 0 0 5.137 1.611l30.134-.006a3.138 3.138 0 0 1-3.013 2.273l-43.247.009a5.124 5.124 0 0 0-3.891 1.788A5.105 5.105 0 0 0 0 177.9v17.49c0 1.738.869 3.277 2.196 4.207l12.282 8.604h.002a5.1 5.1 0 0 0 2.938.927l65.165-.013c4.95 0 8.977-4.027 8.977-8.978V183.47a9.052 9.052 0 0 0 2.432 2.536l12.285 8.605a8.93 8.93 0 0 0 5.138 1.619l30.306-.006a4.993 4.993 0 0 0 2.082 3.371l12.286 8.605c.809.567 1.794.9 2.855.9l17.78-.004a4.994 4.994 0 0 0 4.989-4.988V93.183h2.582v61.229c0 3.707 1.444 7.192 4.065 9.813.584.584 1.21 1.109 1.873 1.573l12.287 8.605a13.778 13.778 0 0 0 7.938 2.49h.004l8.482-.001v18.603c0 1.689.844 3.185 2.133 4.087l12.259 8.586.028.02c.809.567 1.794.9 2.855.9l17.782-.003a4.994 4.994 0 0 0 4.988-4.989v-2.229l9.024 6.32c.83.581 1.817.895 2.852.895h.002l17.782-.003a4.994 4.994 0 0 0 4.988-4.989v-56.755l2.662 1.864v42.273c0 2.397.934 4.652 2.629 6.348.378.378.783.718 1.212 1.018l12.289 8.605a8.905 8.905 0 0 0 5.136 1.61l16.753-.003.029.021 9.89-.002a4.994 4.994 0 0 0 4.988-4.989v-7.773a9.055 9.055 0 0 0 2.431 2.534l12.289 8.605a8.926 8.926 0 0 0 5.138 1.619l65.308-.013Z"/>
  <path fill="#fff" d="M68.989 34.225 34.153 1.493 13.711 26.449l38.954 27.705 16.324-19.929z"/>
  <path
    d="M52.847 55.51 12.259 26.644 34.058.031l36.296 34.104-17.507 21.374ZM15.163 26.255l37.321 26.542 15.14-18.483L34.248 2.955l-19.085 23.3Z"/>
  <path fill="#fff" d="M236.585 34.194 201.749 1.462l-20.442 24.956 38.955 27.704 16.323-19.928z"/>
  <path
    d="m220.443 55.479-40.588-28.866L201.654 0l36.296 34.104-17.507 21.374Zm-37.684-29.255 37.321 26.542 15.14-18.483-33.376-31.359-19.086 23.3Z"/>
  <path fill="#fff"
        d="m387.373 57.783-38.555.007-64.478.012-103.033.019-90.155.017-34.649.006a3.988 3.988 0 0 0-3.988 3.989v30.515a4.134 4.134 0 0 1-4.134 4.134l-39.405.007a7.979 7.979 0 0 0-7.977 7.978v48.442a7.975 7.975 0 0 0 7.977 7.975l39.404-.007a4.134 4.134 0 0 1 4.134 4.134v4.611a4.134 4.134 0 0 1-4.134 4.134l-43.247.008a4.135 4.135 0 0 0-4.134 4.135v17.49a4.133 4.133 0 0 0 4.134 4.133l65.164-.012a7.979 7.979 0 0 0 7.977-7.978V143.09a7.975 7.975 0 0 0-7.977-7.975l-39.405.007a4.133 4.133 0 0 1-4.134-4.133v-4.612a4.134 4.134 0 0 1 4.134-4.134l39.405-.007a7.979 7.979 0 0 0 7.977-7.978V87.586a3.989 3.989 0 0 1 3.988-3.989l8.89-.002 51.517-.01v73.286a3.989 3.989 0 0 1-3.988 3.989l-17.782.003a3.987 3.987 0 0 1-3.988-3.988v-30.66a3.989 3.989 0 0 1 3.988-3.989h4.902a3.99 3.99 0 0 0 3.988-3.99v-17.782a3.988 3.988 0 0 0-3.988-3.988l-26.67.005a7.979 7.979 0 0 0-7.977 7.978v1.953h-.002v72.247a7.975 7.975 0 0 0 7.977 7.975l39.552-.007a3.987 3.987 0 0 1 3.988 3.988v4.902a3.988 3.988 0 0 0 3.988 3.988l17.78-.003a3.988 3.988 0 0 0 3.988-3.989V83.58l12.88-.002h3.988v70.834c0 7.113 5.766 12.878 12.879 12.877l17.782-.003a3.987 3.987 0 0 1 3.988 3.988v24.221a3.988 3.988 0 0 0 3.988 3.988l17.782-.003a3.988 3.988 0 0 0 3.988-3.989v-49.979a3.989 3.989 0 0 1 3.988-3.989h.913a3.987 3.987 0 0 1 3.988 3.987v49.979a3.988 3.988 0 0 0 3.988 3.988l17.782-.003a3.988 3.988 0 0 0 3.988-3.989v-63.772c0-8.811-7.143-15.952-15.953-15.95l-9.805.002-8.89.002V83.57l38.637-.007 21.963-.004v28.209a3.989 3.989 0 0 1-3.988 3.989l-13.986.003a3.988 3.988 0 0 0-3.988 3.989v17.782a3.988 3.988 0 0 0 3.988 3.988h4.985a3.986 3.986 0 0 1 3.988 3.987v45.97a7.975 7.975 0 0 0 7.977 7.975l17.782-.003v.021l8.89-.002a3.988 3.988 0 0 0 3.988-3.989v-17.781a3.988 3.988 0 0 0-3.988-3.988h-4.902a3.986 3.986 0 0 1-3.988-3.987v-24.221a3.989 3.989 0 0 1 3.988-3.989l21.77-.004v49.979a7.975 7.975 0 0 0 7.977 7.975l65.307-.012a3.988 3.988 0 0 0 3.988-3.989V177.68a3.988 3.988 0 0 0-3.988-3.988l-43.539.008a3.987 3.987 0 0 1-3.988-3.988v-30.661a3.989 3.989 0 0 1 3.988-3.989l43.539-.008a3.988 3.988 0 0 0 3.988-3.989V61.764a3.988 3.988 0 0 0-3.988-3.988l-34.731.006Zm-167.429 57.986v21.77a3.989 3.989 0 0 1-3.988 3.989h-.913a3.987 3.987 0 0 1-3.988-3.987V83.574l8.89-.002v32.197Zm180.391-6.473-43.539.008c-3.879 0-7.104 2.772-7.821 6.441l-12.925.002a3.987 3.987 0 0 1-3.988-3.988V83.55l16.756-.003 38.555-.007 8.974-.002a3.987 3.987 0 0 1 3.988 3.988v21.77Z"/>
  <path
    d="M5.134 200.523A5.139 5.139 0 0 1 0 195.391v-17.49a5.14 5.14 0 0 1 5.134-5.135l43.247-.009a3.138 3.138 0 0 0 3.134-3.134v-4.611a3.138 3.138 0 0 0-3.135-3.134l-39.404.008a8.92 8.92 0 0 1-6.348-2.628A8.925 8.925 0 0 1 0 152.91v-48.441c0-4.949 4.027-8.978 8.976-8.979l39.405-.007a3.139 3.139 0 0 0 3.134-3.135V61.832a4.994 4.994 0 0 1 4.988-4.988l365.599-.068h.002c1.332 0 2.583.519 3.525 1.46a4.954 4.954 0 0 1 1.461 3.527v69.297a4.994 4.994 0 0 1-4.988 4.989l-43.539.009a2.992 2.992 0 0 0-2.989 2.988v30.661c0 .798.311 1.549.875 2.112a2.967 2.967 0 0 0 2.111.875h.001l43.539-.008h.002c1.331 0 2.583.519 3.525 1.46a4.956 4.956 0 0 1 1.461 3.527v17.781a4.994 4.994 0 0 1-4.988 4.989l-65.307.013c-4.95 0-8.977-4.026-8.977-8.976v-48.979l-20.77.005a2.992 2.992 0 0 0-2.989 2.988v24.222a2.991 2.991 0 0 0 2.988 2.987h4.903c1.332 0 2.583.519 3.525 1.46a4.956 4.956 0 0 1 1.461 3.527v17.781a4.994 4.994 0 0 1-4.988 4.989l-9.89.002v-.021l-16.782.003a8.92 8.92 0 0 1-6.348-2.628 8.92 8.92 0 0 1-2.629-6.348v-45.97a2.991 2.991 0 0 0-2.988-2.987h-4.985a4.993 4.993 0 0 1-4.989-4.986v-17.782a4.994 4.994 0 0 1 4.988-4.988l13.986-.003a2.993 2.993 0 0 0 2.989-2.989V84.554l-58.6.012v30.197l17.695-.004c4.529 0 8.786 1.763 11.988 4.964s4.966 7.458 4.966 11.986v63.772a4.994 4.994 0 0 1-4.988 4.989l-17.782.003h-.002a4.955 4.955 0 0 1-3.525-1.46 4.954 4.954 0 0 1-1.461-3.527v-49.979a2.992 2.992 0 0 0-2.988-2.988h-.913a2.993 2.993 0 0 0-2.988 2.989v49.979a4.996 4.996 0 0 1-4.988 4.989l-17.782.003a4.994 4.994 0 0 1-4.989-4.987V171.27a2.991 2.991 0 0 0-2.988-2.987l-17.781.003h-.004c-3.706 0-7.19-1.442-9.81-4.062a13.787 13.787 0 0 1-4.065-9.813V84.576l-14.869.003v110.924a4.994 4.994 0 0 1-4.989 4.988l-17.78.004a4.994 4.994 0 0 1-4.989-4.988v-4.902a2.991 2.991 0 0 0-2.988-2.987l-39.552.008c-4.95 0-8.977-4.026-8.977-8.976l.002-74.201c0-4.948 4.027-8.976 8.976-8.977l26.67-.005h.002c1.331 0 2.583.519 3.525 1.46a4.954 4.954 0 0 1 1.461 3.527v17.781a4.994 4.994 0 0 1-4.988 4.989h-4.902a2.993 2.993 0 0 0-2.989 2.99v30.66c0 .799.311 1.549.875 2.113a2.97 2.97 0 0 0 2.111.874h.001l17.782-.003a2.993 2.993 0 0 0 2.989-2.989V84.583l-59.407.012a2.993 2.993 0 0 0-2.989 2.989v26.672c0 4.949-4.027 8.978-8.977 8.979l-39.405.007a3.139 3.139 0 0 0-3.134 3.135v4.611c0 .837.326 1.624.918 2.216a3.11 3.11 0 0 0 2.214.917h.001l39.405-.007c2.398 0 4.652.933 6.348 2.628s2.629 3.949 2.629 6.347v48.442c0 4.95-4.027 8.978-8.977 8.978l-65.164.013Zm43.247-40.645a5.14 5.14 0 0 1 5.135 5.134v4.611a5.14 5.14 0 0 1-5.134 5.134l-43.247.009A3.138 3.138 0 0 0 2 177.901v17.49a3.137 3.137 0 0 0 3.134 3.133l65.164-.013c3.847 0 6.977-3.13 6.977-6.978v-48.442a6.934 6.934 0 0 0-2.043-4.933 6.933 6.933 0 0 0-4.933-2.042l-39.405.007h-.002a5.094 5.094 0 0 1-3.628-1.503 5.1 5.1 0 0 1-1.504-3.63v-4.611a5.142 5.142 0 0 1 5.133-5.135l39.405-.007c3.847 0 6.977-3.132 6.977-6.979V87.586a4.994 4.994 0 0 1 4.988-4.989l61.407-.012v74.286a4.996 4.996 0 0 1-4.988 4.989l-17.782.003h-.002a4.956 4.956 0 0 1-3.525-1.46 4.954 4.954 0 0 1-1.461-3.527v-30.66a4.994 4.994 0 0 1 4.988-4.989h4.902a2.993 2.993 0 0 0 2.989-2.99v-17.781c0-.799-.311-1.549-.875-2.113a2.97 2.97 0 0 0-2.111-.874h-.001l-26.67.005c-3.847 0-6.977 3.131-6.977 6.978l-.002 74.2c0 3.847 3.13 6.976 6.977 6.976l39.552-.008a4.994 4.994 0 0 1 4.989 4.987v4.902a2.992 2.992 0 0 0 2.988 2.988l17.78-.004a2.992 2.992 0 0 0 2.989-2.988V82.581l18.869-.003v71.835a11.8 11.8 0 0 0 3.479 8.399 11.8 11.8 0 0 0 8.396 3.477h.003l17.781-.003a4.994 4.994 0 0 1 4.989 4.987v24.222a2.991 2.991 0 0 0 2.988 2.987l17.782-.003a2.993 2.993 0 0 0 2.989-2.989v-49.979a4.996 4.996 0 0 1 4.988-4.989h.914a4.994 4.994 0 0 1 4.988 4.988v49.979c0 .799.311 1.549.875 2.113a2.97 2.97 0 0 0 2.111.874h.001l17.782-.003a2.993 2.993 0 0 0 2.989-2.989v-63.772c0-3.994-1.555-7.749-4.38-10.572s-6.579-4.378-10.574-4.378l-19.695.004V82.569l62.6-.012v29.209a4.994 4.994 0 0 1-4.988 4.989l-13.986.003a2.992 2.992 0 0 0-2.989 2.988v17.782a2.991 2.991 0 0 0 2.988 2.987h4.985a4.993 4.993 0 0 1 4.989 4.986v45.97c0 1.863.726 3.615 2.043 4.933a6.93 6.93 0 0 0 4.933 2.043l18.782-.003v.021l7.89-.002a2.993 2.993 0 0 0 2.989-2.989v-17.781c0-.798-.311-1.549-.875-2.112a2.967 2.967 0 0 0-2.111-.875h-4.903a4.993 4.993 0 0 1-4.989-4.986v-24.222a4.994 4.994 0 0 1 4.988-4.988l22.77-.005v50.979c0 3.847 3.13 6.976 6.977 6.976l65.307-.013a2.993 2.993 0 0 0 2.989-2.989v-17.781c0-.798-.311-1.548-.875-2.112a2.967 2.967 0 0 0-2.111-.875h-.001l-43.539.008h-.002a4.956 4.956 0 0 1-3.525-1.46 4.956 4.956 0 0 1-1.461-3.527V139.05a4.994 4.994 0 0 1 4.988-4.988l43.539-.009a2.993 2.993 0 0 0 2.989-2.989v-69.3c0-.799-.311-1.549-.875-2.113a2.97 2.97 0 0 0-2.111-.874h-.001l-365.6.068a2.992 2.992 0 0 0-2.989 2.988v30.516a5.142 5.142 0 0 1-5.133 5.135l-39.405.007c-3.847 0-6.977 3.132-6.977 6.979v48.441c0 1.863.726 3.615 2.043 4.933a6.93 6.93 0 0 0 4.933 2.043l39.404-.008Zm166.659-17.35a4.956 4.956 0 0 1-3.525-1.46 4.956 4.956 0 0 1-1.461-3.527V82.573h10.89v54.966a4.996 4.996 0 0 1-4.988 4.989h-.916Zm-2.986-57.955v52.968c0 .798.311 1.548.875 2.112a2.967 2.967 0 0 0 2.111.875h.915a2.993 2.993 0 0 0 2.988-2.989V84.572h-6.89Zm123.996 32.175a4.994 4.994 0 0 1-4.989-4.988V82.551l65.285-.012h.002c1.331 0 2.583.519 3.525 1.46a4.956 4.956 0 0 1 1.461 3.527v22.77l-44.539.009a6.983 6.983 0 0 0-6.84 5.632l-.158.809-13.748.003Zm-2.988-32.197v27.209a2.992 2.992 0 0 0 2.988 2.988l12.141-.003a8.989 8.989 0 0 1 8.605-6.44l42.539-.009v-20.77c0-.798-.311-1.549-.875-2.112a2.967 2.967 0 0 0-2.111-.875h-.001l-63.285.012Z"/>
  <g fill="#e01b25">
    <path
      d="M14.897 187.893a1.25 1.25 0 0 1 0-2.5l45.071-.009c1.06 0 2.056-.414 2.804-1.165a3.933 3.933 0 0 0 1.153-2.811l-.127-28.223a3.964 3.964 0 0 0-3.956-3.938h-.001l-40.939.008a6.419 6.419 0 0 1-4.572-1.896 6.413 6.413 0 0 1-1.885-4.574l.063-28.292a6.408 6.408 0 0 1 1.905-4.564 6.413 6.413 0 0 1 4.552-1.879h.022l41.417.13h.012c1.057 0 2.05-.411 2.798-1.158a3.934 3.934 0 0 0 1.161-2.808l-.07-34.741h1.252l342.647-.064a6.464 6.464 0 0 1 6.458 6.457v41.073a6.414 6.414 0 0 1-1.904 4.579c-1.228 1.221-2.883 1.858-4.588 1.879l-41.447-.211h-.021a3.937 3.937 0 0 0-2.792 1.152 3.93 3.93 0 0 0-1.166 2.807l.012 54.228a3.961 3.961 0 0 0 3.957 3.956l45.482-.009a1.25 1.25 0 0 1 0 2.5l-45.482.009a6.465 6.465 0 0 1-6.458-6.456l-.012-54.228c0-1.731.676-3.357 1.903-4.578 1.228-1.222 2.857-1.923 4.588-1.881l41.447.211a3.87 3.87 0 0 0 2.812-1.151 3.933 3.933 0 0 0 1.167-2.807V75.866a3.961 3.961 0 0 0-3.957-3.957l-341.395.064.065 32.235a6.417 6.417 0 0 1-1.894 4.582 6.416 6.416 0 0 1-4.565 1.89h-.02l-41.418-.13h-.014a3.93 3.93 0 0 0-2.79 1.151 3.93 3.93 0 0 0-1.167 2.798l-.063 28.292a3.933 3.933 0 0 0 1.155 2.803 3.934 3.934 0 0 0 2.802 1.162l40.939-.008h.002c3.544 0 6.439 2.883 6.455 6.427l.127 28.223a6.416 6.416 0 0 1-1.881 4.586 6.414 6.414 0 0 1-4.576 1.901l-45.07.009Z"/>
    <path
      d="M315.586 187.836a6.41 6.41 0 0 1-4.565-1.892 6.413 6.413 0 0 1-1.89-4.568l.024-48.288a3.935 3.935 0 0 0-1.158-2.799 3.934 3.934 0 0 0-2.799-1.159l-6.957.002a1.25 1.25 0 0 1 0-2.5l6.957-.002c1.726 0 3.348.672 4.567 1.892a6.415 6.415 0 0 1 1.89 4.568l-.024 48.288c0 1.057.411 2.051 1.158 2.799a3.927 3.927 0 0 0 2.797 1.159h6.5a1.25 1.25 0 1 1 0 2.499h-6.5Z"/>
    <path
      d="M304.306 129.131a1.25 1.25 0 0 1 0-2.5l9.952-.002a3.963 3.963 0 0 0 3.958-3.959V70.674a1.25 1.25 0 0 1 2.5 0v51.996a6.466 6.466 0 0 1-6.457 6.459l-9.952.002Z"/>
    <path
      d="M313.592 129.129a1.25 1.25 0 0 1 0-2.5l47.902-.009a1.25 1.25 0 0 1 0 2.5l-47.902.009ZM232.627 186.834c-.69 0-1.25-.56-1.25-1.25V70.69a1.25 1.25 0 0 1 2.5 0v114.894c0 .69-.56 1.25-1.25 1.25Z"/>
    <path
      d="M267.669 186.827c-.69 0-1.25-.56-1.25-1.25v-51.904a3.96 3.96 0 0 0-3.957-3.956l-29.835.006a1.25 1.25 0 0 1 0-2.5l29.835-.006a6.464 6.464 0 0 1 6.458 6.456v51.904c0 .69-.56 1.25-1.25 1.25ZM203.577 155.714a6.413 6.413 0 0 1-4.559-1.885 6.415 6.415 0 0 1-1.897-4.571V70.697a1.25 1.25 0 0 1 2.5 0v78.561a3.93 3.93 0 0 0 1.162 2.801 3.93 3.93 0 0 0 2.794 1.155h.011l29.035-.079h.003a1.25 1.25 0 0 1 .003 2.5l-29.035.079h-.018ZM155.746 186.849c-.69 0-1.25-.56-1.25-1.25V70.705a1.25 1.25 0 0 1 2.5 0v114.894c0 .69-.56 1.25-1.25 1.25Z"/>
    <path
      d="M109.141 174.996a6.464 6.464 0 0 1-6.458-6.457v-53.925a6.465 6.465 0 0 1 6.457-6.458l6.802-.002a1.25 1.25 0 0 1 0 2.5l-6.802.002a3.962 3.962 0 0 0-3.958 3.958v53.925a3.961 3.961 0 0 0 3.957 3.957l46.605-.009a1.25 1.25 0 0 1 0 2.5l-46.605.009ZM221.495 40.782c-.281 0-.563-.094-.796-.287L194.83 19.089a1.25 1.25 0 1 1 1.594-1.926l25.869 21.406a1.25 1.25 0 0 1-.798 2.213ZM53.968 41.855c-.282 0-.566-.095-.8-.29l-26.91-22.448a1.25 1.25 0 0 1 1.602-1.92l26.91 22.448a1.25 1.25 0 0 1-.802 2.21Z"/>
  </g>
</svg>
