<?xml version="1.0" encoding="UTF-8"?>
<svg id="b" data-name="Layer_2" xmlns="http://www.w3.org/2000/svg" width="310.05" height="310.05" viewBox="0 0 310.05 310.05">
  <g id="c" data-name="Layer_1">
    <g>
      <g>
        <path d="M155.024,2.769C70.935,2.769,2.768,70.936,2.768,155.025s68.167,152.257,152.257,152.257,152.257-68.167,152.257-152.257S239.114,2.769,155.024,2.769ZM155.024,286.52c-72.623,0-131.494-58.872-131.494-131.494S82.402,23.531,155.024,23.531s131.494,58.872,131.494,131.494-58.872,131.494-131.494,131.494Z" fill="#ea612f"/>
        <path d="M155.025,310.05C69.543,310.05,0,240.506,0,155.025S69.543,0,155.025,0s155.025,69.544,155.025,155.025-69.543,155.025-155.025,155.025ZM155.025,5.537C72.598,5.537,5.537,72.596,5.537,155.025s67.061,149.488,149.488,149.488,149.488-67.06,149.488-149.488S237.452,5.537,155.025,5.537ZM155.025,289.288c-74.033,0-134.263-60.23-134.263-134.263S80.992,20.762,155.025,20.762s134.263,60.23,134.263,134.263-60.23,134.263-134.263,134.263ZM155.025,26.299c-70.981,0-128.726,57.746-128.726,128.726s57.745,128.726,128.726,128.726,128.726-57.746,128.726-128.726S226.006,26.299,155.025,26.299Z"/>
      </g>
      <g>
        <path d="M155.024,85.818c-38.222,0-69.208,30.985-69.208,69.208s30.985,69.208,69.208,69.208,69.208-30.985,69.208-69.208-30.985-69.208-69.208-69.208ZM155.024,203.471c-26.756,0-48.445-21.69-48.445-48.445s21.69-48.445,48.445-48.445,48.445,21.69,48.445,48.445-21.69,48.445-48.445,48.445Z" fill="#1e8ec0"/>
        <path d="M155.025,227.001c-39.689,0-71.976-32.288-71.976-71.976s32.287-71.976,71.976-71.976,71.976,32.288,71.976,71.976-32.287,71.976-71.976,71.976ZM155.025,88.586c-36.634,0-66.439,29.805-66.439,66.439s29.805,66.439,66.439,66.439,66.439-29.805,66.439-66.439-29.805-66.439-66.439-66.439ZM155.025,206.239c-28.24,0-51.214-22.974-51.214-51.214s22.974-51.214,51.214-51.214,51.214,22.974,51.214,51.214-22.974,51.214-51.214,51.214ZM155.025,109.348c-25.185,0-45.677,20.491-45.677,45.677s20.492,45.677,45.677,45.677,45.677-20.491,45.677-45.677-20.492-45.677-45.677-45.677Z"/>
      </g>
      <g>
        <path d="M155.024,65.055c-49.689,0-89.97,40.281-89.97,89.97s40.281,89.97,89.97,89.97,89.97-40.281,89.97-89.97-40.281-89.97-89.97-89.97ZM155.024,224.233c-38.222,0-69.208-30.985-69.208-69.208s30.985-69.208,69.208-69.208,69.208,30.985,69.208,69.208-30.985,69.208-69.208,69.208Z" fill="#508341"/>
        <path d="M155.025,247.763c-51.135,0-92.738-41.602-92.738-92.738s41.603-92.738,92.738-92.738,92.738,41.602,92.738,92.738-41.603,92.738-92.738,92.738ZM155.025,67.823c-48.083,0-87.202,39.119-87.202,87.202s39.119,87.202,87.202,87.202,87.202-39.119,87.202-87.202-39.119-87.202-87.202-87.202ZM155.025,227.001c-39.689,0-71.976-32.288-71.976-71.976s32.287-71.976,71.976-71.976,71.976,32.288,71.976,71.976-32.287,71.976-71.976,71.976ZM155.025,88.586c-36.634,0-66.439,29.804-66.439,66.439s29.805,66.439,66.439,66.439,66.439-29.804,66.439-66.439-29.805-66.439-66.439-66.439Z"/>
      </g>
      <g>
        <path d="M155.024,44.293c-61.156,0-110.732,49.576-110.732,110.732s49.576,110.732,110.732,110.732,110.732-49.576,110.732-110.732-49.576-110.732-110.732-110.732ZM155.024,244.995c-49.689,0-89.97-40.281-89.97-89.97s40.281-89.97,89.97-89.97,89.97,40.281,89.97,89.97-40.281,89.97-89.97,89.97Z" fill="#ebb437"/>
        <path d="M155.025,268.525c-62.584,0-113.5-50.916-113.5-113.5s50.916-113.5,113.5-113.5,113.5,50.916,113.5,113.5-50.916,113.5-113.5,113.5ZM155.025,47.061c-59.532,0-107.964,48.432-107.964,107.964s48.432,107.964,107.964,107.964,107.964-48.432,107.964-107.964-48.432-107.964-107.964-107.964ZM155.025,247.763c-51.135,0-92.738-41.602-92.738-92.738s41.603-92.738,92.738-92.738,92.738,41.602,92.738,92.738-41.603,92.738-92.738,92.738ZM155.025,67.823c-48.083,0-87.202,39.119-87.202,87.202s39.119,87.202,87.202,87.202,87.202-39.119,87.202-87.202-39.119-87.202-87.202-87.202Z"/>
      </g>
      <g>
        <path d="M155.024,23.531c-72.623,0-131.494,58.872-131.494,131.494s58.872,131.494,131.494,131.494,131.494-58.872,131.494-131.494S227.647,23.531,155.024,23.531ZM155.024,265.757c-61.156,0-110.732-49.576-110.732-110.732s49.576-110.732,110.732-110.732,110.732,49.576,110.732,110.732-49.576,110.732-110.732,110.732Z" fill="#f4929f"/>
        <path d="M155.025,289.288c-74.033,0-134.263-60.23-134.263-134.263S80.992,20.762,155.025,20.762s134.263,60.23,134.263,134.263-60.23,134.263-134.263,134.263ZM155.025,26.299c-70.981,0-128.726,57.746-128.726,128.726s57.745,128.726,128.726,128.726,128.726-57.746,128.726-128.726S226.006,26.299,155.025,26.299ZM155.025,268.525c-62.584,0-113.5-50.916-113.5-113.5s50.916-113.5,113.5-113.5,113.5,50.916,113.5,113.5-50.916,113.5-113.5,113.5ZM155.025,47.061c-59.532,0-107.964,48.432-107.964,107.964s48.432,107.964,107.964,107.964,107.964-48.432,107.964-107.964-48.432-107.964-107.964-107.964Z"/>
      </g>
    </g>
  </g>
</svg>