<?xml version="1.0" encoding="UTF-8"?>
<svg id="b" data-name="Layer_2" xmlns="http://www.w3.org/2000/svg" width="417.434" height="116.97" viewBox="0 0 417.434 116.97">
  <g id="c" data-name="Layer_1">
    <g>
      <g>
        <path d="M419.021,93.043c5.902,0,10.704-4.801,10.704-10.704V19.307c0-3.626-1.812-6.837-4.578-8.774h-.001s0,0,0,0l-12.289-8.602h-.001c-1.736-1.216-3.848-1.93-6.124-1.93H10.703C7.464,0,4.555,1.447,2.591,3.728.977,5.603,0,8.041,0,10.703v63.032C0,77.361,1.812,80.571,4.577,82.508c0,0,0,0,.001,0l12.282,8.602h.001s.001.002.001.002c1.736,1.216,3.849,1.93,6.125,1.93h396.033Z"/>
        <g>
          <rect x="1.784" y="1.784" width="413.866" height="80.87" rx="5" ry="5" fill="#ed6033"/>
          <path d="M406.731,84.439H10.703c-5.902,0-10.703-4.801-10.703-10.703V10.703C0,4.801,4.801,0,10.703,0h396.027c5.902,0,10.703,4.801,10.703,10.703v63.032c0,5.902-4.801,10.703-10.703,10.703ZM10.703,3.568c-3.935,0-7.136,3.201-7.136,7.136v63.032c0,3.935,3.2,7.136,7.136,7.136h396.027c3.935,0,7.136-3.201,7.136-7.136V10.703c0-3.935-3.2-7.136-7.136-7.136H10.703Z"/>
        </g>
      </g>
      <g>
        <path d="M391.673,71.474h0c0-2.819-2.285-5.105-5.104-5.105h-23.081c-2.819,0-5.104,2.285-5.104,5.104h0c0,2.819,2.285,5.105,5.104,5.105h4.55c1.042,0,1.886.845,1.886,1.886v25.078c0,1.042-.845,1.886-1.886,1.886h-4.55c-2.819,0-5.104,2.285-5.104,5.104h0c0,2.819,2.285,5.104,5.104,5.104h23.081c2.819,0,5.104-2.285,5.104-5.104h0c0-2.819-2.285-5.104-5.104-5.104h-4.55c-1.042,0-1.886-.845-1.886-1.886v-25.078c0-1.042.845-1.886,1.886-1.886h4.55c2.819,0,5.104-2.285,5.104-5.104Z" fill="#f6eedc"/>
        <path d="M386.568,116.97h-23.081c-3.549,0-6.437-2.887-6.437-6.436s2.888-6.436,6.437-6.436h4.549c.306,0,.555-.249.555-.555v-25.079c0-.306-.25-.555-.555-.555h-4.549c-3.549,0-6.437-2.888-6.437-6.436s2.888-6.436,6.437-6.436h23.081c3.549,0,6.436,2.888,6.436,6.436s-2.887,6.436-6.436,6.436h-4.549c-.306,0-.555.249-.555.555v25.079c0,.306.25.555.555.555h4.549c3.549,0,6.436,2.888,6.436,6.436s-2.887,6.436-6.436,6.436ZM363.487,106.762c-2.081,0-3.774,1.692-3.774,3.773s1.693,3.772,3.774,3.772h23.081c2.081,0,3.772-1.692,3.772-3.772s-1.692-3.773-3.772-3.773h-4.549c-1.775,0-3.218-1.443-3.218-3.218v-25.079c0-1.774,1.443-3.218,3.218-3.218h4.549c2.081,0,3.772-1.692,3.772-3.773s-1.692-3.773-3.772-3.773h-23.081c-2.081,0-3.774,1.692-3.774,3.773s1.693,3.773,3.774,3.773h4.549c1.775,0,3.218,1.443,3.218,3.218v25.079c0,1.774-1.443,3.218-3.218,3.218h-4.549Z"/>
      </g>
      <g>
        <path d="M70.244,18.298c-14.408-14.408-38.387-13.413-51.473,2.985-9.815,12.299-9.923,30.125-.242,42.529,10.447,13.384,28.044,16.714,42.087,10.054,1.23-.583,2.696-.304,3.658.659l19.986,19.986c2.554,2.554,6.695,2.554,9.248,0l4.141-4.141c2.554-2.554,2.554-6.695,0-9.248l-19.986-19.986c-.963-.963-1.241-2.429-.658-3.66,6.074-12.81,3.837-28.577-6.762-39.176Z" fill="#f6eedc"/>
        <path d="M98.926,91.646l-4.141,4.141c-3.255,3.255-8.549,3.255-11.803.001l-19.986-19.986c-.433-.433-1.079-.555-1.607-.305-15.483,7.344-33.694,2.997-44.285-10.574-10.162-13.02-10.056-31.848.254-44.767,6.598-8.266,15.982-13.13,26.44-13.716,10.316-.577,20.42,3.279,27.721,10.58,10.82,10.82,13.681,27.387,7.117,41.227-.251.53-.13,1.177.303,1.61l19.986,19.986c3.253,3.253,3.253,8.548,0,11.801ZM22.745,19.542c-.898.898-1.754,1.855-2.563,2.869-9.279,11.627-9.375,28.573-.229,40.292,9.542,12.226,25.946,16.145,39.89,9.531,1.905-.903,4.199-.495,5.708,1.014l19.986,19.986c1.846,1.846,4.848,1.846,6.695-.001l4.141-4.141c1.846-1.846,1.846-4.848,0-6.694l-19.986-19.986c-1.509-1.509-1.916-3.804-1.013-5.711,5.91-12.463,3.335-27.383-6.408-37.126-6.575-6.575-15.675-10.048-24.966-9.528-8.136.456-15.556,3.795-21.256,9.494Z"/>
      </g>
      <g>
        <circle cx="45.841" cy="42.701" r="20.613" fill="#ebb437"/>
        <path d="M61.693,58.554c-8.741,8.741-22.964,8.741-31.706,0s-8.741-22.964,0-31.705c8.741-8.741,22.964-8.741,31.705,0,8.741,8.741,8.741,22.964,0,31.706ZM32.542,29.403c-7.333,7.333-7.333,19.265,0,26.597,7.333,7.333,19.265,7.333,26.598,0,7.333-7.333,7.333-19.265,0-26.598-7.333-7.333-19.264-7.333-26.597,0Z"/>
      </g>
    </g>
  </g>
</svg>