<?xml version="1.0" encoding="UTF-8"?>
<svg id="b" data-name="Layer_2" xmlns="http://www.w3.org/2000/svg" width="135.103" height="135.103" viewBox="0 0 135.103 135.103">
  <g id="c" data-name="Layer_1">
    <g>
      <polygon points="67.552 3.11 80.012 37.47 113.119 21.985 97.634 55.091 131.994 67.552 97.634 80.012 113.119 113.119 80.012 97.633 67.552 131.993 55.092 97.633 21.985 113.119 37.471 80.012 3.111 67.552 37.471 55.091 21.985 21.985 55.092 37.47 67.552 3.11" fill="#ebb437"/>
      <path d="M67.552,135.103c-1.309,0-2.479-.82-2.925-2.05l-11.299-31.161-30.025,14.043c-1.182.556-2.591.308-3.517-.618-.926-.925-1.172-2.331-.62-3.517l14.045-30.023-31.161-11.302c-1.23-.446-2.05-1.614-2.05-2.923s.82-2.479,2.05-2.923l31.161-11.301-14.045-30.025c-.553-1.186-.307-2.592.62-3.517.923-.926,2.33-1.174,3.517-.618l30.025,14.045,11.299-31.162c.446-1.23,1.616-2.05,2.925-2.05s2.479.82,2.925,2.05l11.299,31.162,30.025-14.045c1.188-.554,2.594-.307,3.517.618.926.925,1.172,2.331.62,3.517l-14.045,30.025,31.161,11.301c1.23.445,2.05,1.614,2.05,2.923s-.82,2.477-2.05,2.923l-31.161,11.302,14.045,30.023c.553,1.186.307,2.592-.62,3.517s-2.336,1.172-3.517.618l-30.025-14.043-11.299,31.161c-.446,1.23-1.616,2.05-2.925,2.05ZM55.092,94.524c.404,0,.808.079,1.191.237.808.334,1.437.992,1.734,1.813l9.534,26.295,9.534-26.295c.298-.822.926-1.479,1.734-1.813.811-.333,1.719-.314,2.509.056l25.338,11.85-11.852-25.336c-.368-.791-.389-1.701-.055-2.509.334-.806.993-1.435,1.813-1.733l26.295-9.537-26.295-9.536c-.82-.298-1.479-.926-1.813-1.733s-.313-1.718.055-2.509l11.852-25.338-25.338,11.852c-.79.372-1.698.39-2.509.056-.808-.334-1.437-.992-1.734-1.813l-9.534-26.296-9.534,26.296c-.298.822-.926,1.479-1.734,1.813-.805.334-1.716.316-2.509-.056l-25.338-11.852,11.852,25.338c.368.791.389,1.702.055,2.509s-.993,1.435-1.813,1.733l-26.295,9.536,26.295,9.537c.82.298,1.479.926,1.813,1.733.334.808.313,1.718-.055,2.509l-11.852,25.336,25.338-11.85c.416-.196.869-.293,1.318-.293Z"/>
    </g>
  </g>
</svg>